<?xml version="1.0" encoding="utf-8"?>
<!-- Generator: Adobe Illustrator 23.0.3, SVG Export Plug-In . SVG Version: 6.00 Build 0)  -->
<svg version="1.1" id="Layer_1" xmlns="http://www.w3.org/2000/svg" xmlns:xlink="http://www.w3.org/1999/xlink" x="0px" y="0px"
	 viewBox="0 0 1366 768" style="enable-background:new 0 0 1366 768;" xml:space="preserve">
<style type="text/css">
	.st0{fill:none;stroke:#000000;stroke-width:0.7444;stroke-miterlimit:10;}
</style>
<g>
	<g>
		<path class="st0" d="M926.9,707.3c2.5,13.8,4.5,27.8,6,41.9c0.9,8.2,0.4,16.6,0.6,24.9h6.4c1.5-16.6-0.8-32.8-3.3-49
			c-1.1-7.8-2.5-15.6-3.8-23.4c-2.2-12.9-0.5-25.5,2.3-37.8c6.1-27.4,12.4-54.6,18.7-81.9c4-17.2,11-31.6,20.3-44.3
			c10.2-13.7,20.9-26.6,34.6-33.2c11.8-5.7,22.8-12.9,33.6-21.8c7.9-6.6,16.5-7.4,26-1.8c-1.9,0.4-3.1,0.9-4.1,0.8
			c-8.3-0.8-15.5,3.4-22.2,9.2c-8.1,7-16.8,11.6-25.8,16c-24.2,11.9-42.3,34.3-54.2,65c-4.7,12.1-6.7,26.2-9.8,39.4
			c-3.1,13.1-6,26.2-9.1,39.3c-3.4,14.8-7.7,29.5-6.6,45.3c0.6,8.3,2.8,16.4,3.8,24.7c1.7,14.9,3.2,29.9,4.5,45
			c0.3,2.8-0.4,5.7-0.6,8.5h6.4c1.5-20-1.3-39.4-5.4-58.2c-4.1-19.2-2.9-37.3,1.7-55.9c5.5-22.3,10.3-44.8,15.1-67.4
			c4.7-21.6,13.8-38.9,26.2-53.5c9.5-11.2,20-20,32-25.4c7.3-3.3,14.1-8.5,20.9-13.5c7.3-5.4,14.4-11.6,23.3-10.5
			c2.2,0.3,4.5,0.7,6.8,1.8c-4.1,1-8.4,1.3-12.2,3.3c-5.9,3.3-11.5,7.8-17.3,11.6c-5.2,3.3-10.3,7.1-15.7,9.2
			c-12.8,5-24,13.5-33.7,25.8c-9.2,11.7-18.5,23.5-23,40c-3.3,11.8-5.5,24-8.3,36c-2.9,12.8-5.7,25.6-8.7,38.3
			c-3.3,14.2-7.2,28.3-6.3,43.4c0.4,6.8,2,13.4,3.2,20c3.3,18,6.6,36,5.5,54.7h4.9c1.5-21.3-1.9-41.8-6.2-61.9
			c-3.1-14.5-2.9-28.6,0.8-42.4c6.4-24.1,11.4-48.7,16.3-73.4c6.1-30.4,21.9-50,41.2-65.1c5.1-4,11.2-5.7,16.6-8.9
			c5.4-3.2,10.8-6.4,15.7-10.6c8.4-7.1,16.9-13.3,27.2-11.7c2.9,0.4,5.7,1.1,8.5,2.4c-12.9-1.5-23.4,6.2-33.9,14.6
			c-4.8,3.8-10.1,6.8-15.5,8.9c-14.6,5.6-26.2,17.1-37.2,30.8c-15.2,18.9-20.8,43.4-25,69.3c-1.6,9.8-4.2,19.3-6.3,28.9
			c-2.1,9.8-4.2,19.6-6.3,29.5c-2.8,13.2,0.6,25.6,2.8,38.1c2.9,17,6.4,33.9,4.7,51.6h4.9c1.4-21.1-2-41.5-6.1-61.5
			c-2.9-14-2.7-27.6,1-41c6-22.1,10.3-44.8,15.1-67.4c7.8-36.9,26.8-59.2,52.9-70.8c8.7-3.9,16.5-9.8,24.3-16.1
			c7-5.5,14.2-9.1,22.4-7.4c0.9,0.2,1.7,0.6,2.6,1.3c-11,1.4-20.3,8-29.3,16c-6.2,5.5-13.1,7.9-20.3,10.2c-4.1,1.3-8.2,4-11.9,7
			c-18.3,14.7-32.3,34.6-37.5,63.4c-3.8,21.3-8.4,42.2-14.1,62.7c-4.9,17.7-3.7,35,0.4,52.6c4,16.6,6.3,33.5,4,51h6.4
			c1.7-22.3-1.9-43.6-6.7-64.7c-2.7-11.9-2-23.5,1.1-34.9c6-22.3,11-44.8,15.2-67.8c4.7-25.6,18-42.2,34-54.9c5-4,11-5.2,16.3-8.5
			c7-4.3,14-8.8,20.7-14c7.7-5.9,15.4-10,24.4-8.2c0.6,0.1,1.1,0.3,2.2,0.7c-1,0.8-1.5,1.5-2,1.5c-9.4,0.5-17.4,6.3-25.1,12.8
			c-5.7,4.9-11.7,8.5-18.4,10.5c-12.8,3.7-22.8,14-32.4,25.7c-12.8,15.6-17.9,35.8-21,57.7c-1.3,9.2-3.7,18.1-5.7,27.1
			c-2.2,10-4.7,19.8-6.8,29.8c-2.7,13.1,0,25.6,2.9,38.1c3.8,15.9,6.5,32.1,4.5,49h5.6c-0.1-9.6,0.3-19.3-0.6-28.6
			c-1-9.6-2.8-19.1-5.1-28.3c-3.9-15.3-3.4-30.3,1-45c5.3-17.7,8.7-36,12.1-54.5c6.3-34.8,23.5-54.6,48.1-64.5
			c6.8-2.7,13.1-7.5,19.3-12.1s12.2-9.9,19.5-10.3c3.6-0.2,7.2,1,10.8,1.6c-0.1,0.4-0.1,0.8-0.1,1.1c-3.5,0.7-7.3,0.4-10.5,2.2
			c-6.7,3.7-13.2,8.1-19.6,12.8c-5.1,3.8-10.1,7.1-15.9,8.6c-9.9,2.5-18.4,8.8-26.2,17.6c-11.7,13.2-20.1,29-22.6,49.9
			c-0.5,4.4-1.1,8.9-2,13.1c-2.7,12.1-5.4,24.1-8.5,36c-4.1,15.6-5.2,30.8-0.8,46.8c4.8,17.2,7.2,35.1,5.4,53.6h4.2
			c1.9-17.3,0.9-34.3-3.7-50.6c-5-18-5.1-35.7,0.8-53.2c5.7-16.9,8.5-34.9,11.2-52.8c3.8-25.2,28.4-52,44-54.3
			c7.7-1.1,14.2-6.8,20.4-12.4c7.3-6.6,15.3-10.3,24-10.7c2.8-0.1,5.6,1.5,8.4,2.2c-0.1,0.5-0.1,1-0.1,1.5c-2.7,0-5.5-0.3-8.2,0.1
			c-8,0.8-15.2,4.8-21.9,10.7c-7.1,6.3-14.5,11.3-23.2,13.1c-8.2,1.7-15.3,7.7-21.7,15.2c-8.2,9.6-15.8,19.8-18.9,34.5
			c-1.7,8-2.6,16.2-4.1,24.2c-1.3,7-2.5,14-4.3,20.7c-3.8,14-8.4,27.9-7.2,43.1c0.8,9.6,3,19,5.4,28.1c3.6,13.3,4.2,26.8,2.5,40.6
			h5.6c2.2-17.3,0.3-34.1-3.9-50.5c-1.1-4.2-1.7-8.7-2.8-12.9c-1.8-7.5-1.5-14.8,0-22.2c0.8-4.1,1.5-8.5,2.8-12.4
			c5.5-16.8,8.2-34.7,10.8-52.6c3.1-22,24.7-47.1,40.6-49.9c6.1-1.1,11.9-5.6,17.4-9.7c7.2-5.3,14-12,22.5-12.6
			c2.6-0.2,5.3,0.5,7.9,0.8c0,0.6,0,1.1,0,1.7c-0.6,0.3-1.1,1-1.7,1c-8,0.1-14.7,4.7-21.3,10.1c-3.3,2.7-6.5,5.7-10,8.1
			c-2.6,1.7-5.4,3.4-8.2,3.8c-11,1.1-19.9,8.1-28.1,17.7c-9.7,11.3-15.4,25.3-16.8,42.4c-1.2,14-4.9,26.9-8.9,39.7
			c-5.1,16.6-5.5,33.1,0.1,49.6c5.2,15.4,5.6,31.5,3.9,47.9h4.9c1.8-17,1-33.5-4-49.4c-4.5-14.2-5.8-28.6-1-43.2
			c0.5-1.5,0.7-3.1,1.2-4.5c4.5-13.4,7.2-27.5,8.5-41.9c2.6-27.9,23.7-48.1,39.9-51.3c6.6-1.3,12.9-7.2,19-11.8
			c6.5-4.9,12.9-9.9,20.6-10c1.3,0,2.7,0.3,4.8,0.6c-5.7,2.9-10.7,5-15.3,8c-4.8,3.2-9.2,7.7-14.1,10.8c-3.8,2.4-7.8,4.1-11.9,4.9
			c-10.7,2.2-19.1,9.4-27,19.1c-7.8,9.8-11.6,21.8-13.1,35.6c-1.3,11.7-3.7,23-6.8,34.1c-2.6,9.3-4.7,19.3-5.1,29.1
			c-0.3,6.7,1.8,14,3.9,20.5c5,16,6.4,32.3,3.9,49.2h5.6c0.2-3.4,0.3-6.7,0.6-10.1c1.1-12.8,0.1-25.4-4-37.1
			c-5.7-16.7-5.7-33.2,0.1-49.4c4.8-13.3,6-27.8,8.1-42.1c1.1-8.1,3.6-15.1,7.8-21c6.4-9.2,13.7-16.5,22.8-20.1
			c0.8-0.3,1.6-0.9,2.4-0.8c8.9,0.7,15.9-5.8,23-11.9c7-6.1,14.4-11,22.8-11.2c4.1-0.1,8.2,2.3,12.3,3.4c5.9,1.7,11.9,3.7,17.9,4.8
			c2.8,0.6,5.9,0,8.7-0.8c17.5-5,33-15.1,43.9-35.5c6.5-12.1,10.3-25.8,11.7-40.6c1.1-11.5,5-19.6,12.1-26.2
			c7.8-7.2,15.2-15.4,22.6-23.5c6.4-7,12.6-14.4,16.6-24.4c12.7-31.8,12.3-63.8,0.1-95.5c-6.3-16.2-12.1-32.2-12.2-50.9
			c-0.1-6.9,0.1-13.9-1-20.6c-3.5-22.8-8.4-44.8-26-55.2c-6.6-3.9-13.5-7.6-20.5-9.8c-10.5-3.3-21.3-4.7-31.8-7.8
			c-6.7-2-13.3-5.2-19.8-8.4c-4.8-2.4-8.2-7.1-9.4-14.3c0.3-0.1,0.6-0.3,0.7-0.2c10.6,14.6,24.6,18,38.4,21.5
			c6.2,1.6,12.7,1.3,18.8,3.4c12.5,4.3,25.1,9.1,35.4,20.2c2.9,3.1,4.8,8.1,6.9,12.4c6.6,13.8,10.3,28.8,10.6,45.5
			c0.3,14,1.7,27.8,5.6,40.8c2.7,9,6.3,17.5,9.4,26.2c9.8,26.9,10.1,54.3,1.7,81.7c-4.1,13.5-11.5,24.1-19.5,33.6
			c-7.6,9-15.7,17.2-23.7,25.7c-5.6,6.1-9.4,13.6-11.2,23.2c-1.5,8.2-2.5,16.6-4.5,24.7c-7.3,29.1-23.5,45.1-43.9,54.9
			c-10.5,5-20.7,3.6-30.9-1c-12.9-5.8-25.1-4.5-36.7,5.9c-3.9,3.5-8,6.8-12.2,9.6c-2.4,1.6-5.1,2.7-7.7,2.9
			c-17.9,1.8-29.5,15.6-37.2,36.4c-1.5,4-2.1,8.9-2.4,13.5c-0.8,12.4-3.3,24-6.8,35.5c-3.2,10.3-5.5,21.3-3.6,32.7
			c1.1,6.4,2.7,12.9,4.9,18.9c4.3,12,4.3,24.3,2.9,37c-0.1,1.3-0.1,2.6-0.2,3.8h6.4c1.9-15.9,1.9-31.4-3.1-46.5
			c-3.2-9.6-6.4-19.5-4-30.5c1.1-5.4,2.1-10.8,3.8-15.9c4.2-12.4,5.4-25.6,7.1-38.8c0.8-5.5,2.4-11.6,4.9-15.9
			c7-11.7,15.7-19.8,27.4-20.8c7.6-0.6,13.7-7,20-12.3c7.1-6.1,14.5-10.3,23.2-9.4c1.1,0.1,2.3,0.7,3.4,1.1c0,0.4,0,1,0,1.4
			c-1.6,0.4-3.2,0.8-4.8,1.1c-9.2,1.7-16.6,8.6-24.1,15c-4.7,4-9.4,6.6-15.1,6.6c-5.6-0.1-10.8,2.5-15.4,7.2
			c-7.5,7.8-14.9,15.8-16.5,29.7c-0.3,2.4-0.5,4.7-0.6,7.1c-0.6,11.7-3.2,22.6-6.8,33.2c-5,14.6-4.6,29.4,0.9,43.4
			c5,12.8,5.5,25.8,4,39.5c-0.2,1.5,0,3.2,0,4.7h4.9c0.1-2.7-0.1-5.4,0.1-8.1c1.3-14-0.5-27.4-5-40.1c-1.3-3.8-2.3-7.7-3.3-11.6
			c-2.4-8.5-0.2-16.6,2.2-24.2c4.5-13.6,6.6-27.9,7.8-42.6c0.6-7.1,2.9-12.8,6.8-17.9c6.3-8.1,13-14.6,22.1-14.6c1,0,1.9,0,2.9,0.8
			c-0.3,0.3-0.5,0.6-0.8,0.6c-11.1,1.5-18.8,10.8-24.9,22.1c-2.6,4.9-3.7,12.1-4.1,18.4c-0.8,12.1-3.3,23.4-6.7,34.5
			c-4.1,13.6-3.6,26.8,1.8,39.6c4.3,10.2,5.6,21.2,4.4,32.8c-0.4,3.3-0.4,6.7-0.6,10h6.4c0.8-11.9,1.7-23.9-0.5-35.7
			c-0.4-2.1-0.8-4.4-1.6-6.2c-6.5-13.5-8.1-27.4-2.7-42.2c4-10.7,5.3-22.1,6.2-33.7c1.2-15.9,12.2-30.6,24.1-30.7
			c7.7-0.1,13.9-3.8,20-9.2c8-7,16.4-12.6,26.2-12.5c3.1,0,6.3,0.7,9.2,1.9c13.6,5.6,27,5.1,40.3-1.8c17.5-9.1,32.7-22.2,42.9-44.4
			c6.2-13.5,10.4-28,12.1-43.7c1.4-13.3,7.5-21.5,14.9-28.9c3.6-3.6,7-7.5,10.1-11.6c6.5-8.5,13.2-16.8,19.1-26
			c12.3-18.9,17.6-41.8,18.3-66.8c0.8-25.8-4.8-49.2-13.9-71.4c-7-17-10.5-35.3-11.5-54.4c-1.1-21-6.4-39.7-14-57.6
			c-6.3-14.8-16.9-22.3-27.9-28.6c-13.9-8-28.6-10.8-43.3-14.6c-8.2-2.1-16.3-5.7-24.3-9.4c-5.2-2.5-7.9-8.7-9.7-15.7
			c9.8,15.2,23.5,18.6,36.8,22.5c9.2,2.7,18.8,3.8,28,6.9c11.4,3.9,22.2,10.4,31.9,19.8c2.2,2.1,4.3,4.6,5.9,7.5
			c7.2,14,14.5,28.2,17.7,45c2,10.7,2.5,21.9,3.4,32.9c1.7,18.6,6.8,35.4,13.3,51.7c12.2,30.5,14.3,62.4,7.1,95.7
			c-3.6,16.6-10.7,30.4-19.2,42.5c-8.5,12.1-17.9,22.8-26.9,34.2c-5.7,7.1-10.5,14.7-12,25.8c-2.2,16.4-5.9,32.2-12.4,46.6
			c-6.4,14.2-15.2,24.9-25.4,33.7c-9.3,7.9-19.3,13.4-30,16.7c-7.2,2.2-13.9,0.1-20.7-1.9c-2.9-0.8-5.7-1.7-8.5-2.7
			c-8.4-3.1-16.3-0.6-23.8,4.3c-6.5,4.3-12.6,9.7-19.1,14.2c-1.7,1.2-4.1,1.5-6.1,1.2c-11.9-2.1-25.1,11.5-28.3,24.1
			c-1,4-1.2,8.4-1.3,12.7c-0.3,10-2.7,19.1-5.7,27.9c-4.3,12.9-4,25.6,1.3,37.6s5.4,24.9,4,38.1c-0.2,2-0.2,4.1-0.3,6.2h4.9
			c1.3-13.2,2.7-26.4-1.5-39.2c-1.4-4.2-2.8-8.4-4.3-12.6c-2.8-8-2.7-16.2-0.1-24.2c4.2-12.6,6.4-25.6,7.1-39.3
			c0.6-12.1,7.5-17.8,14.5-22c3.5-2.1,8-1.1,11.9-2.1c3.2-0.8,6.4-2,9.2-4c5.9-4,11.4-9,17.3-12.8c8.7-5.5,17.7-5.3,26.7-1.6
			c9.3,3.8,18.6,3.4,28.1,0.6c19.8-5.9,36-19.7,48.9-40.8c9.4-15.3,15.2-33,17.5-52.7c1.3-11.6,5.2-20.3,12.2-27.4
			c13.2-13.5,24.7-29.3,34.7-47.3c11-19.9,16.1-42.4,16.8-67c0.7-24.4-3.4-47.3-12.1-68.6c-5.8-14.5-10.5-29.6-12.4-46.1
			c-1.6-13.3-3.1-26.5-5.2-39.7c-1-5.9-2.9-11.8-5-17.2c-3.9-9.8-7.7-20-12.8-28.6c-7.2-12.1-17.8-18.1-28.3-23.5
			c-12.4-6.6-25.6-9.3-38.6-12.6c-8.5-2.1-16.8-5.9-25.1-9.4c-6.1-2.6-8.6-9.6-10.5-18.2c14.2,19.8,32.2,24,50.6,26.9
			c13.6,2.2,26.1,8.7,38.3,16.8c11.4,7.6,18.8,19.7,25.3,34.1c6.3,13.9,10,28.5,11.8,44.5c1.9,16.6,3.5,33.5,8.3,49.1
			c3.5,11.7,8,22.8,11.8,34.3c9.2,27.5,10,55.9,4.8,84.9c-3.1,17.5-9.9,32.3-18.1,46.2c-7.6,13-16.2,24.7-25.8,34.9
			c-10.7,11.3-15.8,26-18.6,43.5c-4,24.6-13.1,45.4-27.5,62c-12.8,14.8-27.6,22.9-43.8,26.6c-8.3,1.9-16.6-0.1-24.7-2.9
			c-10.1-3.4-19.5-0.9-28.4,5.9c-2.2,1.7-4.2,3.4-6.3,5.2c-5.6,5.1-11.5,7.4-18.6,6.7c-11.3-1.1-23.9,15.2-24.2,30.5
			c-0.2,10.6-2.2,20.5-5.2,30.1c-4.8,15.2-1.7,29.3,3.1,43c1.9,5.6,3.3,10.8,2.9,16.8c-0.3,5.6-0.6,11.2-0.8,16.8h3.5
			c0.5-5.3,1-10.5,1.5-15.8c0.8-8.8-1.7-16.5-4.4-24.2c-1.3-3.9-2.7-7.8-3.6-11.9c-1.3-6.1-1.6-12.2,0.3-18.3
			c3.7-12.1,5.7-24.6,6.3-37.6c0.5-12,10-24.2,18.7-23.3c9.1,0.9,16.2-3.7,23.6-9.8c10.3-8.4,21.4-12.9,33.6-8.5
			c14.9,5.4,29.5,3.7,43.5-5.5c5.7-3.8,11.6-7.2,17.9-11.1l22.5-31.6c1.7-3.3,3.3-6.8,4.8-10.3c6-13.8,8.7-29.3,11.4-44.6
			c1.8-10.4,6.6-18.1,12.5-24.7c4.8-5.4,9.8-10.4,14.1-16.5c6.4-9.3,12.5-19.2,18.4-29.2c3.7-6.4,7.3-13.1,9.9-20.3
			c4.2-11.5,6.6-23.9,7.6-36.7c2.2-28.4-0.9-55.7-10.9-80.8c-8.3-21-14-42.9-15.8-66.5c-1-13.1-3-26-6.4-38.3c-0.3-1-0.7-2-1.1-2.9
			c-2.2-4.7-4.7-9.1-6.4-14c-4-10.5-8.7-19.9-16.1-26.8c-11.5-10.8-24.2-17.5-37.7-21.6c-11.2-3.5-22.6-5.9-33.8-9.4
			c-5.4-1.7-10.7-4-15.6-7.4c-8.2-5.8-10.9-16.8-12-28.3c-0.6-5.9-2.2-10.6-5.5-13.7c-3.4-3.3-7.1-6.5-11.1-8
			c-6.6-2.6-13.5-4.3-20.3-5.6c-11.9-2.2-22.9-7-31.9-18.2c-7.7-9.6-12-20.9-7.3-35.5c1.6-4.8,3.1-9.8,4.6-14.7
			c-3.3-1.4-5,0.6-6.6,4.2c-8.2,18.2-5.4,32.4,3.3,46.8c8.9,14.7,21.4,21.3,35,24.4c7.5,1.7,15.1,2.7,22.6,4.8
			c8.4,2.4,14.2,12.4,13.6,22.1c-1.3-2.7-2.4-5.7-4-8.2c-4.5-7.3-10.7-10.8-17.3-12.7c-7.6-2.2-15.2-3.9-22.8-6.1
			c-10.7-3.1-20.6-8.6-28.1-19.6c-9.2-13.4-12.8-25.6-7-42.6c1.5-4.3,2.7-8.7,4.1-13.1c-4.3-1.5-7.3-0.4-8.7,5.5
			c-0.1,0.6-0.7,1.1-1.1,1.7c-1,4.4-2.4,8.7-2.9,13.1c-2.3,18.8,4.1,32.7,13.7,44.8c10.5,13.2,23.7,17.8,37.2,21
			c5.3,1.3,10.7,2.2,16,3.6c8.7,2.1,15,10.2,16.1,21c-6.9-16-18.6-18.6-30-21.9c-9.4-2.7-19-4.9-27.9-9.8c-11.3-6.1-20.3-17-25-32.8
			c-4.1-13.5-3.3-26.8,2.7-39.2c0.5-2.4,1-4.8,1.5-7.5c-1.1-0.1-2-0.2-3-0.2c-1.1,0-2.1-0.2-3.2,0.1c-0.7,0.2-1.7,0.6-2,1.3
			c-6.1,13.8-8.8,28.8-4.5,44.1c8.8,31.3,26.9,46.7,50.5,51.9c8.1,1.8,16.3,3.6,24.2,6.4c5.9,2,9.5,8.1,11,15.1
			c-3.9-3.7-7.7-9.1-12.4-11.5c-7-3.8-14.6-5.5-21.9-8.2c-7.8-2.7-16-4.2-23.3-8.5c-11.7-6.8-20.9-17.8-27.2-33.5
			c-5.1-12.9-6-26-2.7-39.8c1.3-5.6,2.9-11.2,4.8-18.3c-2.4,1.1-4.7,1.3-5,2.6c-2.4,7.7-5.4,15.3-6.1,23.3
			c-2,20.3,3.7,37.7,14.1,52.1c11,15.3,24.5,24.4,40.1,27.6c7.4,1.6,14.8,3.7,22.1,5.8c8.5,2.4,16.5,15.4,15,25.4
			c-0.6-1.7-1.1-3.4-1.8-5c-4.3-10.8-11.7-15.8-20.1-18.4c-6.8-2.1-13.6-3.7-20.3-5.7c-20.6-6.1-37.1-19.7-47.5-45.8
			c-4.7-11.9-5.9-24.2-4-37.1c1.1-7.9,3.2-15.6,4.9-23.9c-1.9,0-3.8-0.1-5.6,0.1c-0.6,0.1-1.5,0.9-1.8,1.7
			c-5.6,16.9-8,34.6-3.4,52.2c7.5,28.7,22.6,47.7,43.6,57.9c5.6,2.7,11.5,4.4,17.3,6.1c6.2,1.8,12.5,2.9,18.6,5
			c8.5,2.8,14,11.4,14.1,21.8c-3.8-10.5-10-15.9-17.3-19.1c-3.4-1.4-6.8-2.2-10.3-3.1c-18.8-4.8-37-11.4-51.4-30.6
			c-17-22.6-24.6-52.3-15.6-83.3c0.8-2.7,1.3-5.5,2.2-9.1c-2.7,1.2-5.5-1.9-7,2.6c-5.8,18.3-7.3,37.2-2.7,56.2
			c6,24.8,18.3,43.2,34.7,55.9c12.2,9.5,26.2,12.7,40,16c6.6,1.6,13.1,3.5,18.3,10.1c3.2,4.1,4.9,9.3,4.3,14
			c-4-10.7-10.8-16.3-19-19c-6.8-2.3-13.8-4-20.7-6.1c-23.5-7.1-42.3-23.4-54.7-52.4c-8.1-18.9-10.1-38.6-6.2-59.6
			c1.1-5.7,2.4-11.4,3.5-17c-4.8-0.9-4.8-0.9-5.8,2.6c-5.3,18.1-6.6,36.7-2.9,55.5c5.6,28.4,19.2,48.8,37.1,63.8
			c12.2,10.2,26.2,13.7,40.1,17.5c6.3,1.8,12.8,2.7,18.2,8c5,4.7,7.1,11.4,7.1,18.6c-2.6-4.1-4.8-9.5-8.2-12.6
			c-4.3-3.9-9.3-6.6-14.3-8.6c-7.3-2.9-14.9-4.7-22.3-7.2c-25.3-8.5-43.9-28.8-55.8-60.3c-6.8-17.9-8.6-36.7-5.5-56.4
			c1.1-7.1,2.8-14,4.2-21.2h-6.2c-0.8,3.6-1.6,6.9-2.4,10.3c-4.5,19.6-4.8,39.5,0.6,58.5c11.2,38.9,31.3,65.1,61.5,75.5
			c9.3,3.2,18.8,5.7,28.1,9.1c10,3.6,15.4,12.6,15.6,25.6c-4.1-13.9-12.1-20.3-21.8-23.4c-1.6-0.5-3.3-0.7-4.8-1.3
			c-12.6-5.2-26-8.7-37.8-16.3c-16.7-10.8-29.3-28.8-38.3-51.3c-7.9-20-10.7-40.8-7.8-63c1-7.9,2.7-15.6,4.3-24.6
			c-2.4,2.2-5.6-1.8-6.4,3.3c-1.8,12.3-4.4,24.7-4.8,37.2c-0.9,27,7,50.6,19.2,71c9.6,16.1,21,30,35.7,37.2
			c10.9,5.4,22.1,9.8,33.2,14.2c3.5,1.4,7.5,1.1,10.8,2.7c10.3,5,14.5,12.4,14.9,28.8c-0.5-1.1-1.1-2.2-1.4-3.4
			c-2-10-6.8-16.5-13.5-20.1c-4.5-2.4-9.4-3.9-14.2-5.4c-13.6-4.1-27.5-8.4-39.6-18.1c-16.7-13.3-29.9-31.7-38.9-55.4
			c-8.1-21.2-11.2-43.4-8.2-66.8c1-8.1,2.7-16,4-23.9c-4-1.5-6.3-0.1-6.7,5.6c-0.1,0.8-0.3,1.5-0.5,2.3c-5.7,25.8-5,51.3,2.6,76.2
			c8.5,28.1,23.2,49.4,41.6,65.9c11.1,10,24.2,13.5,36.8,18.4c6.6,2.6,13.5,4.2,20.1,7.2c9,4.1,13.5,13.7,12.6,26.3
			c-1.7-10.2-6-16.6-12-20.6c-3.6-2.4-7.4-4-11.3-5.4c-6.4-2.4-13.1-4.1-19.5-6.6c-10.1-4-20.4-7.9-29.2-16.2
			c-15.4-14.6-28.5-32-37.4-55.1c-10-25.8-13-52.5-8.4-80.8c1-5.7,2-11.4,3.1-17.4h-6.3c-3.6,16.6-5.8,33.3-5.1,50.6
			c1,25.8,8.7,48.2,19.1,69.1c5.5,11,12.8,19.6,20.1,28c7.3,8.4,14.2,17.3,23.9,20.9c10.3,3.7,20.3,8.7,30.6,12.8
			c4.7,1.9,9.6,3.1,14.4,4.8c8.7,3.1,14,13.3,13.1,26.6c-4.4-18.2-14.8-23.2-26.2-26.2c-0.6-0.1-1.1-0.3-1.7-0.4
			c-15.2-4.8-30.6-10-43.9-21.5c-18.6-16-33.2-37.4-42.9-64.7c-7.8-22.1-11.2-45.2-8.9-69.5c1-10.3,2.9-20.3,4.3-30.7
			c-2.2,0.9-5.6-2.7-6.4,2.7c-1.8,13.3-4.4,26.8-4.5,40.2c0.8,44.1,14.3,79.3,37.1,108.6c12.7,16.3,26.9,28.8,43.9,34.9
			c9.5,3.4,19,7.2,28.5,10.5c5.9,2,11.2,5.2,14.7,12.2c1.7,3.5,2.4,8,3.6,12c-0.3,0.2-0.6,0.3-1,0.5c-7.5-14.5-11-18.1-21.9-21.8
			c-5.7-2-11.5-3.5-17.1-5.6c-14.5-5.4-28.7-11.8-40.6-24.6c-13.1-14-24.9-29.7-33.7-49.8c-14.3-32.7-19.1-67-12.9-104.2
			c0.8-4.8,1.6-9.5,2.4-14.5h-5.7c-0.6,3.4-1.1,6.6-1.7,9.9c-9.4,52.1,1.8,97.1,26.4,136.8c5.9,9.6,13.5,17.2,20.4,25.6
			c6.8,8.4,14.4,15.4,23.2,19.1c9.4,4,18.9,7.3,28.5,10.9c7.8,2.9,15.9,4.5,22.5,11.9c4.5,5,6.3,9.8,5.9,18.3
			c-5.8-18-17.5-23-29.5-26.1c-14.9-3.8-29-9.8-41.8-20.3c-18.2-14.9-33.3-34.5-44.5-59.6c-12.9-29.1-19.5-60.1-16.6-94.3
			c0.9-10.8,2.8-21.4,4.2-32c-6.4-1.3-6.4-1.3-7.7,7.3c-0.5,3.1-1,6.3-1.5,9.4c-4.6,30.7-2.3,60.7,6.8,89.3
			c8.3,26,20.2,48.4,36.2,67.1c13.3,15.5,27.7,27,44.6,33.4c10.3,3.8,20.5,8,30.8,12.1c9.5,3.8,14.4,12.4,14.2,24.3
			c-0.1,0-0.3,0.1-0.3,0c-0.3-0.3-0.5-0.6-0.7-1c-4.3-10.4-10.8-16.6-19.1-19.6c-5.9-2.2-11.8-4.1-17.7-6.3
			c-13.1-4.8-26-10.7-37.4-20.7c-17.9-15.6-32.8-35.3-44.1-60.3c-12.1-26.7-18.8-55.3-19.2-86.6c-0.2-16.5,2.5-32.4,5.5-48.5h-8.3
			c-1.3,14.4-3.6,28.8-4,43.2c-1.1,42.9,9.8,80.7,29.1,113.7c12.3,21,26.7,39.7,45.2,50.8c9.6,5.8,19.5,11.4,29.3,16.1
			c6.8,3.3,14.1,4.5,21,7.5c8.6,3.8,14.5,9.8,15.1,23.4c0.6,12.9,5.7,22.5,14,28.6c11.2,8.4,23.5,11.4,36.1,13.6
			c9.2,1.6,18.3,3.6,27.5,5.6c3.1,0.6,4,2.7,2.6,7.1c-5,16.7-4,33,2.4,48.9c2.1,5.2,4,10.5,5.9,15.9c5.9,16.2-1.2,35.5-11.8,41.4
			c-9.4,5.3-19.3,8.8-28.9,13.6c-2.5,1.2-4.8,3.8-6.7,6.4c-4,5.9-3.6,13.9-4.9,21.1c-1,5.7-2.2,12.8-5.2,16.2
			c-7.5,8.8-16.5,11.8-26.2,6.5c-5.4-2.9-10.7-6.7-16.2-9.1c-7.6-3.3-15.5-6.1-23.3-1c-6.3,4.1-12.2,8.9-18.6,12.6l-61.6,51.5
			c-8.2,11.3-14.4,24.5-18.1,39.5c-3.3,13.3-5.7,27-8.9,40.4c-3.8,16-8.1,31.7-11.7,47.7C925,677.7,924.2,692.3,926.9,707.3z"/>
	</g>
	<g>
		<path class="st0" d="M1111.4,597.4c-7.4,4.8-14.7,9.8-21.9,15.1c-5.3,4-7.5,4.9-12.7,3.2c2.6-1.7,4.6-3.1,6.6-4.5
			c6.9-5,13.7-10.4,20.7-15.1c4.7-3.2,9.9-2.9,15.1-1.6C1116.6,595.4,1113.8,595.9,1111.4,597.4z"/>
	</g>
	<g>
		<path class="st0" d="M1235,481.2c-0.1,0.1-0.2,0.2-0.3,0.3c-2.3,3.8-4.7,7.7-7,11.5c-3.8,6.2-5.9,13.4-6.9,21.2
			c-4.6,37.6-19.6,64.4-45.3,79.5c-7.8,4.6-15.7,8.6-24.4,8.4c-1.2,0-2.4-0.4-3.5-0.6c7.1-2.7,14.4-4.6,21.2-8.2
			c27-14.1,43.9-40.4,48.5-79.5c1.8-15.6,8.7-24.4,17.3-32.5c0.9-1.5,1.8-2.9,2.7-4.4c0.3,0.4,0.6,0.8,1,1.1
			C1237.2,479.2,1236,480.1,1235,481.2z"/>
	</g>
	<g>
		<path class="st0" d="M1148,151.5c11,9.9,23.6,13.1,36.3,15.3c11.4,2,22.6,4.5,33.1,10.8c6.1,3.6,11.9,8.2,17.7,12.8
			c5.9,4.7,8.7,13.1,12.3,20.6c7.5,15.6,10.7,32.8,11.6,51.2c1.1,21.7,6,41.8,13.8,60.8c10.9,26.4,13.3,54.6,7.7,83.9
			c-2.8,14.6-7.9,27.6-15.8,38.5c-3.8,5.3-7.5,11-11.8,15.8c1.5-2.4,3-4.9,4.7-7.1c26.4-33.7,28.4-88.7,12.6-127.9
			c-9.1-22.7-13.6-46.3-14.4-71.8c-0.4-13.8-5.2-26-9.2-38.4c-6-18.8-17.7-27.9-30.8-34.9c-12.2-6.6-25.1-9.2-37.9-12.4
			c-9-2.2-17.8-5.5-26.5-9.3c-5.9-2.5-10-9.6-10.9-16.4C1142.9,145.7,1145.2,149,1148,151.5z"/>
	</g>
	<g>
		<path class="st0" d="M1143.1,159.6c6.8,6.6,14.9,9.5,22.8,11.9c7.2,2.2,14.5,3.4,21.9,5c14.9,3.2,29,9.4,41.7,20.6
			c2.4,2.1,4.7,5,6.3,8.3c8.9,17.9,16.3,36.5,16.5,59.1c0.2,21.8,5.2,41.7,13.2,60.5c10.7,25.2,12.8,52.4,7.8,80.3
			c-3.6,20.1-12.4,36.2-23.5,49.9c-6.7,8.3-13.5,16.6-20.7,23.7c-8.9,8.7-13.8,19.8-15.6,34.4c-2.6,21.4-9.2,40.1-21.5,54.7
			c-9.3,11.1-20,18.4-31.8,23.5c-6.4,2.8-12.8,3.3-19.3,2.1c-1-0.2-1.9-0.6-2.7-0.8c7-1.8,14-2.7,20.6-5.6
			c25.6-11.1,43.2-33.2,49.9-69.5c0.8-4.3,1.6-8.7,2-13.1c1-9.6,5.1-16.1,10.8-21.4c12.2-11.7,24-24.1,33.9-39.5
			c10.1-15.7,14.9-34.3,16.3-55c1.5-23.8-2.7-45.7-11.7-65.9c-7.8-17.7-10.1-37.2-10.9-57.3c-0.9-23.9-7-45.1-19.4-62
			c-6.4-8.7-15.2-13.3-24-16.1c-14.2-4.5-28.6-7.4-42.9-11.7c-6.1-1.8-12.1-5-17.9-8.4c-5-2.9-7.1-9.2-8.8-16.6
			C1138.5,154,1140.6,157.2,1143.1,159.6z"/>
	</g>
	<g>
		<path class="st0" d="M1184.8,364.7c-3.1-8.2-6.5-16.5-8.3-25.2c-1.3-6.4-0.3-13.6-0.3-20.5c0.3,0,0.4,0.1,0.6,0.1
			c1.2,7.9,1.8,16.1,3.8,23.6c2.3,8.8,5.5,17.2,8.8,25.5c7.3,18.6,2.7,35.1-5.3,48.3c-0.5,0.9-1.4,1.4-2.5,2.4
			c2.2-6.1,4.7-11.4,6.1-17.2C1191.1,388.9,1189.4,376.7,1184.8,364.7z"/>
	</g>
	<g>
		<path class="st0" d="M1193.2,352.7c2.3,5.9,4.3,12.1,6.5,18.1c6.3,17.6-1.1,41-8.7,50c-0.4,0.5-0.9,0.8-1.2,1.1
			c2.4-7,4.9-13.8,6.9-21c2.9-10.6,2.4-21.4-0.8-31.7c-2.2-7.3-5.1-14.4-8-21.3c-4.6-10.9-4.7-22.5-3.4-34.4c0.3-2.6,0.9-5,1.8-7.7
			c0.1,1,0.3,1.9,0.3,2.9C1185.5,324.4,1188,338.9,1193.2,352.7z"/>
	</g>
	<g>
		<path class="st0" d="M1204,365.3c-2.2-7.2-4.8-14.2-7.6-21c-4.5-11-4.7-22.7-3.3-34.8c0.4,4.3,0.6,8.7,1.1,12.9
			c1.5,10.8,5,20.5,9.1,30c4.7,11.2,8.3,22.9,7.2,36.4c-1.1,13.5-5.1,24.9-12.2,34.6c2.5-8,5.2-15.6,7.2-23.5
			C1208.7,388.1,1207.4,376.5,1204,365.3z"/>
	</g>
	<g>
		<path class="st0" d="M1197.8,445.9c0.1,0.3,0.3,0.5,0.4,0.7c-5.4,4.5-10.7,9-16.1,13.4s-8.7,10.9-10.1,19.2
			c-1.7,9.2-2.8,18.8-5.2,27.7c-4.5,16.5-14.1,25.8-25.7,32c-8.2,4.3-16.5,7.1-26.3,3.4c5.2-1.1,9.6-1.7,13.8-2.9
			c14.4-4.1,26.3-13.1,33.5-31.4c3.7-9.3,5.5-19.3,6.2-29.8c0.5-7.8,3.3-13.2,8.6-16.8C1183.9,456.5,1190.8,451,1197.8,445.9z"/>
	</g>
	<g>
		<path class="st0" d="M1118.2,551.1c-0.3-0.1-0.7-0.3-1-0.4c-0.2-0.1-0.3-0.4-0.6-1c1.7,0,3.3-0.1,4.8,0c5,0.4,9.7,0.8,14.5-2.7
			c3.7-2.7,8.3-3.1,12.2-5.5c16-10.1,25.3-27.6,27.6-51c1.4-14.2,5.4-24,15.2-29.1c1.7-0.9,3.1-2.6,4.7-3.8c0.1,0.3,0.3,0.6,0.4,0.9
			c-3.1,2.9-6.2,5.7-9.1,8.8c-5.7,6.2-7.7,15.1-8.7,24.4c-1.2,10.8-3.2,21.4-7.7,30.6c-7.2,14.7-17.8,22.8-29.9,27.9
			C1133.3,553.3,1125.8,554.5,1118.2,551.1z"/>
	</g>
	<g>
		<path class="st0" d="M1125.8,560.9c2.2-0.1,4.3-0.1,6.4-0.5c16.1-3.6,30.4-12.2,40.8-30c6.6-11.4,10.3-24.7,11.5-39.2
			c0.9-10.7,4.5-18.2,11.6-22.8c2.7-1.7,5.1-4,7.7-5.9c0.1,0.3,0.3,0.6,0.4,1c-0.9,1-1.7,2.2-2.7,2.9c-8.4,6.2-12.2,16.3-13.5,28.7
			c-1.7,18-6.5,34.1-16.6,46.4c-9.6,11.6-21,18.4-33.6,21.5C1133.5,563.9,1129.7,563.5,1125.8,560.9z"/>
	</g>
	<g>
		<path class="st0" d="M1194.8,507c-4.2,26.5-15.5,45.9-33.9,56.7c-6.3,3.7-13.1,5.6-19.8,8.2c-1.3,0.5-2.9,0.3-4.3,0.4
			c-0.1-0.4-0.1-0.8-0.1-1.3c3.6-1.4,7.3-2.7,10.9-4.2c25.1-10,39.9-32.6,44.7-67.5c0.4-3.1,1-6.3,1.4-9.4
			c0.9-8.5,5.8-12.1,10.6-15.9C1197.5,483.3,1196.8,495.3,1194.8,507z"/>
	</g>
	<g>
		<path class="st0" d="M1151.9,193.8c8,2.6,16.1,4.1,24.3,5.4c14.2,2.2,27.4,8.3,39.7,17.9c2.6,2,5.2,4.9,6.6,8.3
			c6.2,13.7,11.4,27.9,11.4,44.6c-0.1,24.6,5.5,46.8,14,68.4c11.6,29.4,11,59.3-2.2,88c-1.8,4-4.3,7.3-6.6,11c-0.3-0.3-0.6-0.7-1-1
			c6.3-9.5,10.2-20.7,12.3-33c4-23.6,2.2-46.6-7-67.2c-8.9-20.2-12.1-41.6-11.8-64.5c0.2-14.2-3.8-26.9-8.9-38.9
			c-4.4-10.5-12.2-15.6-20.1-20c-12.5-6.9-25.8-9.8-39-12.1c-9.5-1.7-18.7-4.7-27.4-9.9c-5.7-3.4-9.4-9.1-10.3-17.9
			C1132.4,185.1,1141.8,190.5,1151.9,193.8z"/>
	</g>
	<g>
		<path class="st0" d="M1129.2,192.4c7,6.8,14.9,10.8,23.3,12.8c11.4,2.7,23,4.1,34.3,7.9c8.4,2.9,16.5,8.2,24.4,13.3
			c2.6,1.7,4.8,5.6,6.4,9.2c6.3,14.4,9.5,30,9.2,47c-0.3,18.3,3.6,35.3,10.3,51.2c5.7,13.5,10.2,27.7,10.3,43.8
			c0.1,16.9-2.7,32.8-9.6,46.8c-3,6.1-7.1,11.2-10.7,16.8c-0.3-0.4-0.6-0.8-1-1.1c1.1-1.8,2.2-3.6,3.3-5.4
			c10-16.1,14.4-34.8,14-55.7c-0.3-17.2-4.8-32.5-11.2-46.9c-7.3-16.6-8.8-34.6-8.3-53.5c0.6-21.5-6.4-47.1-26.1-56.1
			c-12.3-5.7-24.9-9.1-37.8-11.4c-10-1.7-19.6-4.7-28.7-10.7c-5.7-3.8-9.3-9.8-10-16.3C1123.3,186.1,1126.2,189.5,1129.2,192.4z"/>
	</g>
	<g>
		<path class="st0" d="M1117.3,192.1c5.5,13.9,15.4,19,25.5,22.6c9.2,3.2,18.7,4.4,28.1,6.3c12.2,2.4,23.9,6.9,34.6,15.2
			c1.6,1.2,3.1,3.1,4,5.2c5.3,12.2,9.1,25,8.9,39.8c-0.1,10.1,0.1,20.7,1.9,30.4c2.1,10.8,5.7,21.3,9.7,31.1
			c8,19.5,10.3,39.8,5.6,61c-3.4,15.4-10.8,27.4-20.3,37.1c-0.8,0.8-1.7,1.7-2.9,1.8c2-2.4,4.1-4.7,6.1-7.3
			c8.5-11.3,13.2-25.2,15.1-41.2c2.5-20.9-1.8-39.8-9.5-57.2c-6.6-14.9-9.2-30.7-8.2-47.7c0.8-12.5-1.2-24.1-4.8-35.5
			c-2.5-8.1-6.8-13.7-12.5-17.4c-13.2-8.7-27.4-11.9-41.8-14.3c-10.3-1.7-20.5-4.5-29.7-11c-3.6-2.5-6.3-7.3-9.1-11.5
			c-1.1-1.7-1.2-4.5-1.8-6.8C1116.6,192.4,1117,192.3,1117.3,192.1z"/>
	</g>
	<g>
		<path class="st0" d="M1111.4,195.6c3.5,16.3,12.6,24.2,23.8,27.9c11.4,3.7,23,5.9,34.5,8.7c10.1,2.4,20,5.5,29,12.6
			c2.2,1.7,4.4,4.1,5.6,7c3.9,9.6,6.6,19.8,6.3,31c-0.4,14.6-0.4,29.3,3.8,43c2.5,8.4,5.9,16.3,8.9,24.5c8.5,23.1,8.4,45.7-1.5,68.1
			c-3.7,8.4-9.2,14.4-15.3,19.5c0.5-0.8,0.9-1.8,1.5-2.6c19.8-22.9,22-61,9.4-90c-4.4-10.2-9.2-20.3-9.4-32.7
			c-0.1-8.3,0.1-16.6,0.4-24.9c0.4-10.1-1.6-19.3-4.5-28.3c-2-6-5.6-10.2-10-13.1c-10.2-6.8-21.2-10.6-32.4-12.4
			c-11.8-1.9-23.5-3.8-34.8-9.4c-9.2-4.7-14.8-13.1-15.6-26.8C1111.2,197,1111.3,196.3,1111.4,195.6z"/>
	</g>
	<g>
		<path class="st0" d="M1116.1,224.9c8.1,9.1,18.2,11.3,28.1,13.9c11.4,3,23,5,34.3,8c4.3,1.1,8.4,3.9,12.6,6.1
			c4.4,2.3,6.5,7.1,8.4,12.8c3.6,11.1,2.7,22.6,2.6,34c-0.1,16.5,2.7,31.8,8.9,46.2c4.6,10.8,8.9,21.9,9.1,34.9
			c0.4,18.1-4.3,33.4-14.3,45.5c1.3-2.6,2.7-5,3.9-7.8c9.6-22.9,8.8-45.8-0.3-68.6c-1.5-3.8-3-7.6-4.6-11.3
			c-4.5-10.6-5.4-22-4.4-33.9c0.8-10.7,1.7-21.2-1.1-31.8c-2.2-8.4-6.1-14.2-12-17.8c-11-6.8-22.8-9.8-34.7-11.4
			c-10.9-1.5-21.6-4-31.8-9.8c-6.4-3.7-11-9.6-12.9-18.9c-0.2-0.9-0.2-1.8-0.2-2.1C1110.3,216.8,1112.9,221.3,1116.1,224.9z"/>
	</g>
	<g>
		<path class="st0" d="M1130.3,247.2c11.9,2.9,23.9,4.9,35.8,8c6.1,1.6,11.9,4.7,17.8,7.3c4.8,2.1,8,6.4,8.9,13.5
			c0.4,2.9,1,5.8,1.2,9c-2.1-12.6-9.1-17.8-17-21.4c-5-2.2-10.1-4.2-15.3-5.4c-9.6-2.2-19.3-3.3-28.9-5.9c-6.1-1.6-12-4.6-17.7-7.7
			c-6.9-3.6-10.1-11.7-12.1-21C1109.1,237.9,1118.9,244.4,1130.3,247.2z"/>
	</g>
	<g>
		<path class="st0" d="M1121.2,256.2c10.2,3.4,20.7,4.9,31.1,7.7c8.4,2.3,16.9,4.8,25.1,8.2c7.7,3.1,10.7,11,9.8,23.2
			c-0.3-0.5-0.5-0.8-0.6-1.1c-1.1-14-8.2-18.9-17.1-22.5c-13.5-5.5-27.7-4.6-41.3-8.8c-5.9-1.8-11.8-4.3-17.5-7.3
			c-7-3.7-12-13.9-12.2-24.2C1103.3,245.4,1111.4,252.9,1121.2,256.2z"/>
	</g>
	<g>
		<path class="st0" d="M1137.6,273.3c11.9,2.3,23.9,2.8,35.2,8.6c5.9,3,6.8,4.8,6.8,13.7c-6.7-13.7-17-14.9-26.7-17.1
			c-8.7-2-17.8-2-26.5-4.1c-6.5-1.6-12.9-4.7-19.1-7.8c-7.3-3.8-11.5-11.5-12.9-23.2C1104.4,266.3,1121,270.1,1137.6,273.3z"/>
	</g>
	<g>
		<path class="st0" d="M1162.8,295.4c-8.9-2.8-17.9-5.2-26.9-6.4c-12.4-1.7-24.7-3.9-36-11.5c-6.5-4.3-9.4-11.9-10.3-21.4
			c5.9,14,15.6,20.4,26.3,24.2c6.3,2.2,12.9,2.9,19.3,4.5c10.8,2.7,21.6,5.2,32.3,8.5c4.5,1.4,4.9,3.4,4.3,9.2
			C1168.8,300.2,1166.1,296.4,1162.8,295.4z"/>
	</g>
	<g>
		<path class="st0" d="M1174.2,411.6c6.6-14.1,6.6-28.5,0.7-43c-1.8-4.6-3.8-9.2-5.5-13.9c-3.3-8.5-3.1-17.3-0.6-26.2
			c0.5,16.2,6.5,29.6,11.7,43.2c6.3,16.5,2,34.3-7.1,45c-0.8,0.9-1.7,1.5-3,1.7C1171.6,416.3,1173,414,1174.2,411.6z"/>
	</g>
	<g>
		<path class="st0" d="M1171.6,455.3c-0.9,1.5-1.3,2.3-1.8,2.9c-4.7,6.5-7,14.5-7.8,23.5c-2.8,29.9-13.9,42.9-33.6,50.2
			c-3.6,1.3-7.3,1.6-11,2.4c0-0.5-0.1-1.1-0.1-1.6c4.9-2,9.9-3.6,14.7-5.9c15.7-7.3,23.7-23.3,27-44.6c0.3-2.2,0.5-4.4,0.8-6.6
			C1161.1,463.2,1162.1,461.5,1171.6,455.3z"/>
	</g>
	<g>
		<path class="st0" d="M1159.9,453.6c-6.4,9.8-5.8,22.4-7.9,33.8c-2.9,15.3-10,25.5-20.9,31.1c-5.9,3-11.7,5.4-18,5
			c-0.9-0.1-1.8-0.3-2.7-1.2c3.8-1,7.6-2,11.4-3.2c16.8-5.4,25.3-20.9,28.3-43.1c0.5-4.1,1-8.2,1.7-12.2
			C1152.6,458.2,1155.4,454.9,1159.9,453.6z"/>
	</g>
	<g>
		<path class="st0" d="M1152.6,449.1c-1,1.8-2,3.4-2.8,5c-3.3,6.6-4.6,13.9-5.3,21.9c-1.3,14.5-5.9,26.8-16.5,32.5
			c-5.6,3.1-11.7,4.5-17.5,6.4c-1.1,0.4-2.4-0.1-3.6-1c3.8-1.3,7.7-2.4,11.4-3.9c14-5.4,21.3-18.5,23.8-39.7c0.4-3,0.4-6.1,0.7-9.1
			C1143.4,454.4,1146.8,450,1152.6,449.1z"/>
	</g>
	<g>
		<path class="st0" d="M1144.1,444c-1.6,3.3-3.3,6-4.3,9.1c-1.3,3.7-2.6,7.8-2.7,11.7c-1.1,28.1-11.4,37-28.3,40.3
			c-1.7,0.3-3.6,0.1-5.4,0.1c0-0.4,0-0.9,0-1.4c2.2-0.6,4.5-1.5,6.8-1.9c12.8-2.5,19.6-13.7,22.8-29.7c1.1-5.7,1.4-11.6,2.2-17.4
			C1136,448.3,1139.2,445.2,1144.1,444z"/>
	</g>
	<g>
		<path class="st0" d="M1102.7,491.9c15.6-2.4,20.8-18.4,21.9-33.7c0.2-2.9,0.3-5.7,0.7-8.5c1-7.5,3.6-10.2,9.2-10.7
			c-1.9,5.4-4.1,10.4-5.4,15.9c-1,4.3-0.6,9.1-1.3,13.6c-1.3,9.4-4.7,17.1-11.2,21.4c-6.8,4.4-13.8,7.2-21.5,3.8
			C1097.6,493.1,1100.2,492.3,1102.7,491.9z"/>
	</g>
</g>
</svg>
