<svg xmlns="http://www.w3.org/2000/svg" viewBox="0 0 1516.38 235.7"><defs><style>.cls-1{fill:red;}</style></defs><title>Asset 1</title><g id="Layer_2" data-name="Layer 2"><g id="Layer_1-2" data-name="Layer 1"><path d="M1279.48,220.8a17.77,17.77,0,0,1-4.3-2.8l1.2-.6a14.46,14.46,0,0,0,3.4,2.3c1.9.9,3.4.7,3.8-.2,1.1-2.3-6.3-5.2-4.9-8.2.7-1.5,3.5-1.4,6.6,0a14.77,14.77,0,0,1,3.8,2.6l-1.2.6a9.27,9.27,0,0,0-2.9-2c-1.8-.8-3.2-.8-3.6.1-1.1,2.2,6.4,5.2,5,8.3C1285.68,222.3,1282.78,222.4,1279.48,220.8Z"/><path d="M1303.48,227.1c-3.1-.5-4.2-1.7-4-3.3l1.1-7.1-2.1-.3.2-1.1,2.1.3.4-2.5,3.1-.1-.4,3,3.2.5-.2,1.1-3.2-.5-1.1,7.1c-.1.9.4,1.5,1.9,1.7a3.75,3.75,0,0,0,1.1.1l-.2,1.1A6.05,6.05,0,0,1,1303.48,227.1Z"/><path d="M1318.88,228c-1.2,0-2.1-.6-2.1-1.2s1-1.1,2.2-1,2.1.5,2.1,1.2S1320.08,228,1318.88,228Z"/><path d="M1356.68,229.8l.6-7.8c.1-1.3-1.1-2.1-3.8-2.3a14.81,14.81,0,0,0-3,.1l-.7,9.5-3.1-.2.7-10.2a20.52,20.52,0,0,1,6.1-.3c4.5.3,6.9,1.6,6.8,3.7l-.6,7.8Z"/><path d="M1374.28,235.7l-3.3-.4,3.6-3.9-4.7-11.3,3.2.4,2.6,7.8a10,10,0,0,1,.3,1.7h.1c.1-.1.4-.8.8-1.6l4.8-7,2.8.3Z"/><path d="M1415.18,234.5l-.3-11.6a25,25,0,0,1-5.8,1l-.4-1c3.3-.3,6.3-1.3,7.1-2.3l2.1-.1.4,13.8Z"/><path d="M1439.68,232.5c-5,.6-7.3-2.1-7.8-6.1s1-7.3,6-7.9,7.3,2.1,7.8,6.1S1444.58,231.9,1439.68,232.5Zm-1.7-12.9c-3.1.4-3.5,3.2-3.1,6.4s1.5,5.8,4.7,5.4,3.5-3.2,3.1-6.4S1441.08,219.2,1438,219.6Z"/><path d="M1463.18,229.1c-5,.7-7.3-2.1-7.8-6.1s1-7.3,5.9-8,7.3,2.1,7.8,6.1S1468.18,228.4,1463.18,229.1Zm-1.7-13c-3.1.4-3.5,3.2-3.1,6.4s1.6,5.8,4.7,5.4,3.5-3.2,3.1-6.4S1464.58,215.7,1461.48,216.1Z"/><path d="M1486.48,226.8c-5,.2-7.1-2.8-7.2-6.8s1.7-7.2,6.7-7.4,7.1,2.8,7.2,6.8S1491.58,226.6,1486.48,226.8Zm-.5-13.1c-3.1.1-3.8,2.9-3.7,6.1s1,5.9,4.2,5.8,3.8-2.9,3.6-6.1S1489.18,213.6,1486,213.7Z"/><path d="M1508.28,227.1a19.56,19.56,0,0,1-5.4-.9l.9-1.1a16.05,16.05,0,0,0,4.3.7c3.2.1,5.1-1.2,5.1-2.8.1-1.8-2.4-3-6.4-3.1v-1c3.4,0,5.9-1,5.9-2.4s-1.5-2.3-4.3-2.4a20.15,20.15,0,0,0-3.8.4l-.8-1.1a16.41,16.41,0,0,1,5.3-.5c4.1.1,6.7,1.6,6.7,3.4s-2.5,2.6-4.4,3h0c2.1.5,5,1.6,5,3.7C1516.38,225.4,1513.18,227.3,1508.28,227.1Z"/><path d="M5.38,225.3c-4-3.7-5.8-7.2-5.3-11s3.1-6.7,7.9-9.3l1.8.8c-3.9,2.4-6,5.5-6.4,8.9s.8,6.9,4,10.2Z"/><path d="M18.88,217.4c.2,2.2,1.9,3.7,5.2,3.8a15.92,15.92,0,0,0,4.5-.5l.7,1.1a16,16,0,0,1-5.5.6c-5.1-.1-8-2.3-7.9-5.8.1-3.1,2.6-5.5,7.4-5.4s6.8,2.4,6.7,5.3v.3Zm4.3-5.1a4.1,4.1,0,0,0-4.4,4.2l8.3-.5C27.18,214.1,26.18,212.4,23.18,212.3Z"/><path d="M50.58,220.3l-4.5-3.8H46l-3.5,5-3.1.4,4.9-6.3-5.7-4.4,3.1-.4,4.1,3.4h.1l3-4.4,2.9-.4-4.2,5.7L54,220Z"/><path d="M73.88,214.1l-2.4-7.4c-.4-1.2-1.6-1.6-4-.8a9.56,9.56,0,0,0-3,1.6l2.9,8.8-2.9,1-4.9-14.9,2.9-1,1.7,5.2a13.49,13.49,0,0,1,3.6-1.9c3.7-1.2,6.1-.8,6.7,1.1l2.4,7.4Z"/><path d="M83.38,195.9c-.9.5-1.8.5-2.1.1s.3-1.2,1.1-1.7,1.8-.5,2.1-.1S84.28,195.5,83.38,195.9Zm4.9,12.1-5.2-9.4,2.7-1.5,5.2,9.4Z"/><path d="M105.88,193.1a19.13,19.13,0,0,1-3.7,3.8L89.88,188l1.8-2.5,4.2,3a10.57,10.57,0,0,1,1.5-2.7c3-4.2,6.3-4.6,8.8-2.8C108.68,185,109.18,188.5,105.88,193.1ZM98,186.8a9.45,9.45,0,0,0-1.3,2.4l6.8,4.9a8.69,8.69,0,0,0,1.6-1.7c2.2-3,1.3-5.3-.7-6.8C102.48,184.3,100,184.1,98,186.8Z"/><path d="M106.48,168.2c-.6.8-1.4,1.2-1.9.9s-.2-1.2.4-2,1.4-1.2,1.9-.9S107.08,167.4,106.48,168.2Zm9.3,9.1-8.5-6.6,1.9-2.4,8.5,6.6Z"/><path d="M128.78,164.6c-2.5,2-4.1,1.9-5.1.7l-4.5-5.6-1.7,1.3-.7-.8,1.7-1.3-1.6-2,2.1-2.3,1.9,2.4,2.5-2,.7.8-2.5,2,4.5,5.6c.5.7,1.3.7,2.5-.2a3,3,0,0,0,.8-.8l.7.9A5.35,5.35,0,0,1,128.78,164.6Z"/><path d="M134.08,146.6c-.9.4-1.9.3-2-.2s.4-1.2,1.3-1.6,1.9-.3,2,.2S135,146.2,134.08,146.6Zm3.4,12.5-4.1-10,2.8-1.2,4.1,10Z"/><path d="M156.08,153.9c-5,.6-7.3-1.6-7.7-4.6s1.3-5.8,6.3-6.5,7.3,1.7,7.7,4.7S161.08,153.3,156.08,153.9Zm-1.3-10c-3.2.4-3.6,2.8-3.3,4.9s1.3,4.3,4.5,3.9,3.6-2.8,3.3-4.9S158,143.5,154.78,143.9Z"/><path d="M183.08,151.8l-.6-7.8c-.1-1.3-1.4-2-4.1-1.7a15.94,15.94,0,0,0-3,.6l.7,9.5-3.1.2-.8-10.2a22.82,22.82,0,0,1,6-1.2c4.5-.4,7.1.5,7.2,2.6l.6,7.8Z"/><path d="M198,154.6l-2-.2c3-3.5,4.1-7.1,3.5-10.5s-2.9-6.3-7-8.5l1.8-.9c4.9,2.3,7.7,5.1,8.4,8.8S201.68,150.7,198,154.6Z"/><path d="M247.28,112.5l-6.6-4.1c-1.1-.7-2.4,0-3.8,2.2a11.11,11.11,0,0,0-1.3,2.7l8.1,5.1-1.6,2.6-8.7-5.4A21.5,21.5,0,0,1,236,110c2.4-3.8,4.6-5.4,6.4-4.3l6.6,4.1Z"/><path d="M252,96.2c1.9,1.2,4.1.7,6.2-1.9a15.92,15.92,0,0,0,2.3-3.9l1.3.1a17.1,17.1,0,0,1-2.8,4.8c-3.1,4-6.6,5-9.4,2.8-2.4-1.9-2.9-5.4.1-9.1,3-3.9,6-4,8.3-2.2l.2.2Zm-1.6-6.6a4.06,4.06,0,0,0,.7,6l4.6-6.9C254.18,87.5,252.18,87.3,250.38,89.6Z"/><path d="M282.68,73.8l-2.2,1.6-7-4.1a8.51,8.51,0,0,1-1.3-1h-.1a6,6,0,0,1,.5,1.6l1.6,7.9L272,81.4l-10.4-5.8,2.6-1.8,6.7,4.3a5.42,5.42,0,0,1,1.3,1.1h.1a5.85,5.85,0,0,1-.5-1.7l-1.6-8,2.2-1.6,7,4.1a8.83,8.83,0,0,1,1.3,1.1h.1a7.65,7.65,0,0,1-.5-1.6l-1.8-7.8,2.3-1.6Z"/><path d="M294.58,67.4c-1,.5-2.1.5-2.4,0s.4-1.4,1.4-2,2.1-.5,2.4,0S295.58,66.9,294.58,67.4Z"/><path d="M321.88,56.9l-2.6.8-5.4-6.1a10.57,10.57,0,0,1-.9-1.3h-.1a8.25,8.25,0,0,1,0,1.6l-1,8-2.7.9-8.1-8.8,3-.9,5,6.2a7.23,7.23,0,0,1,.9,1.4h.1a9.19,9.19,0,0,1,0-1.7l1-8.1,2.6-.8,5.3,6.1a9.91,9.91,0,0,1,.9,1.4h.1V53.9l.8-8,2.7-.8Z"/><path d="M341.28,52.9c-4.2.8-7,.2-7.4-1.9-.5-2.5,2.8-4.2,8.9-5.8l-.1-.8c-.2-1.3-1.4-1.8-3.9-1.3a18.84,18.84,0,0,0-4.2,1.4l-1-.8a19.18,19.18,0,0,1,5.1-1.8c4.1-.8,6.5-.1,6.9,2l1.4,7A16.56,16.56,0,0,1,341.28,52.9Zm1.6-6.7c-4.4,1.2-6.5,2.4-6.2,4.3.3,1.3,1.8,1.9,4.4,1.4a9.51,9.51,0,0,0,2.7-.9Z"/><path d="M364.48,48.4l-2.7.5-7.9-9.4,3.2-.6,4.9,6.6a9.62,9.62,0,0,1,.9,1.5h.1a8.57,8.57,0,0,1,.3-1.7l2.2-8,2.8-.5Z"/><path d="M493.38,41.2c-4.6-2.9-7-6-7.3-9.8s1.8-7.2,6-10.6l1.9.4c-3.4,3.1-4.9,6.5-4.7,9.9s2.1,6.6,5.9,9.3Z"/><path d="M510.08,35.7c-5.9.5-8.2-1.8-8.5-4.9-.2-2.9,1.9-5.8,7.4-6.2a22.53,22.53,0,0,1,2.6,0l-.4-5,3-.2,1.2,15.1A20.63,20.63,0,0,1,510.08,35.7Zm1.6-10a8.1,8.1,0,0,0-2.2,0c-3.9.3-5,2.6-4.8,4.9S506,35,510,34.7a8.49,8.49,0,0,0,2.4-.5Z"/><path d="M532.28,33.6c-4.3.5-7-.4-7.2-2.5-.3-2.5,3.2-3.9,9.3-5l-.1-.8c-.1-1.3-1.3-1.9-3.8-1.6a19.36,19.36,0,0,0-4.3,1.1l-.9-.9a20.85,20.85,0,0,1,5.2-1.3c4.2-.4,6.5.5,6.7,2.6l.8,7.1A23,23,0,0,1,532.28,33.6Zm2.2-6.6c-4.5.8-6.7,1.8-6.5,3.8.1,1.3,1.7,2.1,4.3,1.8a17,17,0,0,0,2.8-.6Z"/><path d="M553.88,31c-3.1.4-4.5-.5-4.7-2.1l-.9-7.1-2.1.3-.1-1.1,2.1-.3-.3-2.5,3-.9.4,3,3.2-.4.1,1.1-3.2.4.9,7.1c.1.9.8,1.3,2.3,1.1a5.16,5.16,0,0,0,1.1-.2l.1,1.1A10.55,10.55,0,0,1,553.88,31Z"/><path d="M566.58,24.4c.6,2.1,2.5,3.3,5.8,2.8a13.56,13.56,0,0,0,4.3-1.3l.8.9a19.42,19.42,0,0,1-5.3,1.6c-5,.8-8.2-.9-8.7-4.4-.5-3,1.6-5.9,6.3-6.6,4.9-.7,7.1,1.2,7.5,4.1v.3Zm3.4-5.8a4,4,0,0,0-3.6,4.8l8.1-1.9C574.18,19.7,573,18.1,570,18.6Z"/><path d="M587.88,30.3l-2-.2c3.1-3.4,4.2-7,3.6-10.4s-2.8-6.4-6.9-8.6l1.8-.9c4.9,2.4,7.6,5.2,8.3,9S591.68,26.5,587.88,30.3Z"/><path d="M640.78,18.3c-5,.5-7.2-2.3-7.7-6.3s1.2-7.2,6.2-7.8,7.2,2.3,7.7,6.3S645.78,17.8,640.78,18.3Zm-1.4-13c-3.1.3-3.6,3.1-3.3,6.3s1.4,5.8,4.5,5.5,3.6-3.1,3.2-6.3S642.48,5,639.38,5.3Z"/><path d="M662.68,16.3a23.34,23.34,0,0,1-5.5-.3l.8-1.2a12,12,0,0,0,4.3.2c3.2-.2,4.9-1.7,4.8-3.3s-2-3-6.3-2.6a20.93,20.93,0,0,0-2.8.4l.6-6.9,10.5-.8.1,1.4-8.5.6-.3,4.2c.3-.1.9-.1,1.6-.2,5.1-.4,8.1,1.1,8.3,3.6S667.58,15.9,662.68,16.3Z"/><path d="M683.38,14.9c-1.2.1-2.2-.4-2.2-1s.9-1.1,2.1-1.2,2.2.4,2.2,1S684.58,14.9,683.38,14.9Z"/><path d="M702.48,14.3c-5,.1-7-2.9-7.1-6.9s1.8-7.1,6.8-7.3,7,2.9,7.1,6.9S707.48,14.2,702.48,14.3Zm-.4-13.1c-3.1.1-3.9,2.8-3.8,6.1s.9,5.9,4.1,5.8,3.8-2.8,3.7-6S705.28,1.2,702.08,1.2Z"/><path d="M731.18,10.6v3.2h-2.8V10.6h-9.3V9.5l9.3-9.5h2.9V9.5h2v1Zm-2.7-8.8c-.3.4-.7,1-1.2,1.6l-5.9,6.2h7.1V1.8Z"/><path d="M745.28,14.1c-1.2,0-2.1-.5-2.1-1.1s1-1.1,2.2-1.1,2.1.5,2.1,1.1S746.38,14.2,745.28,14.1Z"/><path d="M764.48,14.6,765,3a27.42,27.42,0,0,1-5.9.6l-.3-1c3.3-.1,6.3-.9,7.3-1.8l2.1.1-.6,13.8Z"/><path d="M783.38,15.8l-.7-1.2c4.2-.5,7.8-2.2,9.1-4.3a16,16,0,0,1-3.2.1c-4.6-.3-7.1-2.2-6.9-4.6.2-2.2,2.6-4.1,7.3-3.8,4.5.3,6.9,2.5,6.6,5.7C795.28,11.8,791.08,14.9,783.38,15.8Zm5.4-12.7c-2.7-.2-4,1.2-4.1,2.8-.1,1.8,1.2,3.2,4.5,3.5a14.27,14.27,0,0,0,3-.1,5.85,5.85,0,0,0,.4-1.9C792.78,5,791.58,3.3,788.78,3.1Z"/><path d="M915.78,46c-3.4-4.2-4.6-8-3.6-11.6s4.1-6.2,9.2-8l1.7,1.1c-4.3,1.8-6.8,4.5-7.7,7.8s-.3,7,2.4,10.7Z"/><path d="M940.28,49.1c-4.6-1.6-6.4-4.3-5.6-6.8s4.6-4.7,9.8-2.9a9.7,9.7,0,0,1,3.8,2.2l-4.8,7.2c3.4.6,7.4-.4,8.5-3.8,1-2.8-.5-6.1-6.1-8-8-2.8-14-.3-15.4,3.8-1.2,3.6.9,8,8,10.4a23.2,23.2,0,0,0,12,1.2l.8,1.1a24.82,24.82,0,0,1-13.2-1.4c-8-2.8-11.1-7.8-9.6-11.9,1.6-4.7,8.9-7.2,17.9-4.1,6.5,2.2,8.9,6.3,7.7,9.6C952.88,49.4,947.18,51.5,940.28,49.1Zm3.7-8.8c-4-1.4-6.5.9-7.1,2.7s.1,3.9,3.7,5.1l.9.3,4.6-7A6.31,6.31,0,0,0,944,40.3Z"/><path d="M959.68,61.3l-1.6-1.2c4.4-1.4,7.2-3.9,8.4-7.1s.8-6.9-1.5-10.9l2,.2c3,4.5,3.9,8.4,2.5,11.9S964.88,59.9,959.68,61.3Z"/><path d="M1000.78,68.3l1.8-11.4a29,29,0,0,1-5.9,0l-.2-1c3.3.3,6.4-.2,7.4-1l2.1.3-2.1,13.6Z"/><path d="M1017.38,70.2l8.9-6.4c1.7-1.2,2.2-2.1,2.3-2.9.1-1.5-1.5-2.7-4.5-2.9a17,17,0,0,0-4,.2l-.8-1.1a19.71,19.71,0,0,1,5.7-.3c4.3.3,6.9,2,6.8,4.3-.1,1-1,2.1-3.1,3.5l-6.9,4.6,9.4.8-.1,1.4Z"/><path d="M1047.68,72.8c-3.1-.3-4.3-1.5-4.2-3l.6-7.2-2.1-.2.1-1.1,2.1.2.2-2.5,3.1-.2-.3,3,3.2.3-.1,1.1-3.2-.3-.6,7.2c-.1.9.5,1.5,2,1.6h1.1l-.1,1.1A5.43,5.43,0,0,1,1047.68,72.8Z"/><path d="M1069.08,74.8l.9-7.8c.1-1.2-.8-2.1-3.3-2.4a9.47,9.47,0,0,0-3.4.2l-1,9.2-3.1-.3,1.7-15.6,3.1.3-.6,5.4a10.46,10.46,0,0,1,4-.2c3.9.4,5.9,1.8,5.6,3.8l-.9,7.8Z"/><path d="M1103.58,70.1l-1.8,9.5-3-.6,1.8-9.5-2.1-.4.2-1.1,2.1.4.3-1.6c.3-1.8,2.6-2.9,6.5-2.1l.3.1-.2,1c-2.2-.4-3.3.3-3.6,1.5l-.3,1.7,3.2.6-.2,1.1Zm5.2,10.8,2.9-15.4,3,.6-2.9,15.4Z"/><path d="M1124,84.4c-1.1-.3-1.9-1-1.8-1.6s1.2-.8,2.3-.5,1.9,1,1.8,1.6S1125.08,84.7,1124,84.4Z"/><path d="M1156.88,94.6c-4.3-1.3-6.2-4-5.2-7.1,1.3-4,6.1-6,13.7-5l.4,1.3c-4.1-.5-8,.3-9.8,2.1a28.5,28.5,0,0,1,3.2.6c4.4,1.4,6.4,3.8,5.6,6.1C1164.08,94.7,1161.28,96,1156.88,94.6Zm1.4-7.3a21,21,0,0,0-3.1-.6,5.31,5.31,0,0,0-.8,1.7,3.8,3.8,0,0,0,2.8,5.1c2.6.8,4.2-.3,4.7-1.8C1162.48,90,1161.48,88.3,1158.28,87.3Z"/><path d="M1191.48,101.3c-.9,2-.2,4.2,2.7,5.9a15.22,15.22,0,0,0,4.2,1.8l.1,1.3a19.68,19.68,0,0,1-5.1-2.1c-4.4-2.6-5.8-5.9-4-8.9,1.6-2.6,5-3.5,9.1-1.1s4.7,5.4,3.2,8l-.1.2Zm6.3-2.3a4.09,4.09,0,0,0-5.9,1.5l7.4,3.7C1200.28,102.5,1200.28,100.5,1197.78,99Z"/><path d="M1222.08,130.7l9.2-7a32.52,32.52,0,0,1-4.3-4.1l.6-.9c2.2,2.5,4.7,4.3,6,4.4l1.3,1.7-10.9,8.3Z"/><path d="M1226.28,149.4c1.1-4.3,3.6-6.4,6.7-5.6,4.1,1,6.4,5.7,5.9,13.3l-1.3.5c.2-4.2-.8-8-2.7-9.7a13.88,13.88,0,0,1-.4,3.2c-1.1,4.5-3.4,6.6-5.7,6C1226.68,156.6,1225.18,153.9,1226.28,149.4Zm7.4,1a12,12,0,0,0,.4-3.1,7.51,7.51,0,0,0-1.8-.7c-2.4-.6-4.3.5-4.9,3.1s.5,4.2,2.1,4.6S1232.88,153.6,1233.68,150.4Z"/><path d="M1224.48,178.5c-1.8-2.6-1.7-4.2-.4-5.1l5.9-4.1-1.2-1.8.9-.6,1.2,1.8,2-1.4,2.2,2.2-2.5,1.7,1.8,2.6-.9.6-1.8-2.6-5.9,4.1c-.7.5-.8,1.3,0,2.5a2.7,2.7,0,0,0,.7.8l-.9.6C1225.28,179.5,1224.88,179,1224.48,178.5Z"/><path d="M1245.78,192.9l4.2-6.6c.7-1,.2-2.2-1.9-3.6a8.24,8.24,0,0,0-3.1-1.3l-5,7.8-2.6-1.7,8.5-13.2,2.6,1.7-2.9,4.6a13,13,0,0,1,3.7,1.6c3.3,2.1,4.4,4.3,3.4,5.9l-4.2,6.6Z"/><circle class="cls-1" cx="838.28" cy="20.3" r="3.6"/><circle class="cls-1" cx="868.58" cy="26.9" r="3.6"/><circle class="cls-1" cx="411.58" cy="39.6" r="3.6"/><circle class="cls-1" cx="442.58" cy="37.4" r="3.6"/></g></g></svg>