<?xml version="1.0" encoding="utf-8"?>
<!-- Generator: Adobe Illustrator 21.0.2, SVG Export Plug-In . SVG Version: 6.00 Build 0)  -->
<svg version="1.1" id="Layer_1" xmlns="http://www.w3.org/2000/svg" xmlns:xlink="http://www.w3.org/1999/xlink" x="0px" y="0px"
	 viewBox="0 0 750 1334" style="enable-background:new 0 0 750 1334;" xml:space="preserve">
<style type="text/css">
	.st0{fill:none;stroke:#000000;stroke-width:1.2625;stroke-miterlimit:10;}
	.st1{enable-background:new    ;}
	.st2{fill:#231F20;}
	.st3{font-family:'DaxCompactPro';}
	.st4{font-size:58.1963px;}
	.st5{fill:#FF0000;}
</style>
<g>
	<g>
		<path class="st0" d="M790.2,969.9c23.9,9.2,47.7,19.3,71.3,30c13.7,6.2,26.8,14.5,40.1,21.8l5-8.7c-25.2-17.2-52.9-28.8-80.6-40.2
			c-13.3-5.6-26.8-10.9-40.3-16.3c-22.3-8.8-40.9-22.5-58.4-37.6c-38.8-33.3-77.3-66.7-115.9-100.1c-24.3-21.1-41.8-43.8-54.7-68.1
			c-13.9-26.4-26-52.7-25.8-77.2c0.2-21.2-2.7-42.8-8.5-65.4c-4.2-16.7,1.1-29.2,17.3-37c-0.9,2.9-1,5-2,6.4
			c-7.6,10.6-6.5,24.3-2.6,38.6c4.8,17.4,5.4,33.5,5.3,49.7c0.1,43.8,21.6,88.7,61.2,133c15.6,17.4,36.4,32.9,55,49.2
			c18.4,16,37.1,32.1,55.5,48.1c20.8,18.1,40.9,37.3,66.9,50.3c13.7,6.8,28.3,11.1,42.2,17.4c25.1,11.3,50.2,23,75,34.8
			c4.6,2.2,8.8,5.7,13.2,8.6l5-8.7c-30.7-20.2-63.7-34.1-96.9-45.8c-33.8-11.9-61.7-30.1-87.7-53.3c-31.1-27.7-63.4-54.8-95.6-82
			c-30.7-26-51.2-54.3-64.7-84.4c-10.4-23.1-16.1-45.3-15.6-66.8c0.4-12.9-2.6-26.9-5.3-40.8c-2.9-14.9-7.3-30.2,1.4-41.3
			c2.2-2.8,4.6-5.5,8.2-7.5c-1.5,6.5-4.6,12.5-4.2,19.6c0.5,11,3.5,22.7,5.1,34.1c1.2,10,3.3,20.5,2.6,29.8c-2,22,2.7,45,14.8,69.4
			c11.5,23.2,22.9,46.5,45.7,67.8c16.1,15.1,33.9,29.4,50.9,44.1c18.1,15.5,36.4,31.1,54.4,46.8c20,17.4,39.3,35.5,64.3,48.1
			c11.1,5.6,22.8,9.5,34.4,14c31.2,12,62.4,23.8,91.5,42.3l3.8-6.7c-32.7-21.4-68-35.5-103.4-48c-25.5-9.1-47.8-22.1-66.9-39.7
			c-33.3-30.6-68.8-59.9-104.2-89.1c-43.6-36-62.6-75.4-71.4-115.3c-2.4-10.6-0.3-20.3-1.3-30.7c-0.9-10.2-1.8-20.5-4.7-31
			c-4.6-17.9-8-35.1,2.7-47.7c2.9-3.5,6.2-6.7,10.4-9.5c-12.5,16.1-8.4,37.5-3.2,59.5c2.4,10,2.9,20,2,29.2
			c-2.5,24.9,6.9,51.2,20.1,78.7c18.2,37.8,52.8,67.8,90.8,97.1c14.4,11.1,27.4,23.3,41.1,35c14,11.8,28,23.6,42,35.4
			c18.8,15.9,41.2,22.4,62.8,30.9c29.3,11.4,58.8,22.1,85.8,40.6l3.8-6.7c-32.5-21.2-67.5-35.1-102.7-47.7
			c-24.5-8.8-46.1-21.5-64.5-38.7c-30.5-28.3-63.4-54.8-95.6-81.9c-52.6-44.2-73.3-90.4-71.6-136.5c0.6-15.5-2.8-31.4-6.7-47.7
			c-3.4-14.5-3.3-27.6,5.7-37.2c1-1.1,2.3-1.8,4.1-2.3c-6.3,16.2-3.1,35,2.8,54.5c4,13.5,2.4,25.1,0.4,36.9
			c-1.2,6.8,0,14.8,1.8,22.5c9.1,38.3,29.9,75.5,71.8,108.8c30.9,24.6,60.7,49.9,88.8,76.3c24.4,22.8,52.9,36.9,84,47.3
			c29.5,9.7,58.3,22.1,84.3,41l5-8.7c-34.3-22.6-70.9-37.1-108.1-49.8c-20.9-7.1-39-18.8-54.6-33.2c-30.7-28.4-62.8-55.8-96-82.5
			c-37.1-29.8-53.2-63-60.9-96.3c-2.3-10.3,0.3-19.8-0.7-29.9c-1.3-13.4-3.2-27.2-6.1-41c-3.4-15.8-3.9-30.1,5.9-40.8
			c0.6-0.7,1.4-1.2,2.8-2.4c0.5,2.1,1.2,3.3,0.9,4.2c-6.5,13.2-3.6,29.4,0.9,45.8c3.3,12.2,4.4,23.7,2.4,34.6
			c-4,20.8,4.5,43.8,15.7,67.5c14.8,31.5,43.1,56.9,75.5,81.1c13.6,10.2,26,21.6,38.7,32.4c14.1,12,27.9,24.4,42.2,36.4
			c18.8,15.7,40.8,23.4,62.9,30.7c28.4,9.4,56.1,20.4,81.5,38.6l4.4-7.6c-15.3-8.5-30.3-17.9-46.1-25.3c-16-7.4-32.6-13.6-49.1-18.9
			c-27.4-8.6-50.8-23-70.7-42.3c-24.1-23.4-50.6-44.8-77.4-66.2c-50.5-40.2-68.5-81.8-65.2-124.2c1-11.7-1.7-24.7-4.2-37.3
			c-2.5-12.6-6.3-25.6-1.3-35.9c2.5-5,7.3-8.9,10.9-13.2c0.5,0.4,1.2,0.8,1.7,1.2c-1.6,5.4-5,10.4-4.7,16.3
			c0.6,12.4,2.6,25.3,5.2,38.4c2.1,10.4,3.4,20.3,1.3,29.5c-3.7,15.7-0.2,33.2,7.7,51.7c11.9,28,30.4,53.7,61.8,76.3
			c6.7,4.7,13.3,9.6,19.3,14.7c17.1,14.7,34.1,29.3,50.6,44.4c21.6,19.7,45.1,35.1,73.8,43.6c31.1,9.2,61.5,22.2,89.6,41.5l3.3-5.7
			c-26-18.4-53.8-32.4-83.4-41.1c-32.6-9.5-60.8-25.6-84.1-49.5c-22.4-23.1-49-43.4-75.4-63.4c-37.1-28.2-60.6-86-52.2-109.4
			c4.2-11.4,0.2-25.4-3.9-39.1c-4.9-16.1-4.5-30.3,1.7-42.5c2-3.9,6.7-6.3,10.2-9.4c0.8,0.6,1.5,1,2.3,1.5
			c-2.1,3.7-4.7,7.2-6.4,11.2c-5,11.6-4.3,25.1-0.1,39.6c4.5,15.5,6.7,30,2.9,43.5c-3.8,12.7,0.4,27.9,7.3,43.4
			c8.9,19.8,19.2,39.6,40.2,57.1c11.4,9.5,23.7,18.3,35.4,27.6c10.1,8.1,20.2,16.1,29.6,24.7c19.3,17.9,37.8,36.9,63,49.1
			c15.8,7.7,32.6,13.3,49,18.3c24.1,7.3,45.9,18.7,66.5,33.6l4.4-7.6c-25.8-18.8-54-31.5-83.4-40.7c-7.6-2.4-15.2-5.6-22.7-7.9
			c-13.3-4.3-24.7-11.4-35.4-20.3c-6-4.9-12.2-9.8-17.5-15.1c-22.4-22.8-48.8-42.8-75.3-62.6c-32.7-24.4-55.7-76.5-47.8-100.7
			c3.1-9.2,0.3-21.4-1.8-32.5c-2.8-14.6-8.2-29.9-2.5-42.1c1.8-3.7,5-6.7,7.4-10c0.8,0.5,1.8,1,2.6,1.5c0.1,1.1,0.6,2.4,0.2,3.2
			c-6.1,10.9-4,24.3-0.5,38.2c1.7,7,4.1,14.1,5.1,20.9c0.7,5.1,1.3,10.5-0.5,14.6c-6.7,16.1-2.6,34.4,6.2,54.3
			c10.4,23.5,28.3,44,54.3,61.5c21.3,14.4,38.9,31.2,56.3,48.3c22.4,22.1,48.4,37.6,79,45.1c28.6,6.9,54.4,21,79.4,38.4l3.8-6.7
			C938,895,910.9,881,881.7,873.2c-26.2-6.9-50-18.2-69.6-38.1c-2-2-4.3-3.7-6.2-5.8c-17.8-18.3-38.1-34.8-60.2-49.9
			c-42.2-28.9-58-76.1-50.6-101c3.1-10.2-1.4-24.1-4-36.6c-2.8-13.4-5.7-26.6,0.1-37.1c1-1.8,2.6-3.3,4.7-6
			c0.3,10.4-0.3,19.1,0.9,28.2c1.3,9.5,5.2,19.5,6.3,29.1c0.8,7.3,0.4,14.4-1.4,20.7c-4.8,16.5,0,34.6,9.6,54.2
			c9.5,19.6,25.5,35.6,46.5,50.3c17.7,12.4,33.6,25.9,49,40.4c12.8,12,27.1,23.9,42.4,33.5c10.4,6.5,23.9,10.3,35.7,13.4
			c29.4,7.7,56.3,20.6,81.5,39.6l4.4-7.6c-5.2-3.3-10.5-6.4-15.6-10c-19.6-13.3-40.3-23.2-62-28.4c-31-7.4-57.3-22.4-78.6-45.2
			c-17.5-18.8-39.6-33.5-60.6-49.3c-12-8.9-21.1-18.6-27.4-29.8c-9.6-17.2-15.6-33.7-14.2-49.3c0-1.4-0.1-3,0.5-4
			c8.1-11.5,3.2-27-1.1-42.1c-4.2-15.1-6.3-29.7-0.1-41.2c3-5.6,10-9.1,15.1-13.6c7.4-6.5,15.1-12.8,21.7-19.9c3-3.3,4.6-8,5.6-12.6
			c5.6-28.5,1.7-58.7-22.3-92c-14.2-19.9-33.2-37.7-55.6-53c-17.4-11.9-27.3-24.8-32.2-40.2c-5.4-17.2-12.8-34.8-19.8-52.1
			c-6-15.1-13.2-30.2-26-44.8c-40.7-46.3-92.1-75-151.9-87.2c-30.6-6.2-60.7-13-90.6-29.7c-11-6.2-22-12.8-33.5-17.5
			c-39-16-77.9-29.5-108.1-14.9c-11.4,5.5-22.6,11.5-31.6,19c-13.5,11.3-24.1,24.7-37.2,36.2c-8.4,7.3-18.5,13.4-28.7,19.3
			c-7.5,4.5-17.8,4.7-30.2-0.2c0.1-0.5,0.1-1.1,0.3-1.1c31.5-1.1,47.8-17,64.2-32.6c7.3-7,12-16.1,20.1-22.5
			c16.7-13.1,33.9-25.9,59.7-29.8c7.2-1.1,16.6,0.9,25.1,2c27.2,3.6,54,12.2,80.7,27.1c22.5,12.4,45.6,23.1,69.4,29.6
			c16.4,4.4,32.7,7.3,49,11c50.4,11.1,94.3,35.8,131.3,72.2c18.2,17.9,29.5,37.6,38.4,57.1c8.5,18.6,15.2,37,22.5,55.6
			c5.3,13.2,14.4,25.3,28.2,36.3c12,9.5,24.6,18.6,35.8,28.6c40.7,36.4,53.5,73.1,53.2,109.8c-0.1,18.8-10.4,31.4-25.8,41.1
			c-19.3,12.2-26.6,30.2-19.2,55.3c2.5,8.5,4.6,17,5.7,25.3c0.7,4.6,0.3,9.4-1.3,13.2c-11.2,26,1.8,54.3,28.9,83.7
			c5.2,5.6,12.5,10.9,19.6,15.5c19.2,12.4,35.7,26.4,51.3,41.7c14,13.8,29.6,27,49.2,34.6c11.1,4.3,22.6,8,33.8,10.5
			c22.4,5.1,42.1,16.3,61.2,29.8c1.8,1.3,3.9,2.5,5.9,3.7l5-8.7c-23.8-17.1-48.4-31.2-76.4-38.1c-17.7-4.4-36-9.1-51.7-22.3
			c-7.7-6.5-15.7-12.8-22.3-19.7c-16.5-17.1-36.6-30.7-56.3-45.1c-8.3-6.1-16.7-13.8-21.5-21.2c-13.2-20.2-19.3-39.4-11.7-56.2
			c4.9-10.9-0.5-25.1-4.1-38.4c-4.1-15.3-5.1-29.2,3.1-40.1c1.2-1.4,2.9-2.5,4.5-3.7c0.7,0.4,1.5,0.9,2.2,1.3
			c-0.7,2.5-1.2,5.1-2,7.6c-4.5,14,0.8,30.4,5.2,46.5c2.7,10,3.2,18.8-1.4,26.5c-4.5,7.6-4.4,17.1-0.5,27.6
			c6.6,17.4,13.6,34.7,34.4,49.6c3.5,2.5,7.2,5,10.8,7.4c18.2,11.6,33.5,24.9,47.5,39.5c19.4,20.1,43.3,33.1,69.9,38.4
			c24.2,4.9,45.5,16.1,66,30.7c2.3,1.7,5,2.9,7.6,4.4l3.8-6.7c-4.2-2.5-8.6-4.8-12.8-7.5c-21.4-14.6-44-24.3-67.6-29.7
			c-6.9-1.7-14.1-3.9-21-6c-15.4-4.5-26.7-14.9-36.7-25.1c-18.2-18.5-39.3-34.4-61.7-49.4c-10.9-7.3-18.2-15.7-23-25.5
			c-8.1-16-13.1-31-6-43.4c0.7-1.3,1.5-2.6,3.6-3.1c0.2,0.6,0.6,1.2,0.4,1.6c-6.3,16.4,2.5,35.3,15.8,54c5.7,8,16.3,16,26.1,22.3
			c18.8,12.1,34.8,25.9,49.7,40.6c18.4,18,39.8,29.3,64.5,33.7c19.7,3.5,38.1,11.7,55.7,23.9c5,3.5,10.3,6.7,15.4,10l5-8.7
			c-18.3-12-36.6-24-57.3-31.9c-3.6-1.4-7.7-3-11.1-3.5c-26.5-3.4-50-14-69.2-34.8c-13.9-15.1-31-27.3-49-39.2
			c-24.4-16.1-39.2-44.5-30.1-60.8c6-10.4,4.7-22.4,1-35.5c-4.9-17.2-7.3-33.8,0.4-47c2.4-4.3,6-8,10.2-10.8
			c19.6-13.3,29.2-32.1,28.5-56.5c-0.9-32.1-9.9-64.8-37.3-98.8c-16.6-20.7-36.4-39.6-60.2-56.2c-20.1-14-28.5-29.8-34.3-46.5
			c-2.9-8.1-6.5-16.3-10.5-24.3c-8.5-16.6-16.4-33.2-26.5-49.7c-20.6-34-52.8-62-92.3-85.9c-40.5-24.6-82.2-38.4-124.5-46.2
			c-32.4-6-64.4-17.8-95.5-34c-34.3-17.7-68.4-27.5-102.6-33.4c-28.6-4.9-48.6,2.7-67.3,12c-23.6,11.6-39.6,29.1-57,45.6
			c-9.7,9.3-21.7,17.1-34,24.4c-7.9,4.8-20.1,2.8-32.6-1.1c31.9,0.7,47.7-15.1,64.4-29.6c11.5-10.1,20.6-22.2,32.9-31.8
			c15.1-12,33.8-20.8,56.4-25.3c5-1.1,10.7-1.7,16.5-1.2c27.9,2.9,56.1,5.9,85.4,17c18.6,7,36.8,16.6,55.1,25.3
			c30.9,14.7,61.8,23,92.7,29c58,11.2,110.6,37.5,157.8,77.6c23.6,20.1,40.1,42.2,52.8,64.9c12.6,22.5,22.4,45.2,33.5,67.8
			c6.9,14.2,15.4,27.7,31.6,39.8c24.4,18,46.7,37.4,64.5,59.4c17.5,21.7,27.9,43.4,33.8,65.4c5.3,19.9,6.3,38.4,3.2,56
			c-2.2,11.8-10.7,19-19.2,26.5c-3.6,3.1-7.1,6.3-10.9,9.2c-11.4,8.7-13.7,21.7-11.6,36.3c1.8,12.8,5.7,26.1,7.8,38.9
			c0.6,3.5-0.7,7-2.8,9.4c-12.6,14.3-1.2,44.7,16.3,60.4c5.6,5,12.5,9.3,19.2,13.3c15.7,9.5,28.2,21.1,40.1,33.2
			c17.3,17.6,37.6,28.7,60.9,32.6c23.3,3.9,43.8,15.3,63.7,29.2c3,2.1,6.5,4.1,9.6,6l3.8-6.7c-20-13.9-39.9-27.8-63.5-33.7
			c-7.8-2.1-15.6-3.9-23.4-5.7c-14.9-3.5-28-11.1-38.6-21.8c-16.6-17.1-35.7-32-57.1-45.6c-18.8-11.8-22.5-26.4-23.7-39.7
			c-0.6-6.7,4.6-11.8,5.9-18c1.2-5.1,1.8-10.5,0.8-16.2c-1.8-11.6-5.4-23.6-6.9-35.2c-2-16.8,5.3-28.9,18.3-37.8
			c13.3-9.2,19.9-22.3,22.8-37.6c6-32.4-3.4-66.9-26.8-103.6c-17-26.7-40.7-50.8-70.2-71.9c-17.4-12.4-28.3-25.6-34.1-41.5
			C692.2,312.1,676,282,654.9,252c-23.1-33.1-54.8-60.4-93.6-83.9c-38.3-23.2-77.9-38.4-118.7-46.2c-27.6-5.3-55.3-12.8-83.1-25.1
			c-22.3-9.9-44.7-20.1-67.1-29.1c-10.2-4.1-20.9-6.8-31.2-8.7c-18.7-3.7-37.8-7.8-55.4-8.7c-24.8-1.2-42.5,7.8-59.5,17
			c-20.1,11-34.7,26.3-50.1,41c-9.9,9.6-22.3,17.5-34.5,25.6c-8.9,6-22.1,2.9-37.1-2.3c42.6-1.3,63.3-22,82.3-44.3
			c14-16.5,34.2-27.6,56.6-36.9c20.9-8.6,46.1-7.6,74.1-3.3c27.1,4.1,53.1,12.4,80,24.5c27.9,12.5,56,25.7,84.8,33.5
			c21.3,5.8,42.5,9.9,63.8,15.2c50.9,12.5,96.7,37.3,138.9,70.9c25.4,20.2,43.6,42.8,59.5,66.7c14.8,22.2,26.8,44.6,35.5,66.9
			c9.7,24.8,29.1,45.1,54.8,65c36,27.9,62,59.1,77.2,93.9c13.5,30.9,14.9,58.3,8.2,83.8c-3.4,13-13.1,22.5-23.8,31.1
			c-13.4,10.5-16.6,25.8-12.8,44.1c0.9,4.5,2.1,8.8,3.6,13.3c3.8,12.3,2.8,22.4-3.8,31.4c-10.6,14.3,5.6,46.4,29.7,60.8
			c16.7,9.9,31,21.6,43.9,34.6c20.3,20.3,45.5,29,70.7,35c10.3,2.5,19.7,5.3,29.1,11.4c8.6,5.5,17.4,11,26.1,16.4l2.7-4.8
			c-8-5.5-16-10.9-24-16.4c-13.5-9.2-27.6-12.7-41.9-16c-7.3-1.7-14.5-3.5-21.8-5.9c-10.7-3.7-20.6-8.9-29-17.1
			c-16.3-16-34.5-30.1-55-42.9c-18.7-11.6-30.8-35.6-22.7-46.7c8.4-11.5,6.7-25.4,2.9-41c-5.4-21.7-4-40.9,12.5-53.6
			c20.2-15.4,28.9-36.7,25.2-64.2c-1.5-11.2-2.4-22.4-3.8-34.4l-32.8-59.5c-4-5.3-8.2-10.7-12.5-15.9
			c-17.3-20.7-39.9-38.5-62.2-56.2c-15.2-12-23.6-25.5-29.5-39.5c-4.9-11.4-8.9-22.9-15.3-34.2c-9.8-17.2-20.8-34.5-32.2-51.6
			c-7.2-10.8-15.1-21.8-24.5-31.9c-15-16.2-32.9-30.8-52.5-43.7c-43.5-28.9-89.4-49.5-137.1-58.8c-39.8-7.8-79.1-19.9-118.3-39.1
			c-21.7-10.6-43.7-19.6-66.1-26.3c-1.9-0.6-3.7-0.9-5.6-1.1c-9-1.2-18-1.9-27.2-3.9c-19.8-4.2-38.5-6.2-55.1-2.5
			c-26.1,5.8-46.7,17.1-63.8,31.6c-14.3,12.1-27,25.3-41.4,37.4c-6.8,5.8-14.7,10.9-23.9,14.4c-15.5,5.9-35.2-0.4-54.4-9.5
			c-9.9-4.6-18.6-6.7-26.1-5c-7.8,1.8-15.9,3.8-21.5,7.7c-9.3,6.7-17.4,14.4-24.7,22.5c-12.7,14.2-28.9,24.8-53.9,26.8
			c-21.3,1.6-42.7-2.8-62.2-22.5c-6.5-6.6-13.2-13.1-19.8-19.6c-4.8,3.2-3,7.2,1.5,12.8c22.6,27.7,47.4,36.8,77,38.1
			c30.5,1.3,50.7-9.7,66.1-25.4c8.5-8.7,16.2-18,25.3-26.3c10.2-9.2,30.8-7.9,45.7,1.6c-5.3-0.7-10.9-1.8-16.1-2
			c-15.1-0.5-25.5,4.8-33.7,12c-9.4,8.3-18.1,17.2-27.5,25.5c-13.1,11.7-29.7,20.2-53,20.5c-28.5,0.3-50.8-5.9-73.2-29.3
			c-5.6-5.9-11.7-11.7-17.7-17.5c-5.8,4.4-6.2,9.6,2.1,16.9c1,0.8,1.3,2,1.9,3.1c6.3,5.4,12,11.1,18.8,15.9
			c28.1,20.2,55.2,24.1,81.9,22.1c29.2-2.3,46.8-16,62.4-31.4c6.2-6,11.9-12.5,18.1-18.5c10.1-9.9,28-11.1,46-2.7
			c-30.8-5.2-44.1,8.3-58.3,20.9c-11.6,10.3-22.7,21.3-37.2,29.1c-18.5,9.8-42.9,12.1-71.6,4.2c-24.6-6.7-45.1-20-60.3-39.4
			c-3.5-2.9-6.9-5.7-10.7-8.9c-1,1.5-1.9,2.6-2.6,3.9c-0.8,1.5-1.9,2.7-2.3,4.4c-0.3,1.1-0.3,2.8,0.7,4
			c17.2,20.9,38.9,38.2,66.7,46.2c56.7,16.5,95.3,6.1,121.9-21.4c9.1-9.4,18.3-18.9,28.9-27.1c7.9-6.1,20.3-5.6,32.6-1.1
			c-9,1.9-20.4,2.3-28.1,6.4c-11.4,6.1-20.2,14.8-30.1,22.4c-10.5,8.1-19.2,17.9-31.7,24c-19.9,9.7-44.7,12.2-74.4,6.5
			c-24.6-4.9-46.2-15.6-65.5-32.5c-7.9-7-15.6-14.2-25.5-23.2c0.1,4.3-1.4,7.6,0.2,9.2c10.3,10.2,20.2,21.2,32.4,29.6
			c30.8,21.2,62.9,29.3,94,28.3c32.9-1.1,57.8-11.2,75.2-29.4c8.3-8.6,17.5-16.7,26.5-24.8c10.5-9.4,37.5-8.4,52.2,2.8
			c-3.1-0.7-6.3-1.5-9.5-2.1c-20.7-4-34.2,1.6-45,10.5c-8.6,7.3-16.5,15.1-25,22.5c-25.7,22.5-60.3,32.5-109.9,22.8
			c-22.6-4.4-43.2-14.1-62.3-28.5c-11.7-8.8-22.4-18.6-34.2-28.5c-1.5,2.6-3.2,5-4.2,7.7c-0.4,0.9,0.2,2.9,1.2,3.9
			c22.5,23,48.8,42.5,80.6,52.3c51.5,15.9,93.6,12.7,126.1-6.6c8.7-5.2,15.9-11.7,23.3-18c7.9-6.7,14.4-14.3,22.5-20.7
			c11.2-8.9,29-8.6,45.6,0.6c-19.7-4.5-33.2-1-43.8,6.3C5,196.7,1.1,200.7-3,204.6c-22.4,21.2-46.9,40-88.6,42.2
			c-49.3,2.4-102.5-14.2-144.8-54.7c-3.7-3.5-7.8-7-12.8-11.4c-0.2,4.8-7.4,5.8-1.3,11.9c24.7,24.6,53.5,43.9,87.4,55
			c44.1,14.4,83,14.4,116,3.7c24.6-8,40.6-24.1,56.6-39.8c7.8-7.5,15.9-14.6,30.3-15.7c9-0.6,18.6,1.8,25.6,6.8
			c-20.1-4.3-34.3-0.1-45.1,8.5c-8.9,7.2-17.1,15.1-25.8,22.6c-29.7,25.5-70.3,36.2-126.2,26.6c-36.5-6.2-69.3-21.4-99.7-45.9
			c-8.3-6.7-16.3-13.6-24.4-20.3c-5.1,5.7-5.1,5.7-0.4,10.3c24.6,23.7,53.2,42.4,86.1,54.6c49.7,18.3,92.6,18.3,130.6,7.7
			c25.7-7.3,42.3-23.2,59.1-38.5c7.7-7,14.2-14.9,26.9-17.5c11.5-2.4,23.6,0.7,35.2,7.2c-8.5-0.3-18.9-2-26.5-0.3
			c-9.6,2.3-17.8,6.7-24.8,11.6c-10.4,7.2-19,15.9-28.8,23.7c-33.3,26.7-80,33.5-139.5,21c-33.8-7-65.2-21.8-94-43.9
			c-10.4-8.1-20.1-16.6-30.3-25l-4.8,8.4c5,4.4,9.7,8.4,14.5,12.6c27.6,24,59.2,42.5,93.6,52.4c70.7,20.3,128,16.7,168.1-14.8
			c12.4-9.7,23.7-20.3,36.4-29.9c13.4-10.3,32.1-9.5,52.9,2.2c-25.4-7-41.7-2-54.2,8.4c-2.1,1.7-3.6,3.8-5.9,5.4
			C20.1,262,4.4,277.1-17,286.2c-30.3,12.8-68.6,13.7-111.6,5.3c-38-7.5-73.4-22.6-106.4-46.7c-11.8-8.6-22.8-18-35.8-28.3
			c1.8,5.3-7.1,6.1,0.2,11.6c18.2,13.8,35.9,28.5,55.4,40.5c42.3,25.8,85.9,36.6,128,38.6c33,1.6,64.1-1.2,87.1-14.5
			c17.1-9.9,32.7-21.2,48.5-32.1c4.9-3.5,7.5-9.2,12.7-12.3c15.9-9.5,31.1-8.4,57.4,6c-2.2-0.3-4.4-0.4-6.5-1.2
			c-17.3-6.3-31.4-5.8-42.5,0.1c-7.4,3.9-13.6,9.3-19.7,14.4c-17.3,14.8-34.7,29.8-59.5,37.5c-34.2,10.6-73.7,11.7-118.6,2.4
			c-40.2-8.4-77.7-24.3-112.9-49.8c-12.1-8.8-23.4-18.2-34.9-27.2c-5.6,4-5.1,8.5,3.8,14.3c1.2,0.8,2.2,1.9,3.2,2.8
			c36.6,31.3,77.7,53.5,123.2,65.9c51.4,14.1,96.7,13.6,137.2,3.4c24.4-6.1,40.4-20.5,58-33.3c9.3-6.7,17.3-14.5,27.1-20.8
			c13.5-8.5,32.4-5.9,51.7,6.9c-17.5-7-31.1-7-42.1-2.5c-6.5,2.7-12.1,6.4-17.4,10.5c-8.9,6.5-16.7,14.1-25.7,20.5
			c-14.3,10.2-28.5,20.6-48.5,25c-35.2,7.6-73.1,9.7-116.8,0.7c-48.8-10-93.7-30.1-135.2-62.2c-8.4-6.5-16.7-13.2-25.2-20.1
			l-4.9,8.6c23.6,20.1,48.5,38.2,76.7,53.1c42,22.2,83.4,32.1,125,37c21.8,2.6,41.1,0.5,60.2-1.8c18.9-2.3,38.7-3.4,51.8-13.5
			c14-10.7,29.7-19.8,44.3-29.9c6.7-4.7,12.4-10.2,18.9-15.1c11.8-9,32.1-7,52.6,6.4c-32.5-10.6-48.6-1.1-62.2,11.8
			c-0.7,0.6-1.3,1.3-2,1.9C58.2,316.2,38,332.3,9.2,339.9c-40,10.8-85.5,11.1-136.5-0.6c-41.2-9.4-80.6-26-117.5-51.1
			c-15.6-10.6-30.1-22.4-45.6-33.9c-0.3,3.7-8.7,5.2-0.7,11.1c19.9,14.6,39.2,30.4,60.6,42.7C-162,347.6-95.4,361.5-31.1,357
			c35.8-2.5,66.9-10.3,89.8-28c12.8-9.8,26.3-19.3,38.8-29.3c7.8-6.2,17-10.5,30.8-8.9c7,0.9,14.6,4,21.9,6.1c0,0.6,0.1,1.2,0.1,1.8
			c-29-3-37.4-1.5-51.6,10c-7.5,6-14.5,12.5-22.3,18.1c-19.9,14.8-41.2,28.3-70.8,32.9c-32.6,5-66.7,6.9-105.5,0.4
			c-63.1-10.3-121.7-35.1-175.9-77.4c-7-5.4-14-10.9-21.2-16.5l-4.5,7.8c4.9,3.9,9.6,7.6,14.3,11.3c75.7,60.3,155.9,86,238.4,88.8
			c19.8,0.6,37.9-2.6,56.7-4.4c18.6-1.7,35.7-5.6,48.5-14.2c13.7-9.2,26.5-19,39.6-28.8c10.8-7.9,19.6-17.5,36.4-19.7
			c11.5-1.5,20.5,0.4,33.8,8.7c-33.2-8.5-50.3,2.9-64.5,16.4c-17.5,16.8-38.2,30.5-65,38.4c-38,11.2-80.9,13.9-129.5,6.2
			c-56.6-9-110.9-28.2-163.1-63.2c-16.5-11-31.8-23.3-47.8-34.9c-6.9,7.6-6.9,7.6,5.7,17.1c4.6,3.5,9.2,7.1,13.8,10.5
			c45.4,34.3,94.9,58.5,147.5,72.1c47.8,12.4,92.8,16.6,135,11.9c35.1-3.9,64.8-13,87.8-30.3c14.1-10.5,28.7-20.7,43.2-30.9
			c13.5-9.4,30.9-8.4,49.8,2.9c-0.1,0.2-0.1,0.4-0.2,0.4c-0.8,0-1.4,0.1-2.2,0c-19.9-3.7-34.9-0.4-46.2,8.1
			c-8,6-15.8,12.3-23.9,18.3c-17.8,13.4-37.4,25.5-62,32C5.9,401.1-37.1,403.5-85.8,396c-51.9-7.9-102.6-24.8-152.9-52.8
			c-26.3-14.7-49.7-32.9-72.9-51.7l-6.5,11.3c21.9,15,43,31.1,65.8,44.8c67.3,40.7,135.9,60.3,203.5,64.1
			c43.1,2.4,83.8-0.2,116.1-15.1c16.8-7.8,33.1-16.2,48.4-25.3c10.4-6.4,18.2-15.1,28.4-21.7c12.7-8.3,26.9-10.8,48.9,0.8
			c21.1,11,40.1,12.7,56.5,7.1c22.2-7.6,36.6-21.6,49.8-36.7c9.6-11.1,20.1-21.6,30.3-32.3c3.5-3.5,7.4-2.9,13.2,2.9
			c22.8,22.1,49.6,35.6,79.6,41.2c9.9,1.9,19.8,4.2,29.7,6.4c30.3,6.7,55.5,34,56.7,53.7c1.1,17.7-0.9,34.4-0.9,51.7
			c0,4.5,2.2,10,5,15c6.3,10.9,19.4,17.5,29.8,25.9c8.3,6.6,18.6,14.6,21.8,21.8c8.2,18.2,5.9,33.2-10,41.6
			c-8.9,4.7-18.9,8.4-27,13.8c-11.2,7.3-21.8,15.5-19.7,30.9c1.6,12.2,4.8,24.7,5.6,36.7l34.1,130.7c11.6,21.5,27.8,41.9,48.8,60.7
			c18.6,16.5,38.5,32.4,57.4,48.9c22.5,19.7,44.2,39.9,66.8,59.4C741.5,945.4,764.1,959.9,790.2,969.9z"/>
	</g>
	<g>
		<path class="st0" d="M758.9,618.7c1.8,14.4,4,28.9,6.9,43.5c2.1,10.8,2.1,14.7-4.8,20.2c-0.8-5.1-1.3-9-2.1-13.1
			c-2.7-14-5.8-28.1-7.9-42c-1.4-9.4,3-16.1,9.1-22.1C759.8,609.7,758.3,614,758.9,618.7z"/>
	</g>
	<g>
		<path class="st0" d="M670,344.6c0,0.3,0.1,0.4,0.2,0.7c4.3,6.6,8.5,13.3,12.8,19.9c6.9,10.7,16.7,20.3,28.5,28.8
			c56.3,40.5,87.3,85.3,91.2,134.2c1.3,14.8,1.5,29.2-5.6,40.8c-0.9,1.6-2.4,3-3.7,4.2c1.3-12.2,3.9-23.8,3.5-36.3
			c-1.4-49.5-30-96.5-88.6-138.4c-23.3-16.7-32.1-34.1-38.1-53.1c-1.7-2.6-3.3-5.1-5-7.7c0.8-0.1,1.6-0.2,2.6-0.4
			C668.6,339.8,669.2,342.2,670,344.6z"/>
	</g>
	<g>
		<path class="st0" d="M77.5,162.5c24.3-5.9,39.3-20.2,52.6-35.4c12-13.6,24.8-26.6,42.9-35.2c10.6-5,22.3-8.8,34.1-12.4
			c12.1-3.8,27.6,0,42.4,2c30.7,4.1,60.6,15.4,90.5,30.8c35.5,18.2,71.2,29.9,107.6,36.6c50.5,9.2,97.4,31.7,139.6,66.1
			c21.1,17.1,37.7,35.9,49,56.5c5.5,10,11.6,20.1,15.8,30.4c-2.5-4.2-5.5-8.6-7.6-12.7c-33.1-66.7-119.1-119.6-193.9-133.8
			c-43.2-8.3-84.4-23.6-125.6-45.9c-22.3-12-45.4-16.6-68.3-22.4c-34.5-8.9-58.2-1.3-79.6,10.1c-20,10.6-34.3,25.6-49.2,40.3
			c-10.5,10.3-22.7,19.1-35.5,27.6c-8.6,5.8-23.1,4.7-34.6-0.1C64.2,164.2,71.4,163.9,77.5,162.5z"/>
	</g>
	<g>
		<path class="st0" d="M86.5,176.5c15.8-3.3,26.8-11.5,36.7-20.2c9.1-7.8,16.7-16.7,24.9-25.3c16.7-17.3,37.5-30.9,65.3-38
			c5.2-1.4,11.6-1.7,18-1c35.5,4.2,70.9,11.2,106.9,31.5c34.7,19.5,70.5,30.9,106.6,37.2c48.4,8.5,93.3,30.4,133.9,62.6
			c29.2,23.2,48,49.9,61.2,77.6c7.9,16.6,15.9,33.4,21.6,49.8c6.9,20.1,20.8,36.9,42.7,52.5c32.1,23.1,56.7,49.2,70.3,79.1
			c10.3,22.7,13.7,44,12.7,64.8c-0.6,11.3-4.7,20.5-11.7,28.2c-1,1.1-2.5,2-3.5,2.9c2.5-11.1,6.5-21.6,7.1-33.2
			c2.2-44.9-19.2-89-71.8-131.3c-6.3-5.1-12.6-10.1-19.2-14.7c-14.6-10.1-21.6-21.6-25.6-34.1c-9-27.3-19.8-54.6-36.6-82.1
			c-17.2-28-43-51.6-75-72.3c-36.8-23.7-74.9-37.9-114.1-44.2c-34.3-5.5-67.1-20.1-99.8-37.4c-38.7-20.6-77.2-31.6-113.7-30.1
			c-19,0.8-33.2,8.5-44.3,18.1c-18.1,15.3-34.1,32.2-52.1,47.6c-7.7,6.7-17.5,11.9-27.2,16.8c-8.4,4.2-20.1,1.4-33.4-3.2
			C74,177.6,80.7,177.7,86.5,176.5z"/>
	</g>
	<g>
		<path class="st0" d="M445.7,306.6c-15.4-3.2-31.2-6.1-46.6-11.7c-11.1-4-21.9-12.1-32.8-18.3c0.2-0.3,0.5-0.5,0.6-0.8
			c13.5,5.6,27,12.2,40.6,16.4c15.8,4.9,31.7,8.1,47.4,11.2c35.1,7,58,28.3,72.8,51.2c1,1.5,1.1,3.2,1.8,5.5
			c-8.1-8.7-14.6-16.8-22.6-24C489,320.2,468.2,311.3,445.7,306.6z"/>
	</g>
	<g>
		<path class="st0" d="M433,284.3c11.2,2.3,22.6,5.1,33.8,7.6c33,7.5,64.4,38.9,72.7,57.4c0.5,1,0.7,2,0.9,2.7
			c-9.4-9.6-18.2-19.3-28-28.5c-14.6-13.7-32.2-22.7-51.1-27.8c-13.4-3.6-26.9-6.2-40.1-8.6c-21-3.7-39.5-14.1-57.4-26.8
			c-3.8-2.7-7.3-5.8-10.8-9.4c1.6,0.8,3.3,1.3,4.8,2.3C381.8,269,406.8,278.9,433,284.3z"/>
	</g>
	<g>
		<path class="st0" d="M461.4,281.1c-13.2-3.5-26.4-6.5-39.4-8.8c-21-4-39.8-14.2-58.1-27.2c7.2,3.4,14.3,7.1,21.5,10.2
			c18.4,7.9,36.6,11.8,54.8,15c21.5,3.8,42.8,9.5,63.4,23.3c20.7,13.8,35.7,29.7,45.7,48.2c-10.9-10.7-20.9-21.3-31.7-31.2
			C501.4,295.6,481.9,286.6,461.4,281.1z"/>
	</g>
	<g>
		<path class="st0" d="M584.8,363c0.5,0.1,1,0.1,1.5,0c2.9,11.3,6,22.8,8.7,34.2c2.8,11.4,10.7,21.8,22.7,31.3
			c13.5,10.7,27.7,20.9,39.9,32.3c22.7,21,30.1,42.7,30.7,64c0.4,15-1.5,28.9-14.9,38.9c2.3-8.1,4.7-14.6,6-21.4
			c4.5-23.3-0.4-47.7-24-74.2c-11.9-13.5-26.6-25.1-42.6-35.6c-12.2-7.9-18.4-16.5-20-27C591,391.7,587.6,377.3,584.8,363z"/>
	</g>
	<g>
		<path class="st0" d="M690.5,567.2c-0.5,0.3-1,0.7-1.5,1c-0.4,0.1-0.9,0-2,0c1.3-2.3,2.4-4.5,3.8-6.6c4.4-6.5,8.8-12.5,7-22.2
			c-1.4-7.5,1.6-14.1,0.8-21.6c-3.6-31-24.3-59.6-59.7-84.1c-21.5-14.8-34.1-29.2-34.6-47.3c-0.1-3-1.6-6.5-2.4-9.9
			c0.5,0.1,1.2,0.2,1.7,0.3c2.3,6.9,4.2,13.6,7.1,20.4c5.4,13.4,18.1,24.2,32.1,34.1c16.3,11.5,31.5,23.8,42.7,38.4
			c17.8,23.2,22.4,45,21.2,66C705.8,548.8,701.7,559.9,690.5,567.2z"/>
	</g>
	<g>
		<path class="st0" d="M712,565.9c1.4-3.1,3.4-5.9,4.2-9.2c6.9-25.2,4.3-52.5-15.9-82.9c-13-19.4-31.4-36.5-53.3-51.3
			c-16.3-11-25.4-22.6-27.2-36.5c-0.7-5.2-2.3-10.5-3.4-15.8c0.7,0.1,1.2,0.2,1.8,0.4c0.8,2.1,2.1,4.3,2.4,6.3
			c3.3,17.1,16.3,31.5,35.2,44.4c27.3,18.7,49.2,39.9,60.8,64.9c11.1,23.6,13,45.3,8,65.3C722.8,557.9,719,562.9,712,565.9z"/>
	</g>
	<g>
		<path class="st0" d="M680,422.8c38.9,29.9,61.1,63,63.9,97.9c0.9,11.9-1.2,23-2.3,34.4c-0.2,2.3-1.8,4.1-2.8,6.1
			c-0.7-0.3-1.5-0.6-2.2-1c0.6-6.2,1.2-12.4,1.7-18.7c3.6-43.2-20.8-83.9-72.5-122.3c-4.6-3.5-9.2-7.1-13.8-10.5
			c-12.7-8.9-14.7-18.9-17.1-28.9C644.3,397.6,662.8,409.5,680,422.8z"/>
	</g>
	<g>
		<path class="st0" d="M148,195.7c10.2-8.6,19.2-18.2,27.5-28.2c14.5-17.4,34.5-29.8,59.6-37.7c5.2-1.7,11.9-2.5,18.3-1.5
			c26.7,4.1,53.3,9.9,79.9,25.3c39,22.6,78.8,35.2,119.8,43.2c55.8,11,102.9,39,138.3,83.2c4.9,6.2,8.2,12.6,12.3,18.9
			c-0.8,0.1-1.6,0.2-2.4,0.4c-10.2-17.2-25.1-32.8-43-46.8c-34.4-26.9-72.5-45.4-112.5-51.8c-39-6.2-75.7-21.4-112-42.8
			c-22.5-13.2-45.9-19.3-68.9-23.4c-20.2-3.6-34.4,2.3-47.5,9.1c-20.8,10.7-35.6,26.2-49.6,42.1c-10,11.4-22,21.2-37.1,28.3
			c-9.8,4.6-21.8,4.4-36.5-2.3C118.7,214.3,134.8,206.4,148,195.7z"/>
	</g>
	<g>
		<path class="st0" d="M127.9,225.2c16.3-3.4,28.8-10.5,38.5-20c13.2-13.1,24.4-27.6,39.3-39.4c11.1-8.8,25.8-14.9,40.2-21.1
			c4.7-2.1,12.7-1.4,19.6-0.3c27.9,4.6,55.1,14.4,82,30.3c28.9,17.1,59,27.2,89.5,32.6c26.1,4.5,52.1,11.4,77.7,25.9
			c27,15.4,50.1,33.5,67.1,55.8c7.3,9.6,12.3,19.8,18.5,29.9c-0.8,0.1-1.6,0.2-2.5,0.3c-2.1-3.1-4.1-6.3-6.2-9.4
			c-18-28.3-44.3-51.3-77.9-69.9c-27.4-15.3-55.5-23.1-83.4-27.6c-32.1-5.1-62-19.6-91.7-37.5c-33.8-20.5-80-34.2-109.7-15.7
			c-18.6,11.6-34,25.6-47.5,41c-10.5,12-22.8,22.5-39.4,29.3c-10.4,4.3-22.9,3.7-33.8-1.3C113.4,227.5,120.8,226.7,127.9,225.2z"/>
	</g>
	<g>
		<path class="st0" d="M118.2,241.2c26.4,5.2,42.3-3.7,55.8-14.1c12.3-9.6,21.6-21.4,31.8-32.5c13.2-14.4,29.5-26.2,51-33.3
			c3.2-1.1,7.4-1.4,11.4-0.7c23.6,4,46.9,10.5,70.3,24.2c16.1,9.4,33,18.8,49.9,25.1c18.8,7,38.3,11.7,57.1,15.2
			c37.2,6.9,71.4,22.3,101.5,48c22,18.7,35.3,39.8,43.3,61.4c0.7,1.9,1.3,3.8,0.6,5.7c-2.3-5-4.2-9.9-6.9-14.9
			c-11.3-21.9-29.8-40.9-53.8-58.1c-31.3-22.4-64.7-33.8-98.6-39.3c-28.8-4.5-56-15.4-82.4-32.3c-19.3-12.4-39.3-20.3-60.2-25.8
			c-14.8-4-27.2-3.2-37.5,1.1c-24.1,10-40.5,26.4-55.4,43.8c-10.8,12.4-23.1,23.7-40.7,30.4c-6.8,2.6-16.5,1.9-25.5,1.9
			c-3.5,0-8-2.4-12.2-3.7C118.1,242.4,118,241.8,118.2,241.2z"/>
	</g>
	<g>
		<path class="st0" d="M119.3,252.5c28.6,10,48.4,4.9,62.9-7c14.8-12,27.3-25.9,40.7-39c11.7-11.5,24.5-22.2,42.5-28.1
			c4.3-1.4,9.9-2.3,15.4-1.3c18.2,3.4,36.6,9,54.3,19.7c22.9,13.9,46.3,27.2,71.4,34.1c15.4,4.3,30.6,6.9,45.9,10.3
			c43.5,9.4,79.4,30.4,107.3,64.1c10.5,12.7,15.7,25.6,19.2,38.6c-1-1.5-2.2-2.9-2.8-4.4c-21-47.7-80-85.5-136-94.9
			c-19.6-3.3-39.5-6-59.3-17c-13.4-7.4-26.4-15.2-39.4-23.2c-15.7-9.8-32.1-15.5-48.6-19.7c-11.1-2.7-20.6-1.6-28.6,1.6
			c-18.9,7.6-33.4,19.2-45,32.8c-12.2,14.3-24.4,28.5-42.2,38.7c-14.7,8.3-32.5,8.3-54.8-3.1C121.3,254.1,120.3,253.3,119.3,252.5z"
			/>
	</g>
	<g>
		<path class="st0" d="M169.4,272.7c20.8-2.7,32.2-14.5,44-25.6c13.7-12.8,25.8-26.7,39.5-39.4c5.2-4.9,12.8-7.9,19.5-11.6
			c7-3.9,16.3-2.4,26.8,0.3c20.4,5.1,38.1,16.9,56.3,27.5c26.2,15.2,52.8,25.3,80.5,30c20.7,3.6,41.9,8,62.6,19.3
			c29.1,16,49.7,36.3,61.4,60.9c-3.2-4.1-5.9-8.3-9.3-12.3c-29.1-33.9-66-53.7-109.4-62c-7.3-1.4-14.4-2.8-21.6-4
			c-20.4-3.6-39.3-12.8-57.4-24.9C346,220,329.8,209.2,311,203.5c-15-4.6-27.3-4.6-37.7,0.1c-19.5,8.8-33.2,22.1-45.1,36.8
			c-11,13.4-23.1,25.9-40.4,34.4c-10.8,5.4-23.8,6.3-40.2,0.4c-1.5-0.5-3.1-1.4-3.5-1.6C151.9,273.1,161.3,273.8,169.4,272.7z"/>
	</g>
	<g>
		<path class="st0" d="M216,273.8c13.9-13.4,26.5-28,40.6-41.4c7.2-6.8,16.8-12,25.3-17.6c7.1-4.7,16.3-5.1,28.3,0.2
			c5,2.2,9.9,3.8,15.3,6.6c-21.6-8.5-35.5-3.8-47.2,3.6c-7.5,4.7-14.7,9.9-20.6,15.8c-11,11-20.3,23.3-31.9,33.9
			c-7.2,6.8-16.7,12.1-26,17.2c-11.2,6-26.4,3.2-42.7-2.7C184.7,294.1,202.8,286.6,216,273.8z"/>
	</g>
	<g>
		<path class="st0" d="M223.3,294.3c13.3-10.8,23.9-23.8,36.5-35.2c10.3-9.3,20.9-18.6,32.6-26.7c11-7.7,25.9-4.5,44.5,7.9
			c-1-0.1-1.6,0-2.1-0.2c-23.2-11.2-36.4-6-49.1,2.7c-19.4,13.3-28.9,33.5-46.1,48.2c-7.5,6.4-16.1,12.1-25.4,17
			c-11.2,6.1-31.5,3.6-48-5.4C192.1,308.8,210.4,304.8,223.3,294.3z"/>
	</g>
	<g>
		<path class="st0" d="M263.3,287.7c12.8-14.1,23-29.9,41.1-40.1c9.4-5.2,12.9-4.8,27.1,3.3c-27.1-3.4-36.9,9.6-48.1,20.8
			c-10,10.1-17,22.4-27.3,32.3c-7.6,7.4-17.4,13.4-27.4,18.9c-11.8,6.5-27.3,5.3-47-3.5C226.3,326.4,245.3,307.4,263.3,287.7z"/>
	</g>
	<g>
		<path class="st0" d="M318.1,273.5c-11.3,9.5-22.2,19.5-31.2,30.8c-12.3,15.4-25.5,30-46.3,38.6c-12,4.9-26.3,1.9-42.1-5.4
			c27,4.8,44.6-2.6,59.1-13.7c8.5-6.5,14.7-14.8,22.2-22.2c12.7-12.3,25.1-24.7,38.7-36.2c5.7-4.9,9.2-3.6,18,2.6
			C330.4,269.7,322.3,270,318.1,273.5z"/>
	</g>
	<g>
		<path class="st0" d="M511.9,363.9c-17.2-21.9-40.2-35-67.9-40.2c-8.8-1.7-17.6-3.3-26.5-5.1c-16.1-3.3-29.9-11.6-42.1-23
			c26.3,14.1,52.1,18.1,78,23.6c31.2,6.5,56.2,28.6,66.1,50.7c0.8,1.8,1,3.7,0.4,5.7C517.4,371.7,514.9,367.7,511.9,363.9z"/>
	</g>
	<g>
		<path class="st0" d="M579.4,407.3c1.7,2.6,2.6,3.8,3.3,5.1c6.7,12.4,17.7,22.7,31.4,32c45.4,31.1,57.5,58,53.8,91.5
			c-0.7,6-3.2,11.4-4.8,17.1c-0.8-0.5-1.7-0.9-2.6-1.3c0.6-8.5,1.9-16.8,2.1-25.4c0.6-28-18.7-53.6-50-77.5
			c-3.2-2.4-6.7-4.7-9.9-7.1C583.9,428.6,582,425.9,579.4,407.3z"/>
	</g>
	<g>
		<path class="st0" d="M567.7,421.7c10.7,17.6,31,28.2,47.7,41.6c22.1,17.8,32.9,36.8,33.3,56.7c0.1,10.7-0.5,20.8-6,29.1
			c-0.8,1.1-1.8,2.2-4.1,2.6c1.3-6.1,2.7-12.1,3.9-18.3c4.5-27.7-13.5-53.5-46.6-77.8c-6.1-4.4-12.2-8.8-18.2-13.4
			C569.3,435.7,566.3,428.9,567.7,421.7z"/>
	</g>
	<g>
		<path class="st0" d="M554.7,427.4c2.1,3.1,3.9,5.8,5.8,8.4c7.9,10.5,18.6,18.9,30.7,27.2c22,14.9,38,32.5,38.9,52
			c0.5,10.4-2,19.9-3.4,29.7c-0.3,1.9-2,3.1-4.4,3.9c0.9-6.4,2.1-12.6,2.7-19.1c2.4-24-12.9-45.9-44.5-68.5
			c-4.4-3.2-9.3-6.2-13.8-9.2C556.1,444.8,551.7,436.1,554.7,427.4z"/>
	</g>
	<g>
		<path class="st0" d="M540,434.4c4,5.2,7,10,11.1,14.2c5,5.1,10.3,10.6,16.5,14.4c43.8,27.1,50,49.3,42.1,75.3
			c-0.8,2.7-2.6,4.9-4,7.4c-0.7-0.4-1.5-0.9-2.2-1.3c0.8-3.6,1.2-7.5,2.3-11c6.1-19.7-6.6-39.2-29.6-58.1
			c-8.1-6.7-17.4-12.5-26.1-19C540.7,449.4,538.2,442.2,540,434.4z"/>
	</g>
	<g>
		<path class="st0" d="M584.1,534.3c8.2-23.4-13.1-45.1-36.6-60.5c-4.4-2.9-8.9-5.7-13.1-8.8c-11.1-8.2-13.5-14.2-9.9-22.2
			c7.1,7.5,13.4,15.1,21.1,21.9c6,5.3,14,9.2,20.7,14.2c13.9,10.4,23.6,22,25.3,34.8c1.7,13.3,0.7,25.4-10.7,32.7
			C582,542.3,582.8,538.1,584.1,534.3z"/>
	</g>
</g>
<g class="st1">
	<path d="M181.1,244.2h-15.4l-17.1,87.9h-24.9l17.1-87.9h-15.4l3.7-19.1h55.7L181.1,244.2z"/>
	<path d="M232.1,333.7c-20.4,0-28.3-15.6-28.3-36.3c0-22.1,9-73.9,48.9-73.9c20.4,0,28.5,15.6,28.5,36.3
		C281.1,282.1,271.6,333.7,232.1,333.7z M249.2,243c-7.9,0-12.9,11.2-16.8,28.6c-2,9.2-4,19.6-4,28.3c0,8.1,2.2,13.1,7.5,13.1
		c7.9,0,13.1-11.5,17-29.3c2-9,4-19.3,4-27.7C256.9,248.1,254.5,243,249.2,243z"/>
	<path d="M376.8,332.2h-18.2l-16-54.6c-0.9-3.4-1.9-7.5-2.2-10.7h-0.3c-0.3,3.3-0.9,7.5-1.6,10.9L328,332.2h-21.5l20.8-107h20.8
		l14.3,46.5c1.1,3.6,2,7.3,2.8,10.7h0.3c0.3-3.4,0.9-7.2,1.7-11l9-46.2h21.3L376.8,332.2z"/>
	<path d="M482,244.2h-22.9l-4.7,24.4h19.4l-3.6,18.5h-19.4l-5.1,25.8h22.9l-3.7,19.1h-47.8l20.8-107h47.8L482,244.2z"/>
	<path d="M563.2,245.8c-3.4-1.9-7.2-2.6-11.8-2.6c-7.5,0-13.2,5.4-13.2,12.9c0,13.8,21.9,17.1,21.9,40.1c0,21.8-15.2,37.5-38,37.5
		c-9.3,0-17.4-1.9-23.8-6.1l9.2-18.4c3.6,2.2,8.9,3.4,13.5,3.4c7.6,0,13.4-5.3,13.4-12.9c0-13.7-21.2-16.6-21.2-39.8
		c0-21.3,13.8-36.4,36.3-36.4c8.6,0,16.3,2,21.6,6.1L563.2,245.8z"/>
	<path d="M289.4,520.4c-20.4,0-28.3-15.6-28.3-36.3c0-22.1,9-73.9,48.9-73.9c20.4,0,28.5,15.6,28.5,36.3
		C338.4,468.8,328.9,520.4,289.4,520.4z M306.5,429.7c-7.9,0-12.9,11.2-16.8,28.6c-2,9.2-4,19.6-4,28.3c0,8.1,2.2,13.1,7.5,13.1
		c7.9,0,13.1-11.5,17-29.3c2-9,4-19.3,4-27.7C314.1,434.8,311.8,429.7,306.5,429.7z"/>
	<path d="M428.5,431h-22.7l-4.7,24.4h19.4l-3.6,18.5h-19.4l-8.9,45h-24.9l20.8-107h47.6L428.5,431z"/>
	<path d="M32.9,705.6H8l20.8-107h24.9L32.9,705.6z"/>
	<path d="M143.7,705.6h-18.2l-16-54.6c-0.9-3.4-1.9-7.5-2.2-10.7H107c-0.3,3.3-0.9,7.5-1.6,10.9l-10.6,54.5H73.3l20.8-107H115
		l14.3,46.5c1.1,3.6,2,7.3,2.8,10.7h0.3c0.3-3.4,0.9-7.2,1.7-11l9-46.2h21.3L143.7,705.6z"/>
	<path d="M252.6,617.7h-15.4l-17.1,87.9h-24.9l17.1-87.9h-15.4l3.7-19.1h55.7L252.6,617.7z"/>
	<path d="M296.6,705.6h-24.9l20.8-107h24.9L296.6,705.6z"/>
	<path d="M431.7,705.6h-23l7.8-55.7c0.5-3.4,1.6-8.6,2.2-12h-0.3c-1.2,3.3-3.3,7.9-5.1,12l-25.4,55.7h-11.4l-3.7-55.7
		c-0.3-4-0.6-9-0.6-12h-0.3c-0.6,3.4-1.4,7.5-2.5,12l-13.7,55.7h-22.4l29.9-107h22.4l4.5,54.1c0.2,2,0.2,4.2,0.2,6.4v6.4h0.3
		c1.4-4,3.3-8.9,5.1-12.8l25.5-54.1h22.4L431.7,705.6z"/>
	<path d="M516.8,705.6l-0.2-20.1h-25.2l-8.2,20.1h-23.5l48.9-107h26l7.2,107H516.8z M516.1,636.3c0-4.7,0.2-10,0.3-14h-0.3
		c-1.1,4-3,9.3-4.8,14l-13.4,32.8h18.5L516.1,636.3z"/>
	<path d="M636.7,619.4c-2.3-1.9-5.3-2.8-9.2-2.8c-10.1,0-17.3,12-21.5,27.4c-2.2,7.8-3.6,16-3.6,24.1c0,10.9,3.1,18.2,11.4,18.2
		c3.9,0,7.6-1.2,10.6-3.4l1.6,18.2c-5.9,4.2-12.9,6.1-21,6.1c-19.8,0-27.9-17.7-27.9-38.6c0-28.2,15.2-71.6,48.5-71.6
		c8.1,0,14.9,2,19.3,6.1L636.7,619.4z"/>
	<path d="M711.9,659.5l-9,46.1H678l9-46.1l-12.4-61h25.2l4.2,37.7h0.3l19.6-37.7h24.3L711.9,659.5z"/>
</g>
<text transform="matrix(1 0 0 1 -10.5127 765.8979)" class="st2 st3 st4">  </text>
<g>
	<path d="M56.8,1028.7c-9.2-4.2-16.5-10.4-21.5-18c-5-7.6-7.7-16.8-7.8-26.9l3-0.3c0.5,8.8,3.4,17.5,8.3,24.9
		c4.8,7.4,11.6,13.6,19.5,17.6L56.8,1028.7z"/>
	<path d="M64.1,999.4l-10.8,7.7c2.4,4.3,6.2,7.5,10.1,5.4c1.7-0.9,3-2.2,3.9-3.9l2.2,2c-1,1.9-2.8,3.7-4.8,4.8
		c-6.2,3.4-11.7-0.9-15.5-8c-4.7-8.7-4.8-15,0.4-17.8s10.1,1.3,13.7,8.1C63.6,998.2,63.9,998.8,64.1,999.4z M50.8,992.1
		c-3.1,1.7-2.1,6.5,1.1,12.4l0.2,0.3l7.8-5.6C57.1,994.2,54,990.4,50.8,992.1z"/>
	<path d="M85,1005.4l-8.9-8.9l-0.1,0l0,12.7l-3.5,1.5l0.6-16.1l-11.6-10.7l3.6-1.5l8.5,8.5l0.1,0l0.1-12.2l3.3-1.4l-0.6,15.3
		l12.1,11.2L85,1005.4z"/>
	<path d="M103.4,999.2L97,978.5c-0.9-3-2.5-4.4-5.6-3.5c-1.2,0.4-2.4,1.2-3.3,2.3l7.4,24.3l-3.6,1.1l-11.6-38.1l3.6-1.1l3.4,11.3
		c1-1.2,2.5-2.2,4-2.7c4.7-1.4,7.7,0.7,9.1,5.3l6.3,20.7L103.4,999.2z"/>
	<path d="M106.8,961.5c-1.2,0.3-2.4-0.5-2.7-1.7c-0.3-1.2,0.5-2.4,1.7-2.7c1.2-0.3,2.4,0.5,2.7,1.7
		C108.8,960.1,108,961.3,106.8,961.5z M112.6,996.9l-6.2-28.2l3.7-0.8l6.2,28.2L112.6,996.9z"/>
	<path d="M128.5,994.4c-2.3,0.3-4.6,0-6.6-1l-5.3-38l3.7-0.5l1.6,11.4c1-0.8,2.4-1.3,3.7-1.5c6.1-0.8,9.4,4.7,10.6,13
		C137.3,986.3,135.5,993.4,128.5,994.4z M125.4,967.6c-1.1,0.1-2.2,0.4-3.1,1.2l3.1,22.5c0.9,0.4,2,0.4,2.9,0.2
		c4.6-0.6,5-6.5,4.1-13.1C131.4,971.7,129.5,967,125.4,967.6z"/>
	<path d="M142.9,956.5c-1.2,0.1-2.3-0.9-2.4-2.1c-0.1-1.2,0.9-2.3,2.1-2.4c1.2-0.1,2.3,0.9,2.4,2.1
		C145,955.4,144.1,956.4,142.9,956.5z M143.1,992.4l-1.7-28.9l3.8-0.2l1.7,28.9L143.1,992.4z"/>
	<path d="M159.6,992c-3.6,0-5.4-2.5-5.4-6.2l-0.1-20.2l-2.8,0l0-2.7l2.7,0l0-6.6l3.7-1.4l0,8.1l3.8,0l0,2.7l-3.8,0l0.1,20.3
		c0,2,1,3.2,2.7,3.2c0.4,0,0.8-0.1,1.2-0.2l0,2.8C161.3,991.9,160.5,992,159.6,992z"/>
	<path d="M166.8,992.1l1.5-28.9l3.8,0.2l-1.5,28.9L166.8,992.1z M170.6,956.4c-1.2-0.1-2.2-1.1-2.1-2.3c0.1-1.2,1.1-2.2,2.3-2.1
		c1.2,0.1,2.2,1.1,2.1,2.3C172.9,955.5,171.8,956.5,170.6,956.4z"/>
	<path d="M184.1,993.9c-6.2-0.7-7.7-7.2-6.7-15.8c1-8.7,4.1-14.6,10.2-13.8c6.2,0.7,7.7,7.2,6.7,15.8
		C193.3,988.8,190.3,994.7,184.1,993.9z M187.3,967.1c-3.6-0.4-5.3,4.7-6.1,11.4c-0.8,6.7-0.4,12.1,3.2,12.5
		c3.6,0.4,5.3-4.7,6.1-11.4S190.9,967.5,187.3,967.1z"/>
	<path d="M208.9,997.7l4.4-21.3c0.6-2.9-0.3-5.1-3.4-5.7c-1.3-0.3-2.5-0.3-3.7,0l-5.3,25.3l-3.7-0.8l5.6-26.9
		c2.4-0.8,5.1-0.9,7.8-0.3c5.3,1.1,7.3,4.6,6.3,9.2l-4.4,21.3L208.9,997.7z"/>
	<path d="M216.4,1007.8l-2.2-2.1c6.3-6.2,10.8-14.1,13.2-22.7c2.4-8.5,2.5-17.7,0.3-26.2l2.9-0.7c3,9.6,3.2,19.2,0.7,28
		C229,993,223.9,1001.1,216.4,1007.8z"/>
	<path d="M263.8,1015.9l8.4-20c1.1-2.7,0.7-5-2.3-6.2c-1.2-0.5-2.4-0.8-3.6-0.7l-10,23.8l-3.5-1.5l10.6-25.3
		c2.5-0.3,5.1,0.1,7.7,1.2c5,2.1,6.3,5.9,4.5,10.2l-8.4,20L263.8,1015.9z"/>
	<path d="M293.1,1014.3l-12.5-4.3c-2.1,4.5-2.5,9.4,1.5,11.4c1.7,0.9,3.6,1.2,5.4,1l-0.3,3c-2.2,0.3-4.6-0.1-6.7-1.1
		c-6.3-3.1-6.1-10-2.5-17.3c4.3-8.9,9.5-12.6,14.7-10c5.2,2.6,4.7,9,1.4,15.9C293.8,1013.2,293.5,1013.8,293.1,1014.3z M291.3,999.3
		c-3.2-1.5-6.5,2-9.5,8l-0.1,0.3l9.1,3.1C293.3,1005.6,294.5,1000.9,291.3,999.3z"/>
	<path d="M309.8,1039.5l-2.7-1.5l5.8-19.2c0.4-1.3,0.9-2.5,1.4-3.6l-0.1,0c-0.8,1-1.6,2.1-2.4,3l-13.5,14.8l-2.7-1.5l8.5-28.4
		l3.3,1.9l-6.5,19.3c-0.4,1.2-0.9,2.5-1.4,3.7l0.1,0c0.8-1,1.5-2,2.4-3.1l13.7-15.2l2.8,1.6l-6.1,19.5c-0.4,1.3-0.9,2.5-1.4,3.7
		l0.1,0c0.6-0.9,1.5-2.1,2.4-3.1l13.4-15.4l3,1.7L309.8,1039.5z"/>
	<path d="M318.3,1045.1c-1.2-0.8-1.6-2.3-0.8-3.5s2.3-1.6,3.5-0.9c1.2,0.7,1.6,2.4,0.8,3.6C321.1,1045.5,319.5,1045.8,318.3,1045.1z
		"/>
	<path d="M343.8,1060.9l-2.6-1.6l6.7-18.9c0.4-1.2,1-2.4,1.5-3.6l-0.1-0.1c-0.8,1-1.6,2-2.6,2.9l-14.2,14.1l-2.6-1.7l9.8-28l3.2,2
		l-7.3,19c-0.5,1.2-1,2.5-1.6,3.6l0.1,0.1c0.8-1,1.6-2,2.6-3l14.4-14.6l2.7,1.7l-7,19.2c-0.4,1.2-1,2.5-1.6,3.6l0.1,0
		c0.7-0.9,1.6-2.1,2.5-3l14.1-14.8l3,1.9L343.8,1060.9z"/>
	<path d="M360,1071c-4.6-2.6-5.4-7.4-2.9-11.9c3.3-5.8,9.1-6.3,15.6-3.7l0.9-1.6c1.8-3.1,1.2-5.2-1.3-6.7c-1.5-0.9-3.5-1.3-5.3-1.3
		l0.5-2.8c2.3-0.1,4.6,0.5,6.7,1.7c4.5,2.6,5.2,6.2,2.6,10.8l-9.8,17.3C364.8,1072.9,362.2,1072.2,360,1071z M371.4,1057.6
		c-4.8-1.8-8.6-1.2-11.1,3.2c-1.7,3-1.8,6.2,1.2,7.9c0.9,0.5,2.2,0.9,3.1,0.9L371.4,1057.6z"/>
	<path d="M380.1,1081.3l-3-1.6l6.8-29l3.5,1.8l-5,18.9c-0.5,1.7-1,3.2-1.5,4.8l0.1,0c1-1.4,1.9-2.6,3-4l12.6-15l3.3,1.7
		L380.1,1081.3z"/>
	<path class="st5" d="M415.5,1098.5c-2.3-1-3.3-3.6-2.3-5.9s3.6-3.3,5.8-2.4c2.3,1,3.4,3.6,2.4,5.9
		C420.4,1098.4,417.8,1099.5,415.5,1098.5z"/>
	<path class="st5" d="M437.5,1107.3c-2.3-0.9-3.5-3.5-2.6-5.8c0.9-2.3,3.4-3.5,5.7-2.6c2.3,0.9,3.5,3.4,2.7,5.7
		S439.8,1108.1,437.5,1107.3z"/>
	<path d="M475.6,1127.5c-2.9-9.7-3-19.2-0.5-28c2.5-8.8,7.6-16.9,15.1-23.6l2.2,2.1c-6.3,6.1-10.9,14.1-13.3,22.6
		c-2.4,8.5-2.6,17.7-0.5,26.2L475.6,1127.5z"/>
	<path d="M492.6,1124.1c-6.5-1.6-8-8.1-6-16.5c1.9-7.8,5.9-14,12.8-12.3c1,0.2,1.9,0.6,2.7,1.2l2.6-10.8l3.6,0.9l-9.1,37.4
		C497.5,1124.6,495.1,1124.7,492.6,1124.1z M501.6,1099c-0.6-0.4-1.5-0.8-2.3-0.9c-5-1.2-7.4,4.1-8.9,10.2c-1.6,6.7-1.2,12,2.9,13
		c1,0.2,2,0.3,2.9,0.1L501.6,1099z"/>
	<path d="M513.4,1128.6c-5.2-1-7.5-5.3-6.5-10.4c1.3-6.6,6.6-8.9,13.6-8.5l0.4-1.8c0.7-3.5-0.5-5.3-3.4-5.9
		c-1.7-0.3-3.7-0.1-5.4,0.4l-0.4-2.8c2.2-0.8,4.5-1,6.9-0.5c5.1,1,7,4.2,6,9.4l-3.8,19.5C518.6,1128.9,515.9,1129.1,513.4,1128.6z
		 M520,1112.2c-5.2-0.2-8.5,1.6-9.5,6.5c-0.6,3.4,0.3,6.4,3.6,7.1c1.1,0.2,2.4,0.2,3.3-0.1L520,1112.2z"/>
	<path d="M533.7,1131.7c-3.6-0.5-5-3.3-4.4-7l3.1-20l-2.7-0.4l0.4-2.6l2.7,0.4l1-6.6l3.9-0.8l-1.2,8l3.8,0.6l-0.4,2.6l-3.8-0.6
		l-3.1,20.1c-0.3,2,0.5,3.3,2.1,3.5c0.4,0.1,0.8,0.1,1.2,0l-0.4,2.8C535.4,1131.9,534.6,1131.9,533.7,1131.7z"/>
	<path d="M559.4,1120.7l-13.3,0.1c-0.5,4.9,0.8,9.7,5.2,10.2c1.9,0.2,3.8-0.1,5.4-0.9l0.7,2.9c-1.9,1-4.4,1.4-6.7,1.2
		c-7-0.8-9.1-7.4-8.2-15.4c1.1-9.8,4.7-15,10.5-14.4c5.8,0.6,7.5,6.8,6.6,14.5C559.6,1119.5,559.5,1120.1,559.4,1120.7z
		 M552.6,1107.2c-3.5-0.4-5.5,4.1-6.2,10.8l0,0.3l9.6-0.1C556.6,1112.4,556.2,1107.6,552.6,1107.2z"/>
	<path d="M563.1,1143l-2.5-1.6c4.9-7.3,7.9-16,8.5-24.8c0.6-8.8-1-17.9-4.8-25.8l2.8-1.2c4.8,8.9,6.9,18.2,6.2,27.3
		C572.5,1125.9,569.1,1134.9,563.1,1143z"/>
	<path d="M599.4,1136.8c-6.8,0-9.2-8.6-9.2-20.4c0-11.8,2.4-20.4,9.2-20.4c6.8,0,9.2,8.6,9.2,20.4
		C608.6,1128.2,606.2,1136.8,599.4,1136.8z M599.4,1099.1c-4.1,0-5.4,7.3-5.4,17.3c0,10,1.3,17.3,5.4,17.3s5.4-7.4,5.4-17.3
		C604.8,1106.4,603.5,1099.1,599.4,1099.1z"/>
	<path d="M620.4,1136.3c-2.6,0.1-5-0.3-7.1-1.5l1-3.1c1.6,0.9,3.5,1.3,5.5,1.2c4.4-0.2,6.7-4.3,6.4-9.1c-0.3-5.5-3.4-8.7-9-8.4
		c-1.1,0.1-2.2,0.3-3.5,0.6l0.6-19.7l13.9-0.7l0.2,3.5l-11.1,0.6l-0.4,13c0.5-0.1,0.9-0.1,1.3-0.1c7-0.4,11.5,3.7,11.9,11
		C630.4,1130.3,626.8,1136,620.4,1136.3z"/>
	<path d="M638.4,1134.9c-1.4,0.1-2.7-0.9-2.8-2.3c-0.1-1.4,0.9-2.7,2.3-2.8c1.4-0.1,2.7,0.9,2.8,2.4
		C640.9,1133.6,639.9,1134.8,638.4,1134.9z"/>
	<path d="M654.9,1133.3c-6.7,0.9-10.2-7.4-11.7-19c-1.5-11.7-0.2-20.5,6.5-21.4c6.7-0.9,10.2,7.4,11.7,19
		C662.9,1123.5,661.6,1132.4,654.9,1133.3z M650,1095.8c-4.1,0.5-4.4,7.9-3.1,17.8c1.3,9.9,3.5,17,7.6,16.5c4.1-0.5,4.4-8,3.1-17.9
		C656.3,1102.3,654.1,1095.3,650,1095.8z"/>
	<path d="M683.6,1118.5l1.8,9.2l-3.4,0.7l-1.8-9.2l-12.4,2.4l-0.5-2.8l7.2-29.5l3.5-0.7l5.2,27.1l3.4-0.6l0.5,2.8L683.6,1118.5z
		 M675.5,1094.6c-0.2,1.4-0.4,2.9-0.8,4.4l-4.6,19.2l9.6-1.8l-3.3-17.4C676.1,1097.5,675.8,1095.9,675.5,1094.6L675.5,1094.6z"/>
	<path d="M696.4,1125.6c-1.4,0.3-2.8-0.5-3.1-1.9s0.5-2.8,1.9-3.1c1.4-0.3,2.8,0.6,3.1,1.9C698.6,1123.9,697.8,1125.2,696.4,1125.6z
		"/>
	<path d="M708.9,1122l-9-32.9c-1.8,1.5-4.6,3.3-7,4.2l-1.1-2.4c3.2-1.4,7.1-4.6,7.7-7.6l2.6-0.7l10.5,38.4L708.9,1122z"/>
	<path d="M722.5,1118.5l-2.1-2.5c5.3-4.6,7.1-11,6.7-17.4c-1,0.8-2.4,1.5-3.6,1.9c-5.6,1.9-10.4-1.5-12.7-8.1
		c-2.1-6.1-1.2-12.5,4.5-14.5c5.9-2,10.8,3,13.5,10.8C732.4,1099.2,731.2,1111,722.5,1118.5z M716.2,1080.7c-3.6,1.2-3.5,5.9-2,10.4
		c1.8,5.1,4.9,8,9.2,6.6c1.2-0.4,2.4-1.1,3.4-1.8c-0.3-2-0.8-4-1.5-5.9C723,1083.4,719.6,1079.5,716.2,1080.7z"/>
</g>
<g>
	<path d="M132.6,1138.1c-5.9-7-9.3-15-10.3-23.1c-1-8.2,0.4-16.7,4.3-25l2.5,1c-3.1,7.3-4.1,15.6-3.1,23.5c1,8,4,15.7,8.9,22
		L132.6,1138.1z"/>
	<path d="M155.4,1130.1c-6.8,0.1-10.5-4.9-10.6-13.7c-0.1-7.2,2.6-13.2,8.1-13.3c2.3,0,4,0.8,5.2,2.3l0.3,21.7
		c4.4-1.3,6-7.3,5.9-14.5c-0.1-8.3-3.2-15.1-11.5-15c-8.8,0.1-13.7,9-13.5,19.3c0.1,8.5,3.3,14.8,9.5,17.5l-1,2.5
		c-7.3-3-11.5-10.1-11.6-19.9c-0.1-11.7,6-21.6,16.5-21.8c9.9-0.1,14.4,7.6,14.5,17.3C167.4,1122.3,163.7,1130,155.4,1130.1z
		 M155.2,1106.2c-0.7-0.6-1.5-0.8-2.5-0.8c-3.5,0-5,5.1-4.9,11c0.1,7,2.3,11.2,7.7,11.2L155.2,1106.2z"/>
	<path d="M171.7,1137.6l-2.3-1.5c4.6-6.5,7.4-14.3,8.1-22.3c0.7-8-0.6-16.2-3.9-23.4l2.5-1.1c4.2,8.1,5.9,16.6,5.1,24.8
		C180.5,1122.4,177.3,1130.4,171.7,1137.6z"/>
	<path d="M200.2,1134.3l5.8-30.3c-2,0.5-5,0.8-7.4,0.6l0.1-2.4c3.1,0.1,7.6-0.9,9.3-3.1l2.4,0.5l-6.8,35.4L200.2,1134.3z"/>
	<path d="M207.7,1135.7l14.7-16.8c1.8-2.1,3.2-4.3,3.8-6.3c1-3.9-0.4-6.8-4.2-7.8c-1.7-0.4-3.2-0.3-4.9,0l-0.3-2.7
		c2.2-0.6,4.3-0.6,6.6,0c5.5,1.4,7.7,5.7,6.2,11.2c-0.6,2.2-2.3,5-4.7,7.5l-11.9,12.8l11.3,2.9l-0.8,3.2L207.7,1135.7z"/>
	<path d="M233.5,1143.1c-3.1-1-4-3.6-3-6.8l5.5-17.5l-2.4-0.7l0.7-2.3l2.4,0.7l1.8-5.7l3.6-0.2l-2.2,7l3.3,1l-0.7,2.3l-3.3-1
		l-5.5,17.5c-0.5,1.7,0,3,1.4,3.5c0.3,0.1,0.7,0.2,1.1,0.2l-0.8,2.4C235,1143.4,234.2,1143.3,233.5,1143.1z"/>
	<path d="M249.7,1148.6l6.8-18.4c1-2.7,0.6-4.5-2.1-5.5c-1.1-0.4-2.4-0.4-3.6-0.1l-8,21.5l-3.2-1.2l12.5-33.8l3.2,1.2l-3.7,10
		c1.4-0.3,3-0.2,4.4,0.3c4.1,1.5,5.2,4.8,3.7,8.8l-6.8,18.4L249.7,1148.6z"/>
	<path d="M281.7,1136.3l-10.1,21.5l-3.1-1.4l10.1-21.5l-2.3-1.1l1-2.2l2.3,1.1l1.5-3.3c1.9-4,4.6-4.9,7.9-3.4c0.4,0.2,0.8,0.4,1,0.6
		l-1,2.2c-0.3-0.2-0.6-0.3-0.8-0.4c-1.6-0.7-2.8-0.1-4,2.4l-1.6,3.3l3.1,1.5l-1,2.2L281.7,1136.3z M279.3,1161.4l15.3-32.6l3.1,1.4
		l-15.3,32.6L279.3,1161.4z"/>
	<path d="M289,1166.6c-1.1-0.6-1.6-2-1-3.1s2-1.6,3.1-1c1.1,0.6,1.6,2,1,3.2C291.5,1166.8,290.1,1167.2,289,1166.6z"/>
	<path d="M311.4,1179.2c-4.8-2.8-4.3-9.2-0.5-15.7c5.1-8.8,13.9-14.8,24.2-13.2l-0.5,2.9c-6.3-0.9-11.8,1.6-16,5.7
		c1.2,0.2,2.5,0.7,3.5,1.3c4.6,2.7,5.1,8.1,1.9,13.5C321.1,1178.8,316.2,1181.9,311.4,1179.2z M320.3,1162c-1-0.6-2.1-1-3.3-1.3
		c-1.1,1.4-2.2,2.9-3.1,4.5c-3.1,5.3-3.8,9.8-1,11.5c3,1.7,6.1-1,8.3-4.7C323.7,1167.8,323.8,1164,320.3,1162z"/>
	<path d="M351,1187.5l-11.1-4.7c-2.1,3.9-2.9,8.3,0.6,10.4c1.5,0.9,3.2,1.3,4.8,1.2l-0.5,2.6c-2,0.2-4.1-0.4-6-1.4
		c-5.5-3.2-4.9-9.4-1.2-15.7c4.4-7.7,9.3-10.8,13.9-8.2c4.6,2.6,3.7,8.4,0.3,14.4C351.7,1186.6,351.3,1187.1,351,1187.5z
		 M350.3,1173.9c-2.8-1.6-6,1.4-9,6.7l-0.1,0.3l8,3.4C351.7,1179.7,353.1,1175.5,350.3,1173.9z"/>
	<path d="M364.6,1209l14-27.5c-2.1-0.1-5.1-0.6-7.3-1.4l0.7-2.3c3,1,7.6,1.3,9.8-0.4l2.2,1.1l-16.3,32.1L364.6,1209z"/>
	<path d="M380.8,1217.3c-5.1-2.4-5.2-8.7-2-15.5c4.3-9.2,12.4-16.1,22.9-15.5l-0.2,2.9c-6.4-0.3-11.6,2.7-15.4,7.2
		c1.2,0.1,2.6,0.5,3.7,1c4.9,2.3,5.8,7.6,3.2,13.3C390.5,1216,385.8,1219.6,380.8,1217.3z M388,1199.3c-1-0.5-2.2-0.8-3.4-1
		c-1,1.5-1.9,3.1-2.7,4.8c-2.6,5.5-2.9,10.1,0.1,11.5c3.1,1.4,6-1.6,7.8-5.4C392,1204.8,391.8,1201.1,388,1199.3z"/>
	<path d="M399.1,1225.1c-3-1.3-3.6-4-2.3-7.1l7.2-16.8l-2.3-1l0.9-2.2l2.3,1l2.4-5.5l3.6,0.1l-2.9,6.7l3.2,1.4l-0.9,2.2l-3.2-1.4
		l-7.2,16.9c-0.7,1.7-0.3,3,1.1,3.6c0.3,0.1,0.7,0.2,1.1,0.3l-1,2.3C400.6,1225.6,399.8,1225.4,399.1,1225.1z"/>
	<path d="M416.1,1231.7l7.1-18.3c1-2.7,0.7-4.5-2-5.6c-1.1-0.4-2.4-0.5-3.6-0.2l-8.3,21.4l-3.2-1.2l13-33.6l3.2,1.2l-3.9,10
		c1.4-0.3,3-0.2,4.4,0.4c4.1,1.6,5.1,4.8,3.5,8.9l-7.1,18.3L416.1,1231.7z"/>
	<path d="M439.2,1240.3c-1.8-0.6-3.3-1.7-4.4-3.2l1.7-2.1c0.8,1.1,2.1,2,3.4,2.4c1.9,0.6,4-0.4,4.7-2.6c1.9-5.9-6-8.1-3.6-15.5
		c1.2-3.6,4.4-5.5,8.2-4.3c1.8,0.6,3.2,1.6,4.1,3.1l-1.7,1.9c-0.7-1-1.7-1.9-3-2.3c-2-0.7-3.8,0.5-4.5,2.6
		c-1.8,5.5,6.2,7.9,3.7,15.5C446.6,1239.8,442.8,1241.5,439.2,1240.3z"/>
	<path d="M456.7,1245.4c-3.1-0.9-4.1-3.5-3.1-6.8l5.1-17.6l-2.4-0.7l0.7-2.3l2.4,0.7l1.7-5.8l3.6-0.3l-2,7l3.3,1l-0.7,2.3l-3.3-1
		l-5.1,17.6c-0.5,1.7,0,3,1.5,3.4c0.3,0.1,0.7,0.2,1.1,0.1l-0.7,2.4C458.2,1245.7,457.5,1245.6,456.7,1245.4z"/>
	<path d="M466.6,1248.2c-1.2-0.3-2-1.6-1.7-2.8c0.3-1.2,1.6-2,2.8-1.7c1.2,0.3,2,1.6,1.6,2.9
		C469.1,1247.8,467.8,1248.5,466.6,1248.2z"/>
	<path d="M496.1,1254.6l3.9-19.3c0.5-2.6-0.3-4.6-3.1-5.1c-1.1-0.2-2.3-0.2-3.3,0l-4.6,22.9l-3.3-0.7l4.9-24.4
		c2.2-0.7,4.6-0.8,7-0.3c4.8,1,6.6,4.1,5.8,8.3l-3.9,19.3L496.1,1254.6z"/>
	<path d="M510.6,1264.1l-3.5-0.5l3.4-6.7l-2.6-26.6l3.6,0.6l1.1,17.7c0.1,1.4,0.1,3.1,0.1,4.5l0.1,0c0.4-1.4,0.9-2.9,1.5-4.3
		l6.6-16.5l3.3,0.5L510.6,1264.1z"/>
	<path d="M540.9,1261l2.9-30.7c-2,0.7-4.9,1.3-7.3,1.3l-0.2-2.4c3.1-0.2,7.5-1.6,9-4l2.4,0.2l-3.4,35.9L540.9,1261z"/>
	<path d="M559.3,1262.8c-6.1-0.3-7.9-8.2-7.3-18.9c0.6-10.6,3.1-18.3,9.3-18c6.1,0.3,7.9,8.2,7.3,18.9
		C568.1,1255.5,565.5,1263.1,559.3,1262.8z M561.1,1228.7c-3.7-0.2-5.2,6.3-5.7,15.3c-0.5,9,0.3,15.7,4.1,15.9
		c3.7,0.2,5.2-6.4,5.7-15.4C565.7,1235.5,564.9,1228.9,561.1,1228.7z"/>
	<path d="M582,1263.4c-6.1,0-8.3-7.8-8.3-18.5c0-10.6,2.2-18.4,8.3-18.4c6.1,0,8.3,7.8,8.3,18.5S588.2,1263.4,582,1263.4z
		 M582.1,1229.2c-3.7,0-4.9,6.6-4.9,15.6s1.1,15.7,4.9,15.7c3.7,0,4.9-6.6,4.9-15.6C586.9,1235.9,585.8,1229.2,582.1,1229.2z"/>
	<path d="M604.7,1262.9c-6.1,0.3-8.7-7.4-9.2-18c-0.5-10.6,1.3-18.5,7.4-18.8c6.1-0.3,8.7,7.4,9.2,18
		C612.6,1254.7,610.8,1262.6,604.7,1262.9z M603,1228.7c-3.7,0.2-4.6,6.8-4.1,15.8c0.4,9,1.9,15.6,5.7,15.4
		c3.7-0.2,4.6-6.9,4.1-15.9C608.2,1235.1,606.7,1228.6,603,1228.7z"/>
	<path d="M622.4,1261.6c-2.3,0.2-4.5-0.1-6.4-1.1l0.8-2.8c1.5,0.7,3.3,1.1,5,0.9c4-0.4,5.9-4.1,5.5-8.2c-0.4-4.3-3.6-7.4-8.6-6.9
		l-0.2-2.3c4.8-0.6,7.1-4.6,6.8-8.2c-0.3-3-2.3-5.5-6.1-5.2c-1.7,0.2-3.3,0.8-4.7,1.7l-1.3-2.4c1.7-1.3,3.8-2,6-2.3
		c5.7-0.5,9,3,9.5,7.5c0.4,3.8-1.6,7.2-4.7,9l0,0.1c3.5,1.2,6.4,4.1,6.9,8.7C631.4,1255.9,628.4,1261.1,622.4,1261.6z"/>
</g>
</svg>
