<?xml version="1.0" encoding="utf-8"?>
<!-- Generator: Adobe Illustrator 21.0.2, SVG Export Plug-In . SVG Version: 6.00 Build 0)  -->
<svg version="1.1" id="Layer_1" xmlns="http://www.w3.org/2000/svg" xmlns:xlink="http://www.w3.org/1999/xlink" x="0px" y="0px"
	 viewBox="0 0 1540 877" style="enable-background:new 0 0 1540 877;" xml:space="preserve">
<style type="text/css">
	.st0{fill:url(#SVGID_1_);}
	.st1{opacity:0.25;}
	.st2{fill:#FFFFFF;}
	.st3{font-family:'DaxPro-CondExtraBoldIta';}
	.st4{font-size:186.0171px;}
	.st5{letter-spacing:8;}
	.st6{fill:none;stroke:#000000;stroke-width:4;stroke-miterlimit:10;}
	.st7{letter-spacing:275;}
	.st8{font-family:'DaxCompactPro';}
	.st9{font-size:70.8636px;}
	.st10{fill:none;stroke:#000000;stroke-width:0.5;stroke-miterlimit:10;}
	.st11{letter-spacing:300;}
</style>
<g>
	
		<radialGradient id="SVGID_1_" cx="850.5" cy="-830.1895" r="681.9073" gradientTransform="matrix(1 0 0 -1 0 878)" gradientUnits="userSpaceOnUse">
		<stop  offset="0" style="stop-color:#000000"/>
		<stop  offset="4.854548e-02" style="stop-color:#06090E"/>
		<stop  offset="0.4059" style="stop-color:#304774"/>
		<stop  offset="0.6937" style="stop-color:#4F75BF"/>
		<stop  offset="0.898" style="stop-color:#6392ED"/>
		<stop  offset="1" style="stop-color:#6A9DFF"/>
	</radialGradient>
	<rect x="34" y="1195" class="st0" width="1633" height="1026.3"/>
</g>
<g class="st1">
	
		<image style="overflow:visible;enable-background:new    ;" width="1706" height="1099" xlink:href="../hyperhi/assets/A11444B9AA63789A.png"  transform="matrix(1 0 0 1 -74 1122.3395)">
	</image>
</g>
<g>
	<g>
		<text transform="matrix(1 0 0 1 46.4917 252.3721)" class="st2 st3 st4 st5">TONES OF </text>
		<text transform="matrix(1 0 0 1 46.4917 252.3721)" class="st6 st3 st4 st5">TONES OF </text>
		<text transform="matrix(1 0 0 1 46.4917 475.5721)" class="st2 st3 st4 st7">  </text>
		<text transform="matrix(1 0 0 1 46.4917 475.5721)" class="st6 st3 st4 st7">  </text>
		<text transform="matrix(1 0 0 1 684.2917 475.5721)" class="st2 st3 st4 st5"> INTIMACY</text>
		<text transform="matrix(1 0 0 1 684.2917 475.5721)" class="st6 st3 st4 st5"> INTIMACY</text>
		<text transform="matrix(1 0 0 1 46.4917 560.6721)" class="st2 st8 st9">  </text>
		<text transform="matrix(1 0 0 1 46.4917 560.6721)" class="st6 st8 st9">  </text>
	</g>
</g>
<g>
	<g>
		<text transform="matrix(1 0 0 1 87.0039 624.6279)" class="st2 st8 st9"> ( Exhibition)  new .wav</text>
		<text transform="matrix(1 0 0 1 87.0039 624.6279)" class="st10 st8 st9"> ( Exhibition)  new .wav</text>
		<text transform="matrix(1 0 0 1 87.0039 709.6279)" class="st2 st8 st9 st11"> </text>
		<text transform="matrix(1 0 0 1 87.0039 709.6279)" class="st10 st8 st9 st11"> </text>
		<text transform="matrix(1 0 0 1 405.9039 709.6279)" class="st2 st8 st9">                ( Date )   05.04.19</text>
		<text transform="matrix(1 0 0 1 405.9039 709.6279)" class="st10 st8 st9">                ( Date )   05.04.19</text>
		<text transform="matrix(1 0 0 1 87.0039 794.7279)" class="st2 st8 st9 st11"> </text>
		<text transform="matrix(1 0 0 1 87.0039 794.7279)" class="st10 st8 st9 st11"> </text>
		<text transform="matrix(1 0 0 1 405.9039 794.7279)" class="st2 st8 st9">( @ ) 12th Fl. 6 E 16th St, NY 10003 US</text>
		<text transform="matrix(1 0 0 1 405.9039 794.7279)" class="st10 st8 st9">( @ ) 12th Fl. 6 E 16th St, NY 10003 US</text>
	</g>
</g>
</svg>
