<?xml version="1.0" encoding="utf-8"?>
<!-- Generator: Adobe Illustrator 21.0.2, SVG Export Plug-In . SVG Version: 6.00 Build 0)  -->
<svg version="1.1" id="Layer_1" xmlns="http://www.w3.org/2000/svg" xmlns:xlink="http://www.w3.org/1999/xlink" x="0px" y="0px"
	 viewBox="0 0 1540 877" style="enable-background:new 0 0 1540 877;" xml:space="preserve">
<style type="text/css">
	.st0{font-family:'DaxPro-CondExtraBoldIta';}
	.st1{font-size:167.2337px;}
	.st2{letter-spacing:25;}
	.st3{letter-spacing:81;}
	.st4{fill:#231F20;}
	.st5{font-family:'DaxCompactPro';}
	.st6{font-size:63.7081px;}
	.st7{fill:none;stroke:#000000;stroke-width:1.1671;stroke-miterlimit:10;}
	.st8{fill:#FF0000;}
</style>
<text transform="matrix(1 0 0 1 52.4405 195.9836)"><tspan x="0" y="0" class="st0 st1 st2">TONES OF </tspan><tspan x="0" y="200.7" class="st0 st1 st2">   </tspan><tspan x="192.7" y="200.7" class="st0 st1 st3">	</tspan><tspan x="312.4" y="200.7" class="st0 st1 st2">INTIMACY</tspan><tspan x="0" y="277.1" class="st4 st5 st6">  </tspan></text>
<g>
	<g>
		<path class="st7" d="M914.8,889.3c3.9,21.7,7,43.6,9.4,65.7c1.4,12.8,0.7,26,1,39h10c2.4-26.1-1.3-51.4-5.1-76.8
			c-1.8-12.3-3.9-24.5-5.9-36.7c-3.4-20.3-0.8-40,3.6-59.3c9.6-42.9,19.5-85.6,29.3-128.4c6.2-26.9,17.2-49.6,31.9-69.4
			c16-21.5,32.8-41.7,54.2-52c18.5-8.9,35.8-20.2,52.6-34.1c12.4-10.3,25.9-11.6,40.7-2.9c-3,0.6-4.8,1.4-6.5,1.3
			c-13-1.2-24.3,5.4-34.8,14.4c-12.7,10.9-26.4,18.2-40.5,25.1c-38,18.6-66.3,53.7-85,101.9c-7.4,19-10.5,41-15.4,61.7
			c-4.8,20.5-9.4,41.1-14.2,61.6c-5.4,23.2-12.1,46.2-10.4,71c0.9,13,4.4,25.7,5.9,38.7c2.7,23.4,5,46.9,7.1,70.5
			c0.4,4.4-0.6,9-0.9,13.4h10c2.3-31.3-2-61.7-8.4-91.3c-6.5-30.1-4.5-58.5,2.7-87.7c8.6-34.9,16.1-70.3,23.7-105.6
			c7.3-33.8,21.7-61,41.1-83.8c14.9-17.6,31.3-31.3,50.2-39.9c11.4-5.2,22.1-13.4,32.8-21.2c11.5-8.5,22.6-18.2,36.5-16.5
			c3.5,0.5,7.1,1.1,10.6,2.9c-6.4,1.6-13.1,2-19.1,5.2c-9.3,5.1-18,12.3-27.1,18.2c-8.1,5.2-16.1,11.2-24.6,14.5
			c-20.1,7.9-37.7,21.1-52.9,40.4c-14.4,18.4-29,36.8-36.1,62.7c-5.1,18.5-8.7,37.6-13,56.5c-4.5,20.1-8.9,40.2-13.6,60.1
			c-5.2,22.2-11.3,44.3-9.8,68.1c0.7,10.6,3.1,21,5,31.4c5.1,28.2,10.4,56.4,8.7,85.8h7.7c2.3-33.4-3-65.6-9.7-97.1
			c-4.8-22.7-4.6-44.8,1.2-66.4c10-37.8,17.8-76.4,25.6-115.1c9.6-47.7,34.3-78.4,64.6-102c8-6.2,17.5-8.9,26-14
			c8.4-5,16.9-10.1,24.6-16.6c13.2-11.1,26.5-20.9,42.7-18.3c4.5,0.7,8.9,1.8,13.4,3.7c-20.2-2.4-36.7,9.7-53.2,22.9
			c-7.5,6-15.9,10.6-24.3,13.9c-22.9,8.8-41,26.8-58.3,48.3c-23.8,29.6-32.6,68-39.2,108.6c-2.5,15.4-6.6,30.2-9.9,45.3
			c-3.3,15.4-6.6,30.8-9.9,46.2c-4.4,20.7,1,40.1,4.4,59.7c4.6,26.6,10,53.1,7.4,80.9h7.7c2.2-33.1-3.1-65-9.6-96.4
			c-4.5-21.9-4.2-43.3,1.5-64.3c9.4-34.6,16.1-70.3,23.6-105.7c12.2-57.8,42-92.8,82.9-111c13.7-6.1,25.9-15.4,38.1-25.2
			c10.9-8.7,22.3-14.2,35.1-11.6c1.4,0.3,2.7,1,4,2.1c-17.2,2.2-31.9,12.5-45.9,25.1c-9.7,8.7-20.6,12.4-31.8,16
			c-6.5,2-12.8,6.3-18.6,10.9c-28.7,23-50.7,54.2-58.8,99.4c-6,33.4-13.2,66.2-22.1,98.3c-7.7,27.7-5.8,54.9,0.7,82.4
			c6.2,26,9.8,52.5,6.3,80h10c2.6-35-3-68.3-10.5-101.4c-4.2-18.6-3.1-36.9,1.7-54.7c9.4-34.9,17.2-70.3,23.9-106.3
			c7.4-40.1,28.2-66.2,53.3-86c7.8-6.2,17.3-8.2,25.6-13.3c11-6.7,22-13.8,32.5-21.9c12-9.2,24.2-15.7,38.3-12.9
			c0.9,0.2,1.7,0.5,3.5,1.1c-1.6,1.2-2.3,2.4-3.2,2.4c-14.7,0.8-27.3,9.8-39.3,20.1c-9,7.7-18.4,13.4-28.8,16.4
			c-20.1,5.8-35.8,21.9-50.8,40.3c-20,24.4-28,56.1-32.9,90.4c-2.1,14.4-5.8,28.4-8.9,42.5c-3.4,15.6-7.3,31-10.6,46.7
			c-4.3,20.6,0,40.2,4.6,59.7c6,25,10.2,50.3,7,76.8h8.8c-0.2-15,0.5-30.2-1-44.9c-1.5-15-4.4-30-8-44.4c-6.1-24-5.3-47.5,1.6-70.5
			c8.3-27.7,13.7-56.5,19-85.5c9.8-54.5,36.9-85.6,75.4-101.1c10.6-4.3,20.6-11.7,30.3-19c9.7-7.3,19.1-15.5,30.5-16.1
			c5.6-0.3,11.3,1.6,16.9,2.5c-0.1,0.6-0.1,1.2-0.2,1.8c-5.5,1.1-11.5,0.7-16.5,3.5c-10.5,5.8-20.7,12.7-30.7,20.1
			c-8,5.9-15.9,11.2-25,13.5c-15.5,3.9-28.9,13.8-41.1,27.6c-18.4,20.7-31.5,45.4-35.5,78.2c-0.8,6.9-1.7,13.9-3.2,20.6
			c-4.3,18.9-8.5,37.8-13.4,56.4c-6.4,24.4-8.1,48.3-1.2,73.3c7.5,27,11.3,55,8.5,84.1h6.6c3-27.1,1.4-53.7-5.8-79.3
			c-7.9-28.2-8-56,1.2-83.4c8.9-26.5,13.3-54.7,17.6-82.8c6-39.5,44.5-81.5,69-85.1c12-1.8,22.2-10.6,32-19.5
			c11.5-10.4,24-16.2,37.7-16.7c4.4-0.1,8.8,2.3,13.2,3.5c-0.1,0.8-0.1,1.5-0.2,2.3c-4.3,0-8.6-0.4-12.9,0.1
			c-12.6,1.2-23.9,7.5-34.4,16.8c-11.2,9.9-22.7,17.7-36.3,20.5c-12.9,2.6-24,12.1-34,23.8c-12.8,15-24.8,31.1-29.6,54.1
			c-2.6,12.5-4.1,25.4-6.4,38c-2,10.9-3.9,21.9-6.7,32.4c-5.9,21.9-13.2,43.7-11.3,67.5c1.2,15,4.7,29.8,8.5,44.1
			c5.6,20.9,6.6,42,3.9,63.7h8.8c3.5-27.2,0.5-53.4-6.1-79.2c-1.7-6.6-2.7-13.6-4.4-20.2c-2.9-11.7-2.4-23.2,0-34.8
			c1.3-6.5,2.4-13.3,4.4-19.4c8.7-26.3,12.9-54.4,16.9-82.4c4.9-34.5,38.7-73.8,63.6-78.3c9.5-1.7,18.7-8.8,27.3-15.2
			c11.3-8.3,21.9-18.8,35.3-19.7c4.1-0.3,8.3,0.8,12.4,1.3c0,0.9,0,1.8,0,2.6c-0.9,0.5-1.8,1.5-2.7,1.5
			c-12.5,0.2-23.1,7.4-33.4,15.8c-5.2,4.2-10.2,9-15.6,12.7c-4.1,2.7-8.5,5.4-12.9,5.9c-17.3,1.8-31.2,12.7-44.1,27.7
			c-15.2,17.7-24.1,39.6-26.4,66.4c-1.9,21.9-7.7,42.2-13.9,62.3c-8,26-8.6,51.9,0.1,77.8c8.2,24.1,8.8,49.4,6.1,75.1h7.7
			c2.8-26.6,1.5-52.5-6.3-77.5c-7-22.3-9.1-44.9-1.5-67.8c0.8-2.3,1.1-4.8,1.9-7.1c7-21,11.3-43.1,13.4-65.7
			c4.1-43.7,37.2-75.4,62.5-80.4c10.4-2.1,20.2-11.3,29.8-18.5c10.2-7.7,20.2-15.5,32.3-15.7c2.1,0,4.2,0.5,7.6,1
			c-8.9,4.6-16.7,7.8-24,12.6c-7.6,5-14.4,12.1-22.1,17c-5.9,3.7-12.3,6.4-18.7,7.7c-16.7,3.5-30,14.7-42.3,30
			c-12.3,15.3-18.2,34.1-20.6,55.8c-2,18.4-5.8,36-10.7,53.5c-4.1,14.6-7.3,30.2-8,45.7c-0.5,10.5,2.9,22,6.1,32.2
			c7.9,25.1,10.1,50.6,6.1,77.2h8.8c0.3-5.3,0.4-10.5,0.9-15.8c1.8-20.1,0.1-39.8-6.2-58.1c-9-26.2-9-52,0.2-77.5
			c7.6-20.9,9.4-43.6,12.7-66c1.8-12.7,5.7-23.6,12.3-33c10.1-14.4,21.5-25.9,35.7-31.5c1.2-0.5,2.5-1.4,3.7-1.3
			c14,1.1,25-9.1,36-18.6c11-9.5,22.6-17.3,35.7-17.6c6.4-0.1,12.9,3.6,19.3,5.4c9.3,2.7,18.6,5.8,28,7.6c4.4,0.9,9.2,0,13.7-1.3
			c27.5-7.9,51.8-23.7,68.8-55.6c10.2-19,16.2-40.5,18.4-63.7c1.7-18,7.9-30.8,18.9-41c12.3-11.3,23.8-24.2,35.4-36.8
			c10.1-10.9,19.7-22.6,26-38.3c19.9-49.8,19.3-100.1,0.2-149.7c-9.8-25.4-18.9-50.5-19.2-79.8c-0.1-10.8,0.2-21.8-1.5-32.3
			c-5.5-35.7-13.1-70.2-40.8-86.5c-10.4-6.1-21.2-11.9-32.2-15.4c-16.5-5.1-33.4-7.4-49.9-12.2c-10.5-3.1-20.8-8.1-31-13.1
			c-7.6-3.7-12.9-11.1-14.8-22.4c0.5-0.1,1-0.5,1.1-0.3c16.6,22.9,38.5,28.2,60.2,33.7c9.7,2.5,19.9,2,29.5,5.3
			c19.6,6.8,39.3,14.2,55.5,31.6c4.5,4.9,7.5,12.7,10.8,19.5c10.4,21.6,16.2,45.2,16.6,71.3c0.4,21.9,2.6,43.6,8.8,64
			c4.3,14.1,9.9,27.4,14.8,41.1c15.4,42.2,15.8,85.1,2.6,128.1c-6.5,21.1-18,37.8-30.5,52.7c-11.9,14.1-24.6,27-37.1,40.3
			c-8.8,9.5-14.8,21.4-17.5,36.3c-2.3,12.9-3.9,26.1-7,38.7c-11.4,45.7-36.9,70.7-68.9,86.1c-16.4,7.9-32.4,5.6-48.5-1.6
			c-20.2-9.1-39.4-7-57.5,9.2c-6.1,5.5-12.5,10.6-19.1,15c-3.7,2.5-8,4.2-12.1,4.6c-28.1,2.8-46.2,24.4-58.3,57
			c-2.3,6.3-3.3,13.9-3.7,21.1c-1.2,19.5-5.2,37.7-10.7,55.7c-5,16.2-8.7,33.4-5.6,51.2c1.8,10.1,4.3,20.2,7.7,29.6
			c6.7,18.8,6.8,38.1,4.5,58c-0.2,2-0.2,4-0.3,6h10c3-24.9,3-49.2-4.9-72.9c-5-15-10-30.5-6.3-47.8c1.8-8.4,3.3-17,6-25
			c6.6-19.4,8.5-40.2,11.2-60.9c1.2-8.7,3.7-18.2,7.7-25c11-18.3,24.6-31,43-32.6c11.9-1,21.5-11,31.3-19.3
			c11.2-9.5,22.8-16.2,36.3-14.7c1.8,0.2,3.6,1.1,5.4,1.7c0,0.7,0,1.5,0,2.2c-2.5,0.6-5,1.3-7.6,1.7c-14.4,2.6-26,13.5-37.8,23.5
			c-7.3,6.2-14.7,10.4-23.7,10.3c-8.8-0.2-17,3.9-24.2,11.3c-11.8,12.2-23.4,24.7-25.9,46.6c-0.4,3.7-0.8,7.4-1,11.2
			c-1,18.3-5,35.5-10.7,52.1c-7.8,22.9-7.2,46.1,1.4,68c7.8,20,8.6,40.5,6.2,62c-0.3,2.4,0,5,0,7.4h7.7c0.1-4.2-0.1-8.5,0.2-12.7
			c2-22-0.8-42.9-7.8-62.9c-2-5.9-3.6-12.1-5.2-18.2c-3.7-13.4-0.3-26.1,3.5-37.9c7-21.4,10.3-43.8,12.2-66.8
			c0.9-11.2,4.6-20.1,10.7-28c9.9-12.7,20.4-22.9,34.7-22.9c1.5,0,3,0,4.5,1.3c-0.4,0.4-0.8,1-1.2,1c-17.4,2.3-29.4,16.9-39,34.6
			c-4.1,7.7-5.8,19-6.4,28.8c-1.2,19-5.2,36.7-10.5,54.1c-6.5,21.3-5.6,42,2.8,62.1c6.7,16,8.8,33.2,6.9,51.5
			c-0.6,5.2-0.7,10.5-1,15.7h10c1.3-18.7,2.7-37.4-0.8-55.9c-0.6-3.3-1.2-6.9-2.5-9.7c-10.2-21.1-12.7-43-4.2-66.1
			c6.2-16.7,8.3-34.6,9.7-52.9c1.9-24.9,19.2-48,37.8-48.1c12-0.1,21.8-6,31.3-14.4c12.5-11,25.7-19.7,41-19.6c4.9,0,9.9,1.1,14.5,3
			c21.3,8.8,42.4,8,63.2-2.8c27.4-14.2,51.3-34.8,67.2-69.6c9.7-21.1,16.3-43.9,18.9-68.5c2.2-20.8,11.7-33.7,23.3-45.3
			c5.6-5.6,10.9-11.7,15.9-18.2c10.2-13.3,20.7-26.3,30-40.7c19.3-29.7,27.6-65.5,28.7-104.8c1.2-40.4-7.5-77.2-21.8-112
			c-10.9-26.6-16.5-55.3-18-85.3c-1.7-32.9-10.1-62.3-22-90.3c-9.9-23.2-26.5-34.9-43.8-44.8c-21.8-12.5-44.9-17-67.9-22.9
			c-12.9-3.3-25.6-8.9-38.1-14.8c-8.1-3.9-12.4-13.7-15.2-24.6c15.3,23.9,36.8,29.1,57.7,35.2c14.5,4.2,29.5,5.9,43.9,10.8
			c17.9,6.1,34.8,16.3,50,31c3.4,3.3,6.8,7.2,9.2,11.8c11.3,21.9,22.8,44.2,27.7,70.5c3.1,16.8,3.9,34.3,5.4,51.6
			c2.6,29.1,10.7,55.5,20.9,81c19.1,47.8,22.4,97.9,11.1,150c-5.7,26-16.7,47.6-30.1,66.7c-13.3,18.9-28.1,35.8-42.2,53.6
			c-8.9,11.2-16.4,23.1-18.8,40.4c-3.5,25.7-9.2,50.5-19.5,73c-10.1,22.2-23.8,39.1-39.9,52.8c-14.6,12.4-30.2,21-47,26.2
			c-11.3,3.5-21.8,0.1-32.5-3c-4.5-1.3-9-2.6-13.4-4.2c-13.2-4.8-25.6-1-37.3,6.8c-10.2,6.8-19.8,15.2-29.9,22.3
			c-2.7,1.9-6.4,2.4-9.5,1.9c-18.7-3.3-39.4,18.1-44.3,37.8c-1.6,6.2-1.9,13.2-2,19.9c-0.4,15.7-4.3,29.9-8.9,43.8
			c-6.7,20.2-6.2,40.1,2,59c8.2,18.9,8.5,39,6.3,59.7c-0.3,3.2-0.3,6.5-0.4,9.7h7.7c2.1-20.7,4.3-41.4-2.3-61.5
			c-2.2-6.6-4.4-13.2-6.7-19.7c-4.4-12.6-4.3-25.4-0.2-37.9c6.6-19.7,10.1-40.1,11.2-61.6c0.9-18.9,11.7-27.9,22.7-34.5
			c5.5-3.3,12.5-1.7,18.6-3.3c5-1.3,10-3.2,14.5-6.2c9.2-6.2,17.8-14.1,27.1-20c13.6-8.6,27.7-8.3,41.9-2.5c14.6,6,29.2,5.4,44,0.9
			c31.1-9.2,56.4-30.9,76.6-63.9c14.7-24,23.9-51.8,27.5-82.6c2.1-18.2,8.2-31.9,19.1-43c20.7-21.1,38.8-46,54.4-74.2
			c17.2-31.2,25.2-66.4,26.3-105c1.1-38.3-5.4-74.1-18.9-107.6c-9.1-22.8-16.4-46.4-19.5-72.3c-2.5-20.8-4.8-41.6-8.1-62.2
			c-1.5-9.3-4.5-18.5-7.9-26.9c-6.1-15.3-12-31.3-20-44.8c-11.3-19-27.9-28.3-44.3-36.9c-19.5-10.3-40.1-14.6-60.5-19.8
			c-13.3-3.3-26.3-9.2-39.3-14.7c-9.6-4.1-13.5-15.1-16.4-28.5c22.3,31,50.5,37.6,79.3,42.2c21.3,3.4,40.9,13.6,60.1,26.3
			c17.9,11.9,29.5,30.9,39.7,53.5c9.9,21.8,15.6,44.7,18.5,69.8c3,26,5.5,52.5,13,77c5.5,18.3,12.5,35.8,18.5,53.8
			c14.4,43.1,15.7,87.6,7.5,133.1c-4.9,27.4-15.5,50.6-28.3,72.4c-11.9,20.4-25.4,38.8-40.4,54.7c-16.7,17.7-24.7,40.7-29.2,68.2
			c-6.3,38.6-20.5,71.2-43.1,97.2c-20.1,23.2-43.2,35.9-68.6,41.7c-13,3-26-0.1-38.8-4.5c-15.8-5.4-30.6-1.4-44.6,9.3
			c-3.4,2.6-6.6,5.4-9.8,8.2c-8.8,8-18.1,11.6-29.1,10.5c-17.7-1.8-37.5,23.8-38,47.8c-0.3,16.6-3.4,32.2-8.2,47.2
			c-7.5,23.8-2.6,46,4.8,67.4c3,8.8,5.2,16.9,4.6,26.4c-0.5,8.8-0.9,17.5-1.3,26.3h5.5c0.8-8.3,1.5-16.5,2.3-24.8
			c1.3-13.8-2.7-25.8-6.9-37.9c-2.1-6.1-4.2-12.3-5.7-18.7c-2.1-9.5-2.5-19.1,0.4-28.7c5.8-18.9,9-38.5,9.9-59
			c0.8-18.8,15.6-38,29.3-36.6c14.2,1.4,25.4-5.8,37-15.3c16.1-13.2,33.5-20.3,52.7-13.4c23.4,8.4,46.2,5.8,68.2-8.6
			c9-5.9,18.2-11.3,28-17.4l35.3-49.5c2.6-5.2,5.2-10.6,7.6-16.1c9.4-21.6,13.6-45.9,17.9-70c2.9-16.3,10.4-28.3,19.6-38.7
			c7.5-8.4,15.4-16.3,22.1-25.9c10.1-14.6,19.6-30.1,28.8-45.8c5.8-10,11.4-20.5,15.5-31.8c6.6-18,10.4-37.4,11.9-57.5
			c3.5-44.5-1.4-87.3-17.1-126.7c-13-32.9-22-67.2-24.8-104.3c-1.6-20.6-4.7-40.7-10-60.1c-0.4-1.6-1.1-3.2-1.8-4.6
			c-3.4-7.3-7.3-14.2-10.1-21.9c-6.2-16.5-13.7-31.2-25.2-42c-18-16.9-38-27.4-59.1-33.9c-17.6-5.5-35.4-9.3-53-14.8
			c-8.4-2.6-16.8-6.2-24.4-11.6c-12.8-9.1-17.1-26.3-18.8-44.3c-0.9-9.2-3.4-16.6-8.6-21.5c-5.4-5.1-11.2-10.2-17.4-12.6
			c-10.4-4.1-21.1-6.8-31.8-8.8c-18.7-3.4-35.9-10.9-50-28.6c-12-15.1-18.8-32.8-11.4-55.7c2.5-7.6,4.8-15.4,7.2-23.1
			c-5.2-2.2-7.8,0.9-10.4,6.6c-12.8,28.5-8.4,50.8,5.2,73.3c14,23.1,33.6,33.4,54.9,38.2c11.8,2.6,23.7,4.3,35.4,7.6
			c13.1,3.7,22.2,19.5,21.3,34.6c-2-4.2-3.8-8.9-6.3-12.8c-7.1-11.4-16.8-16.9-27.2-19.9c-11.9-3.5-23.9-6.1-35.8-9.5
			c-16.7-4.8-32.3-13.5-44.1-30.7c-14.4-21-20.1-40.1-10.9-66.8c2.3-6.7,4.3-13.6,6.4-20.5c-6.7-2.4-11.4-0.6-13.6,8.7
			c-0.2,1-1.1,1.8-1.7,2.7c-1.6,6.9-3.7,13.6-4.5,20.6c-3.6,29.4,6.5,51.3,21.5,70.2c16.5,20.7,37.1,27.9,58.3,32.9
			c8.3,2,16.8,3.5,25.1,5.6c13.6,3.3,23.5,16,25.2,33c-10.8-25.1-29.1-29.2-47.1-34.3c-14.7-4.2-29.8-7.7-43.7-15.3
			c-17.7-9.5-31.8-26.7-39.2-51.4c-6.4-21.1-5.1-42,4.3-61.4c0.8-3.8,1.5-7.6,2.4-11.7c-1.8-0.1-3.2-0.3-4.7-0.3
			c-1.7,0-3.3-0.3-5,0.1c-1.1,0.3-2.6,1-3.1,2.1c-9.6,21.7-13.8,45.1-7,69.1c13.8,49.1,42.1,73.2,79.1,81.3
			c12.7,2.8,25.5,5.6,37.9,10c9.2,3.2,14.9,12.7,17.2,23.6c-6.1-5.8-12.1-14.2-19.5-18.1c-11-5.9-22.9-8.7-34.4-12.8
			c-12.2-4.3-25.1-6.6-36.6-13.3c-18.3-10.6-32.8-27.9-42.6-52.5c-8-20.3-9.4-40.8-4.3-62.4c2.1-8.8,4.6-17.6,7.5-28.7
			c-3.7,1.8-7.3,2.1-7.9,4.1c-3.7,12-8.4,24-9.6,36.6c-3.1,31.9,5.8,59.1,22.1,81.7c17.3,24,38.4,38.2,62.9,43.3
			c11.6,2.5,23.2,5.8,34.7,9.1c13.4,3.8,25.9,24.2,23.5,39.9c-0.9-2.6-1.8-5.3-2.9-7.8c-6.8-17-18.4-24.7-31.5-28.8
			c-10.6-3.3-21.3-5.8-31.9-8.9c-32.3-9.5-58.2-30.9-74.4-71.8c-7.4-18.7-9.2-38-6.2-58.2c1.8-12.4,5-24.5,7.7-37.4
			c-3,0-5.9-0.2-8.8,0.1c-1,0.1-2.4,1.4-2.8,2.6c-8.8,26.5-12.6,54.2-5.3,81.9c11.8,45,35.5,74.8,68.4,90.7
			c8.8,4.3,18.1,6.9,27.2,9.6c9.7,2.9,19.6,4.6,29.2,7.8c13.3,4.4,21.9,17.8,22.1,34.1c-5.9-16.5-15.6-25-27.2-29.9
			c-5.3-2.2-10.7-3.4-16.2-4.8c-29.5-7.6-58-17.8-80.6-47.9c-26.6-35.5-38.6-82-24.5-130.6c1.2-4.3,2.1-8.7,3.5-14.3
			c-4.3,1.9-8.7-3-11,4.1c-9.1,28.7-11.5,58.3-4.3,88.1c9.4,38.9,28.7,67.7,54.4,87.6c19.2,14.9,41.1,19.9,62.7,25.1
			c10.4,2.5,20.6,5.5,28.7,15.8c5,6.4,7.7,14.6,6.8,21.9c-6.3-16.8-17-25.5-29.8-29.8c-10.7-3.6-21.6-6.3-32.4-9.5
			c-36.9-11.2-66.3-36.7-85.8-82.2c-12.7-29.6-15.8-60.5-9.7-93.5c1.7-8.9,3.7-17.8,5.5-26.7c-7.5-1.4-7.5-1.4-9.1,4.1
			c-8.3,28.3-10.4,57.5-4.6,87c8.8,44.6,30.1,76.5,58.2,100.1c19.1,16,41.1,21.5,62.8,27.5c9.9,2.8,20,4.3,28.6,12.5
			c7.8,7.4,11.1,17.8,11.2,29.1c-4-6.4-7.6-14.9-12.9-19.7c-6.7-6.1-14.6-10.4-22.4-13.5c-11.4-4.6-23.3-7.4-34.9-11.3
			c-39.7-13.4-68.8-45.1-87.5-94.5c-10.7-28.1-13.5-57.6-8.6-88.4c1.8-11.1,4.4-22,6.6-33.2h-9.7c-1.3,5.6-2.5,10.8-3.7,16.1
			c-7.1,30.7-7.5,62,1,91.7c17.5,61,49.1,102,96.4,118.4c14.6,5,29.4,9,44,14.2c15.6,5.6,24.2,19.8,24.4,40.2
			c-6.5-21.8-19-31.8-34.2-36.7c-2.5-0.8-5.1-1.1-7.6-2.1c-19.8-8.2-40.7-13.6-59.2-25.6c-26.2-17-46-45.1-60-80.5
			c-12.4-31.3-16.8-64-12.3-98.8c1.6-12.4,4.3-24.5,6.8-38.6c-3.7,3.5-8.8-2.8-10,5.1c-2.9,19.3-6.9,38.7-7.6,58.3
			c-1.4,42.3,10.9,79.3,30.1,111.3c15,25.2,32.9,47,55.9,58.4c17.1,8.5,34.6,15.3,52,22.3c5.5,2.2,11.7,1.7,17,4.3
			c16.1,7.8,22.7,19.5,23.3,45.1c-0.8-1.8-1.8-3.5-2.2-5.4c-3.1-15.6-10.6-25.8-21.2-31.5c-7.1-3.8-14.8-6.1-22.3-8.4
			c-21.4-6.5-43.1-13.1-62.1-28.3c-26.2-20.9-46.8-49.7-61-86.9c-12.7-33.3-17.5-68-12.9-104.8c1.6-12.7,4.2-25.1,6.3-37.5
			c-6.2-2.4-9.9-0.2-10.5,8.8c-0.1,1.2-0.5,2.4-0.8,3.6c-9,40.4-7.8,80.4,4,119.4c13.3,44.1,36.3,77.5,65.2,103.3
			c17.4,15.6,37.9,21.2,57.7,28.9c10.4,4.1,21.2,6.6,31.5,11.3c14.1,6.4,21.2,21.5,19.7,41.2c-2.6-16-9.4-26-18.8-32.3
			c-5.6-3.7-11.6-6.2-17.7-8.5c-10.1-3.8-20.5-6.4-30.5-10.4c-15.9-6.3-32-12.4-45.8-25.4c-24.1-22.9-44.7-50.2-58.6-86.4
			c-15.6-40.4-20.4-82.3-13.2-126.7c1.5-9,3.2-17.9,4.9-27.3h-9.9c-5.7,26-9.1,52.2-8,79.4c1.6,40.5,13.6,75.5,30,108.4
			c8.6,17.3,20,30.7,31.5,43.9c11.4,13.1,22.2,27.2,37.5,32.7c16.2,5.8,31.9,13.6,47.9,20.1c7.4,3,15,4.9,22.5,7.6
			c13.7,4.9,22,20.8,20.6,41.7c-6.9-28.6-23.2-36.4-41.1-41.1c-0.9-0.2-1.8-0.4-2.7-0.7c-23.9-7.5-47.9-15.7-68.8-33.7
			c-29.2-25.1-52.1-58.7-67.3-101.4c-12.3-34.6-17.5-70.8-14-108.9c1.5-16.1,4.5-31.9,6.8-48.2c-3.4,1.4-8.8-4.2-10,4.2
			c-2.8,20.9-6.9,42-7,63C983.4-82,1004.5-26.8,1040.2,19c19.9,25.5,42.2,45.2,68.9,54.7c14.9,5.3,29.8,11.3,44.7,16.4
			c9.3,3.1,17.6,8.1,23,19.1c2.7,5.5,3.8,12.5,5.6,18.8c-0.5,0.3-1,0.5-1.5,0.8c-11.8-22.7-17.3-28.3-34.3-34.1
			c-8.9-3.1-18-5.5-26.8-8.8c-22.7-8.4-45-18.5-63.7-38.5c-20.6-22-39.1-46.6-52.8-78c-22.4-51.3-30-105.1-20.2-163.3
			c1.2-7.5,2.5-14.9,3.8-22.8h-9c-0.9,5.3-1.8,10.4-2.7,15.5c-14.7,81.7,2.8,152.2,41.4,214.5c9.3,15,21.1,27,32,40.2
			c10.7,13.1,22.6,24.1,36.4,30c14.8,6.3,29.7,11.5,44.7,17.1c12.2,4.6,24.9,7.1,35.2,18.7c7,7.9,9.9,15.3,9.2,28.7
			c-9.1-28.2-27.5-36.1-46.3-40.9c-23.3-5.9-45.4-15.4-65.6-31.9c-28.6-23.4-52.2-54.1-69.7-93.5C972.3-64,962-112.6,966.5-166.1
			c1.4-16.9,4.4-33.5,6.6-50.2c-10-2-10-2-12,11.4c-0.8,4.9-1.6,9.8-2.3,14.7c-7.2,48.2-3.6,95.2,10.7,140
			c13,40.7,31.7,75.9,56.7,105.2c20.8,24.3,43.5,42.4,69.9,52.3c16.1,6,32.2,12.5,48.3,19c14.9,6,22.6,19.4,22.2,38.1
			c-0.2,0-0.4,0.1-0.5,0c-0.4-0.5-0.8-1-1.1-1.6c-6.7-16.3-17-26-30-30.8c-9.2-3.4-18.5-6.5-27.8-9.9c-20.5-7.5-40.7-16.8-58.6-32.4
			c-28.1-24.4-51.5-55.4-69.2-94.6c-18.9-41.9-29.5-86.7-30.1-135.8c-0.3-25.8,3.9-50.8,8.6-76h-13c-2.1,22.6-5.6,45.1-6.2,67.8
			C936.9-81.7,954-22.4,984.3,29.3c19.3,32.9,41.8,62.2,70.8,79.7c15.1,9.1,30.5,17.8,46,25.2c10.7,5.1,22.1,7.1,33,11.8
			c13.5,5.9,22.7,15.4,23.6,36.7c0.9,20.3,8.9,35.2,21.9,44.9c17.6,13.2,36.9,17.9,56.6,21.4c14.4,2.5,28.7,5.7,43.1,8.8
			c4.8,1,6.2,4.2,4.1,11.1c-7.8,26.2-6.3,51.8,3.8,76.6c3.3,8.1,6.2,16.5,9.2,24.9c9.3,25.4-1.9,55.6-18.5,64.9
			c-14.8,8.3-30.3,13.8-45.3,21.3c-3.9,1.9-7.6,5.9-10.5,10.1c-6.3,9.2-5.6,21.8-7.7,33.1c-1.6,9-3.4,20-8.1,25.4
			c-11.7,13.8-25.9,18.5-41.1,10.2c-8.5-4.6-16.7-10.5-25.4-14.2c-11.9-5.1-24.3-9.6-36.6-1.5c-9.8,6.4-19.1,14-29.1,19.8
			l-96.5,80.7c-12.9,17.7-22.6,38.4-28.4,62c-5.1,20.9-9,42.4-13.9,63.4c-5.9,25.1-12.7,49.7-18.4,74.8
			C911.9,842.9,910.6,865.8,914.8,889.3z"/>
	</g>
	<g>
		<path class="st7" d="M1204,717c-11.6,7.5-23.1,15.3-34.3,23.6c-8.3,6.2-11.7,7.7-19.9,5c4-2.7,7.2-4.8,10.3-7
			c10.8-7.9,21.5-16.3,32.5-23.7c7.4-5,15.5-4.6,23.7-2.5C1212.2,713.8,1207.8,714.6,1204,717z"/>
	</g>
	<g>
		<path class="st7" d="M1397.8,534.8c-0.2,0.1-0.3,0.3-0.5,0.4c-3.6,6-7.3,12-10.9,18c-5.9,9.7-9.3,21-10.8,33.3
			c-7.2,59-30.7,100.9-71.1,124.7c-12.2,7.2-24.6,13.5-38.2,13.2c-1.9,0-3.8-0.6-5.5-0.9c11.2-4.2,22.6-7.2,33.3-12.8
			c42.3-22.1,68.8-63.3,76.1-124.6c2.9-24.4,13.7-38.3,27.1-50.9c1.4-2.3,2.8-4.6,4.2-6.9c0.5,0.6,1,1.2,1.6,1.7
			C1401.3,531.6,1399.5,533.1,1397.8,534.8z"/>
	</g>
	<g>
		<path class="st7" d="M1261.5,17.9c17.2,15.5,37,20.6,56.9,24c17.8,3.1,35.4,7.1,51.9,16.9c9.6,5.7,18.7,12.8,27.7,20
			c9.3,7.4,13.7,20.5,19.3,32.3c11.7,24.5,16.7,51.5,18.2,80.2c1.8,34,9.4,65.6,21.7,95.4c17.1,41.4,20.9,85.6,12,131.6
			c-4.4,22.9-12.4,43.2-24.7,60.3c-6,8.3-11.7,17.2-18.5,24.7c2.4-3.7,4.7-7.7,7.3-11.1c41.4-52.8,44.6-139,19.8-200.6
			c-14.3-35.6-21.4-72.6-22.6-112.6c-0.7-21.7-8.2-40.8-14.5-60.2c-9.4-29.4-27.8-43.7-48.3-54.7c-19.1-10.3-39.3-14.5-59.4-19.4
			c-14.1-3.4-27.9-8.7-41.6-14.6c-9.3-3.9-15.6-15.1-17.1-25.7C1253.4,8.8,1257.1,14,1261.5,17.9z"/>
	</g>
	<g>
		<path class="st7" d="M1253.8,30.6c10.7,10.4,23.3,14.9,35.8,18.7c11.3,3.4,22.8,5.3,34.3,7.8c23.3,5,45.5,14.7,65.4,32.3
			c3.8,3.3,7.3,7.9,9.8,13c14,28,25.5,57.3,25.8,92.7c0.3,34.1,8.2,65.3,20.7,94.8c16.7,39.5,20,82.1,12.2,125.9
			c-5.6,31.5-19.5,56.8-36.9,78.3c-10.5,13-21.1,26-32.5,37.2c-14,13.6-21.7,31.1-24.4,53.9c-4.1,33.6-14.5,62.9-33.7,85.7
			c-14.6,17.4-31.4,28.9-49.9,36.9c-10.1,4.4-20.1,5.2-30.3,3.3c-1.5-0.3-3-0.9-4.3-1.3c10.9-2.9,22-4.3,32.3-8.8
			c40.1-17.4,67.7-52,78.3-108.9c1.3-6.8,2.5-13.6,3.2-20.5c1.5-15.1,8-25.2,16.9-33.6c19.2-18.3,37.6-37.8,53.1-61.9
			c15.8-24.6,23.4-53.8,25.5-86.3c2.3-37.3-4.3-71.6-18.3-103.3c-12.3-27.8-15.9-58.3-17.1-89.9c-1.4-37.4-10.9-70.7-30.4-97.2
			c-10.1-13.7-23.9-20.9-37.7-25.2c-22.3-7-44.9-11.6-67.2-18.3c-9.6-2.9-19-7.9-28.1-13.1c-7.8-4.5-11.2-14.4-13.8-26.1
			C1246.6,21.8,1249.9,26.8,1253.8,30.6z"/>
	</g>
	<g>
		<path class="st7" d="M1319.2,352.2c-4.9-12.8-10.2-25.8-13-39.5c-2.1-10-0.4-21.4-0.4-32.2c0.4,0,0.7,0.1,1,0.2
			c1.9,12.4,2.8,25.2,5.9,37c3.6,13.8,8.7,27,13.8,40c11.4,29.1,4.3,55-8.3,75.7c-0.8,1.4-2.2,2.2-3.9,3.7
			c3.5-9.6,7.3-17.9,9.6-26.9C1329,390.1,1326.4,370.9,1319.2,352.2z"/>
	</g>
	<g>
		<path class="st7" d="M1332.4,333.3c3.6,9.3,6.8,18.9,10.2,28.3c9.9,27.6-1.8,64.3-13.7,78.4c-0.6,0.8-1.4,1.3-1.9,1.8
			c3.7-11,7.7-21.7,10.8-32.9c4.6-16.6,3.7-33.5-1.3-49.7c-3.5-11.5-8-22.6-12.5-33.4c-7.2-17.1-7.4-35.3-5.3-53.9
			c0.5-4,1.4-7.9,2.8-12c0.1,1.5,0.5,3,0.4,4.5C1320.2,288.9,1324.1,311.7,1332.4,333.3z"/>
	</g>
	<g>
		<path class="st7" d="M1349.2,353.1c-3.5-11.3-7.5-22.3-11.9-33c-7-17.3-7.4-35.6-5.2-54.6c0.6,6.8,0.9,13.6,1.8,20.3
			c2.3,17,7.9,32.2,14.2,47c7.4,17.6,13,35.9,11.3,57c-1.7,21.2-8,39.1-19.1,54.3c3.9-12.6,8.1-24.5,11.3-36.8
			C1356.6,388.9,1354.6,370.6,1349.2,353.1z"/>
	</g>
	<g>
		<path class="st7" d="M1339.5,479.4c0.2,0.4,0.4,0.8,0.7,1.1c-8.4,7-16.8,14.1-25.3,21c-8.5,6.9-13.6,17.1-15.9,30.1
			c-2.6,14.5-4.4,29.5-8.2,43.4c-7,25.8-22.1,40.5-40.3,50.1c-12.8,6.7-25.8,11.2-41.2,5.4c8.2-1.7,15-2.7,21.6-4.6
			c22.5-6.5,41.2-20.6,52.5-49.3c5.8-14.6,8.6-30.3,9.7-46.7c0.8-12.3,5.2-20.7,13.5-26.3C1317.7,496.1,1328.5,487.5,1339.5,479.4z"
			/>
	</g>
	<g>
		<path class="st7" d="M1214.8,644.4c-0.5-0.2-1.1-0.4-1.6-0.7c-0.3-0.2-0.5-0.7-1-1.5c2.7,0,5.1-0.2,7.6,0
			c7.8,0.6,15.2,1.2,22.7-4.3c5.8-4.3,13-4.8,19.1-8.6c25.1-15.8,39.7-43.3,43.3-79.9c2.2-22.2,8.4-37.7,23.9-45.7
			c2.6-1.4,4.9-4,7.4-6c0.2,0.5,0.4,0.9,0.6,1.4c-4.8,4.6-9.7,8.9-14.2,13.8c-9,9.7-12,23.6-13.6,38.3c-1.9,17-5,33.5-12.1,47.9
			c-11.3,23-27.9,35.7-46.8,43.8C1238.4,647.9,1226.6,649.7,1214.8,644.4z"/>
	</g>
	<g>
		<path class="st7" d="M1226.6,659.8c3.4-0.2,6.8-0.1,10.1-0.8c25.3-5.6,47.7-19.1,64-47c10.4-17.8,16.1-38.8,18-61.4
			c1.4-16.7,7-28.5,18.2-35.7c4.2-2.7,8-6.2,12-9.3c0.2,0.5,0.4,1,0.6,1.5c-1.4,1.5-2.7,3.4-4.3,4.5c-13.2,9.7-19.2,25.5-21.1,45
			c-2.7,28.2-10.2,53.4-26.1,72.7c-15,18.2-32.9,28.8-52.7,33.7C1238.8,664.5,1232.7,663.8,1226.6,659.8z"/>
	</g>
	<g>
		<path class="st7" d="M1334.9,575.3c-6.6,41.5-24.3,72-53.2,88.9c-9.9,5.8-20.6,8.8-31,12.9c-2.1,0.8-4.5,0.4-6.7,0.6
			c-0.1-0.7-0.2-1.3-0.2-2c5.7-2.2,11.4-4.3,17.1-6.6c39.3-15.7,62.5-51.1,70.1-105.8c0.7-4.9,1.6-9.8,2.2-14.7
			c1.4-13.3,9.1-18.9,16.6-24.9C1339.1,538.1,1337.9,556.9,1334.9,575.3z"/>
	</g>
	<g>
		<path class="st7" d="M1267.6,84.2c12.5,4,25.3,6.5,38.1,8.5c22.3,3.4,43,13,62.3,28.1c4,3.1,8.1,7.7,10.4,13
			c9.7,21.5,17.9,43.7,17.8,70c-0.2,38.6,8.6,73.4,22,107.3c18.2,46.1,17.3,92.9-3.5,137.9c-2.9,6.2-6.8,11.5-10.3,17.2
			c-0.5-0.5-1-1.1-1.5-1.6c9.9-14.9,16-32.5,19.3-51.8c6.3-37,3.4-73-10.9-105.4c-14-31.7-19-65.2-18.5-101.2
			c0.3-22.3-6-42.2-13.9-61c-6.9-16.5-19.1-24.5-31.5-31.4c-19.6-10.8-40.4-15.3-61.2-18.9c-14.9-2.6-29.3-7.3-43-15.5
			c-8.9-5.4-14.7-14.3-16.2-28.1C1237,70.5,1251.7,79.1,1267.6,84.2z"/>
	</g>
	<g>
		<path class="st7" d="M1232,82c11,10.7,23.4,16.9,36.5,20.1c17.9,4.2,36.1,6.4,53.7,12.4c13.2,4.5,25.8,12.9,38.3,20.8
			c4.1,2.6,7.5,8.8,10,14.4c9.9,22.6,14.9,47,14.4,73.7c-0.5,28.7,5.7,55.3,16.2,80.2c9,21.2,16,43.4,16.1,68.7
			c0.1,26.5-4.2,51.4-15.1,73.4c-4.7,9.6-11.1,17.6-16.8,26.4c-0.5-0.6-1-1.2-1.5-1.7c1.7-2.8,3.4-5.7,5.1-8.5
			c15.6-25.3,22.5-54.6,22-87.4c-0.4-26.9-7.5-51-17.5-73.5c-11.5-26.1-13.8-54.3-13-83.9c1-33.7-10.1-73.8-40.9-88
			c-19.3-8.9-39.1-14.3-59.2-17.8c-15.6-2.7-30.8-7.4-45-16.8c-8.9-5.9-14.6-15.4-15.6-25.5C1222.8,72.2,1227.3,77.4,1232,82z"/>
	</g>
	<g>
		<path class="st7" d="M1213.3,81.5c8.6,21.8,24.2,29.8,40,35.4c14.4,5,29.3,6.9,44,9.8c19.1,3.7,37.4,10.8,54.2,23.8
			c2.5,1.9,4.9,4.9,6.3,8.1c8.3,19.2,14.2,39.2,13.9,62.4c-0.2,15.9,0.1,32.5,3,47.7c3.3,16.9,8.9,33.4,15.2,48.7
			c12.5,30.6,16.1,62.4,8.8,95.6c-5.3,24.2-17,43-31.8,58.2c-1.3,1.3-2.6,2.6-4.6,2.8c3.2-3.8,6.5-7.4,9.5-11.4
			c13.4-17.7,20.7-39.5,23.7-64.6c3.9-32.8-2.8-62.4-14.9-89.7c-10.4-23.3-14.5-48.1-12.9-74.8c1.2-19.6-1.9-37.8-7.5-55.6
			c-3.9-12.7-10.7-21.5-19.6-27.3c-20.7-13.6-43-18.7-65.5-22.4c-16.1-2.7-32.1-7.1-46.6-17.3c-5.6-3.9-9.9-11.5-14.3-18.1
			c-1.7-2.6-1.9-7-2.8-10.6C1212.3,82,1212.8,81.8,1213.3,81.5z"/>
	</g>
	<g>
		<path class="st7" d="M1204,87.1c5.5,25.5,19.8,37.9,37.3,43.7c17.8,5.8,36.1,9.2,54.1,13.6c15.8,3.8,31.4,8.7,45.5,19.7
			c3.4,2.6,6.9,6.5,8.8,11c6.1,15,10.4,31,9.9,48.6c-0.7,22.9-0.6,45.9,5.9,67.4c3.9,13.2,9.2,25.6,13.9,38.4
			c13.4,36.2,13.1,71.7-2.3,106.8c-5.8,13.2-14.4,22.5-24,30.6c0.8-1.3,1.4-2.9,2.4-4c31-35.9,34.5-95.7,14.8-141.1
			c-6.9-16-14.4-31.9-14.7-51.3c-0.2-13,0.1-26.1,0.6-39.1c0.7-15.8-2.5-30.3-7.1-44.4c-3.2-9.4-8.8-16-15.6-20.6
			c-16-10.7-33.2-16.6-50.8-19.4c-18.5-3-36.9-5.9-54.5-14.8c-14.5-7.3-23.2-20.5-24.5-42C1203.7,89.3,1203.9,88.2,1204,87.1z"/>
	</g>
	<g>
		<path class="st7" d="M1211.4,132.9c12.7,14.3,28.6,17.7,44.1,21.8c17.9,4.7,36,7.8,53.8,12.5c6.8,1.8,13.2,6.1,19.7,9.5
			c6.9,3.6,10.2,11.1,13.1,20c5.7,17.4,4.2,35.4,4.1,53.3c-0.2,25.9,4.3,49.9,14,72.4c7.2,16.9,13.9,34.4,14.3,54.7
			c0.6,28.3-6.8,52.3-22.4,71.4c2-4.1,4.3-7.9,6.1-12.2c15-35.9,13.8-71.8-0.5-107.5c-2.4-5.9-4.7-11.9-7.2-17.7
			c-7-16.6-8.4-34.5-6.9-53.1c1.3-16.7,2.6-33.3-1.8-49.8c-3.5-13.1-9.6-22.2-18.8-27.9c-17.3-10.7-35.7-15.3-54.4-17.9
			c-17.1-2.4-33.9-6.2-49.9-15.4c-10-5.8-17.3-15-20.3-29.7c-0.3-1.4-0.3-2.8-0.3-3.3C1202.4,120.2,1206.5,127.3,1211.4,132.9z"/>
	</g>
	<g>
		<path class="st7" d="M1233.7,167.9c18.6,4.6,37.5,7.7,56.1,12.6c9.5,2.5,18.7,7.3,27.9,11.4c7.6,3.3,12.5,10,13.9,21.1
			c0.6,4.6,1.6,9.1,1.9,14.1c-3.3-19.7-14.3-27.9-26.6-33.5c-7.8-3.5-15.9-6.6-24-8.5c-15-3.5-30.3-5.2-45.3-9.2
			c-9.5-2.5-18.8-7.2-27.8-12c-10.8-5.7-15.9-18.3-18.9-32.9C1200.5,153.3,1215.9,163.5,1233.7,167.9z"/>
	</g>
	<g>
		<path class="st7" d="M1219.5,182.1c16,5.3,32.5,7.7,48.7,12.1c13.2,3.6,26.5,7.6,39.4,12.8c12.1,4.9,16.8,17.2,15.3,36.3
			c-0.4-0.8-0.8-1.2-0.9-1.7c-1.8-21.9-12.9-29.6-26.8-35.2c-21.2-8.7-43.4-7.2-64.7-13.8c-9.3-2.9-18.5-6.8-27.4-11.5
			c-10.9-5.8-18.8-21.8-19.2-37.9C1191.4,165.1,1204,176.9,1219.5,182.1z"/>
	</g>
	<g>
		<path class="st7" d="M1245.1,208.9c18.6,3.6,37.4,4.4,55.2,13.5c9.2,4.7,10.6,7.5,10.6,21.5c-10.5-21.5-26.7-23.3-41.9-26.8
			c-13.7-3.2-27.9-3.2-41.6-6.5c-10.2-2.5-20.3-7.3-30-12.3c-11.5-5.9-18.1-18-20.3-36.4C1193.1,197.9,1219.1,203.9,1245.1,208.9z"
			/>
	</g>
	<g>
		<path class="st7" d="M1284.7,243.5c-13.9-4.4-28-8.2-42.2-10.1c-19.5-2.6-38.7-6.1-56.5-18c-10.2-6.8-14.7-18.7-16.2-33.5
			c9.2,22,24.4,32,41.2,38c9.9,3.5,20.2,4.6,30.3,7.1c17,4.2,33.9,8.2,50.7,13.3c7.1,2.2,7.7,5.3,6.7,14.5
			C1294.1,251,1289.8,245.1,1284.7,243.5z"/>
	</g>
	<g>
		<path class="st7" d="M1302.5,425.7c10.4-22.1,10.4-44.7,1.1-67.4c-2.9-7.2-5.9-14.4-8.7-21.8c-5.1-13.4-4.8-27.2-1-41
			c0.8,25.4,10.2,46.4,18.3,67.8c9.8,25.8,3.1,53.8-11.1,70.6c-1.2,1.4-2.7,2.4-4.7,2.7C1298.5,433,1300.7,429.5,1302.5,425.7z"/>
	</g>
	<g>
		<path class="st7" d="M1298.4,494.2c-1.4,2.3-2,3.6-2.8,4.6c-7.4,10.2-10.9,22.8-12.2,36.9c-4.4,46.9-21.8,67.3-52.7,78.7
			c-5.6,2.1-11.5,2.5-17.2,3.7c0-0.8-0.1-1.7-0.2-2.5c7.7-3.1,15.5-5.7,23.1-9.3c24.6-11.4,37.2-36.6,42.4-70
			c0.5-3.4,0.8-6.9,1.2-10.4C1282,506.5,1283.5,503.9,1298.4,494.2z"/>
	</g>
	<g>
		<path class="st7" d="M1280.1,491.6c-10,15.3-9.1,35.1-12.4,53c-4.5,24-15.6,40-32.7,48.7c-9.2,4.7-18.3,8.4-28.2,7.8
			c-1.4-0.1-2.8-0.4-4.3-1.9c5.9-1.6,11.9-3.1,17.8-5c26.3-8.4,39.7-32.7,44.4-67.6c0.8-6.4,1.6-12.8,2.6-19.2
			C1268.7,498.7,1273.1,493.6,1280.1,491.6z"/>
	</g>
	<g>
		<path class="st7" d="M1268.7,484.4c-1.6,2.9-3.1,5.3-4.4,7.9c-5.2,10.3-7.2,21.8-8.3,34.3c-2,22.7-9.3,42-25.8,51
			c-8.8,4.8-18.3,7-27.5,10.1c-1.8,0.6-3.7-0.1-5.6-1.6c6-2,12-3.8,17.9-6.1c22-8.4,33.4-29,37.3-62.2c0.6-4.7,0.7-9.5,1.1-14.2
			C1254.2,492.8,1259.5,485.9,1268.7,484.4z"/>
	</g>
	<g>
		<path class="st7" d="M1255.3,476.5c-2.5,5.2-5.2,9.4-6.8,14.3c-2,5.8-4.1,12.2-4.3,18.4c-1.8,44-17.9,58-44.4,63.2
			c-2.7,0.5-5.6,0.1-8.4,0.1c0-0.7,0-1.4,0-2.2c3.5-1,7.1-2.3,10.7-3c20.1-3.9,30.7-21.5,35.7-46.6c1.8-8.9,2.2-18.2,3.5-27.3
			C1242.6,483.2,1247.6,478.4,1255.3,476.5z"/>
	</g>
	<g>
		<path class="st7" d="M1190.5,551.6c24.4-3.8,32.6-28.9,34.3-52.8c0.3-4.5,0.5-9,1.1-13.4c1.6-11.7,5.6-16,14.4-16.8
			c-3,8.4-6.5,16.3-8.5,24.9c-1.6,6.7-1,14.3-2,21.4c-2.1,14.7-7.4,26.8-17.6,33.5c-10.7,6.9-21.7,11.3-33.7,6
			C1182.5,553.4,1186.5,552.2,1190.5,551.6z"/>
	</g>
</g>
<path d="M1287.3,827c-1.7-0.8-3.2-1.8-4.3-2.8l1.2-0.6c0.8,0.8,2.2,1.7,3.4,2.3c1.9,0.9,3.4,0.7,3.8-0.2c1.1-2.3-6.3-5.2-4.9-8.2
	c0.7-1.5,3.5-1.4,6.6,0c1.6,0.8,2.9,1.7,3.8,2.6l-1.2,0.6c-0.7-0.7-1.7-1.5-2.9-2c-1.8-0.8-3.2-0.8-3.6,0.1c-1.1,2.2,6.4,5.2,5,8.3
	C1293.5,828.5,1290.6,828.6,1287.3,827z"/>
<path d="M1311.3,833.3c-3.1-0.5-4.2-1.7-4-3.3l1.1-7.1l-2.1-0.3l0.2-1.1l2.1,0.3l0.4-2.5l3.1-0.1l-0.4,3l3.2,0.5l-0.2,1.1l-3.2-0.5
	l-1.1,7.1c-0.1,0.9,0.4,1.5,1.9,1.7c0.3,0.1,0.7,0.1,1.1,0.1l-0.2,1.1C1312.6,833.4,1311.9,833.4,1311.3,833.3z"/>
<path d="M1326.7,834.2c-1.2,0-2.1-0.6-2.1-1.2c0-0.6,1-1.1,2.2-1c1.2,0,2.1,0.5,2.1,1.2C1328.9,833.8,1327.9,834.2,1326.7,834.2z"/>
<path d="M1364.5,836l0.6-7.8c0.1-1.3-1.1-2.1-3.8-2.3c-1-0.1-2.1,0-3,0.1l-0.7,9.5l-3.1-0.2l0.7-10.2c1.9-0.4,4-0.5,6.1-0.3
	c4.5,0.3,6.9,1.6,6.8,3.7l-0.6,7.8L1364.5,836z"/>
<path d="M1382.1,841.9l-3.3-0.4l3.6-3.9l-4.7-11.3l3.2,0.4l2.6,7.8c0.2,0.7,0.3,1.6,0.3,1.7l0.1,0c0.1-0.1,0.4-0.8,0.8-1.6l4.8-7
	l2.8,0.3L1382.1,841.9z"/>
<path d="M1423,840.7l-0.3-11.6c-1.5,0.5-3.9,0.9-5.8,1l-0.4-1c3.3-0.3,6.3-1.3,7.1-2.3l2.1-0.1l0.4,13.8L1423,840.7z"/>
<path d="M1447.5,838.7c-5,0.6-7.3-2.1-7.8-6.1c-0.5-4,1-7.3,6-7.9c5-0.6,7.3,2.1,7.8,6.1C1454,834.8,1452.4,838.1,1447.5,838.7z
	 M1445.8,825.8c-3.1,0.4-3.5,3.2-3.1,6.4s1.5,5.8,4.7,5.4s3.5-3.2,3.1-6.4C1450,828,1448.9,825.4,1445.8,825.8z"/>
<path d="M1471,835.3c-5,0.7-7.3-2.1-7.8-6.1c-0.5-4,1-7.3,5.9-8c5-0.7,7.3,2.1,7.8,6.1C1477.5,831.3,1476,834.6,1471,835.3z
	 M1469.3,822.3c-3.1,0.4-3.5,3.2-3.1,6.4c0.4,3.2,1.6,5.8,4.7,5.4s3.5-3.2,3.1-6.4C1473.5,824.5,1472.4,821.9,1469.3,822.3z"/>
<path d="M1494.3,833c-5,0.2-7.1-2.8-7.2-6.8c-0.2-4,1.7-7.2,6.7-7.4c5-0.2,7.1,2.8,7.2,6.8C1501.2,829.6,1499.4,832.8,1494.3,833z
	 M1493.8,819.9c-3.1,0.1-3.8,2.9-3.7,6.1c0.1,3.2,1,5.9,4.2,5.8c3.1-0.1,3.8-2.9,3.6-6.1C1497.8,822.5,1497,819.8,1493.8,819.9z"/>
<path d="M1516.1,833.3c-2-0.1-4.1-0.4-5.4-0.9l0.9-1.1c1,0.4,2.7,0.6,4.3,0.7c3.2,0.1,5.1-1.2,5.1-2.8c0.1-1.8-2.4-3-6.4-3.1l0-1
	c3.4,0,5.9-1,5.9-2.4c0-1.3-1.5-2.3-4.3-2.4c-1.4,0-2.8,0.2-3.8,0.4l-0.8-1.1c1.3-0.4,3.2-0.6,5.3-0.5c4.1,0.1,6.7,1.6,6.7,3.4
	c-0.1,1.7-2.5,2.6-4.4,3l0,0c2.1,0.5,5,1.6,5,3.7C1524.2,831.6,1521,833.5,1516.1,833.3z"/>
<g>
	<path d="M13.2,831.5c-4-3.7-5.8-7.2-5.3-11c0.5-3.8,3.1-6.7,7.9-9.3l1.8,0.8c-3.9,2.4-6,5.5-6.4,8.9c-0.4,3.4,0.8,6.9,4,10.2
		L13.2,831.5z"/>
	<path d="M26.7,823.6c0.2,2.2,1.9,3.7,5.2,3.8c1.6,0,3.2-0.1,4.5-0.5l0.7,1.1c-1.6,0.5-3.5,0.7-5.5,0.6c-5.1-0.1-8-2.3-7.9-5.8
		c0.1-3.1,2.6-5.5,7.4-5.4c4.9,0.1,6.8,2.4,6.7,5.3l0,0.3L26.7,823.6z M31,818.5c-2.9-0.1-4.3,2-4.4,4.2l8.3-0.5
		C35,820.3,34,818.6,31,818.5z"/>
	<path d="M58.4,826.5l-4.5-3.8l-0.1,0l-3.5,5l-3.1,0.4l4.9-6.3l-5.7-4.4l3.1-0.4l4.1,3.4l0.1,0l3-4.4l2.9-0.4l-4.2,5.7l6.4,4.9
		L58.4,826.5z"/>
	<path d="M81.7,820.3l-2.4-7.4c-0.4-1.2-1.6-1.6-4-0.8c-1.1,0.4-2.2,0.9-3,1.6l2.9,8.8l-2.9,1l-4.9-14.9l2.9-1l1.7,5.2
		c0.9-0.7,2.2-1.4,3.6-1.9c3.7-1.2,6.1-0.8,6.7,1.1l2.4,7.4L81.7,820.3z"/>
	<path d="M91.2,802.1c-0.9,0.5-1.8,0.5-2.1,0.1c-0.3-0.5,0.3-1.2,1.1-1.7c0.9-0.5,1.8-0.5,2.1-0.1C92.6,800.9,92.1,801.7,91.2,802.1
		z M96.1,814.2l-5.2-9.4l2.7-1.5l5.2,9.4L96.1,814.2z"/>
	<path d="M113.7,799.3c-1.1,1.5-2.4,2.8-3.7,3.8l-12.3-8.9l1.8-2.5l4.2,3c0.3-0.8,0.8-1.8,1.5-2.7c3-4.2,6.3-4.6,8.8-2.8
		C116.5,791.2,117,794.7,113.7,799.3z M105.8,793c-0.6,0.8-1,1.6-1.3,2.4l6.8,4.9c0.6-0.4,1.1-1.1,1.6-1.7c2.2-3,1.3-5.3-0.7-6.8
		C110.3,790.5,107.8,790.3,105.8,793z"/>
	<path d="M114.3,774.4c-0.6,0.8-1.4,1.2-1.9,0.9c-0.4-0.3-0.2-1.2,0.4-2c0.6-0.8,1.4-1.2,1.9-0.9
		C115.1,772.7,114.9,773.6,114.3,774.4z M123.6,783.5l-8.5-6.6l1.9-2.4l8.5,6.6L123.6,783.5z"/>
	<path d="M136.6,770.8c-2.5,2-4.1,1.9-5.1,0.7l-4.5-5.6l-1.7,1.3l-0.7-0.8l1.7-1.3l-1.6-2l2.1-2.3l1.9,2.4l2.5-2l0.7,0.8l-2.5,2
		l4.5,5.6c0.5,0.7,1.3,0.7,2.5-0.2c0.3-0.2,0.6-0.5,0.8-0.8l0.7,0.9C137.6,770,137.1,770.4,136.6,770.8z"/>
	<path d="M141.9,752.8c-0.9,0.4-1.9,0.3-2-0.2c-0.2-0.5,0.4-1.2,1.3-1.6c0.9-0.4,1.9-0.3,2,0.2C143.4,751.7,142.8,752.4,141.9,752.8
		z M145.3,765.3l-4.1-10l2.8-1.2l4.1,10L145.3,765.3z"/>
	<path d="M163.9,760.1c-5,0.6-7.3-1.6-7.7-4.6s1.3-5.8,6.3-6.5c5-0.6,7.3,1.7,7.7,4.7S168.9,759.5,163.9,760.1z M162.6,750.1
		c-3.2,0.4-3.6,2.8-3.3,4.9c0.3,2.1,1.3,4.3,4.5,3.9c3.2-0.4,3.6-2.8,3.3-4.9C166.8,751.9,165.8,749.7,162.6,750.1z"/>
	<path d="M190.9,758l-0.6-7.8c-0.1-1.3-1.4-2-4.1-1.7c-1,0.1-2,0.3-3,0.6l0.7,9.5l-3.1,0.2l-0.8-10.2c1.8-0.6,3.9-1.1,6-1.2
		c4.5-0.4,7.1,0.5,7.2,2.6l0.6,7.8L190.9,758z"/>
	<path d="M205.8,760.8l-2-0.2c3-3.5,4.1-7.1,3.5-10.5c-0.6-3.4-2.9-6.3-7-8.5l1.8-0.9c4.9,2.3,7.7,5.1,8.4,8.8
		C211.1,753.3,209.5,756.9,205.8,760.8z"/>
	<path d="M255.1,718.7l-6.6-4.1c-1.1-0.7-2.4,0-3.8,2.2c-0.6,0.9-1,1.8-1.3,2.7l8.1,5.1l-1.6,2.6l-8.7-5.4c0.5-1.8,1.4-3.7,2.6-5.6
		c2.4-3.8,4.6-5.4,6.4-4.3l6.6,4.1L255.1,718.7z"/>
	<path d="M259.8,702.4c1.9,1.2,4.1,0.7,6.2-1.9c1-1.3,1.8-2.6,2.3-3.9l1.3,0.1c-0.6,1.6-1.5,3.2-2.8,4.8c-3.1,4-6.6,5-9.4,2.8
		c-2.4-1.9-2.9-5.4,0.1-9.1c3-3.9,6-4,8.3-2.2l0.2,0.2L259.8,702.4z M258.2,695.8c-1.8,2.3-1,4.6,0.7,6l4.6-6.9
		C262,693.7,260,693.5,258.2,695.8z"/>
	<path d="M290.5,680l-2.2,1.6l-7-4.1c-0.5-0.3-1.1-0.8-1.3-1l-0.1,0c0.1,0.2,0.4,0.9,0.5,1.6l1.6,7.9l-2.2,1.6l-10.4-5.8l2.6-1.8
		l6.7,4.3c0.7,0.4,1.1,0.9,1.3,1.1l0.1,0c-0.1-0.3-0.4-0.8-0.5-1.7l-1.6-8l2.2-1.6l7,4.1c0.6,0.4,1.1,0.9,1.3,1.1l0.1,0
		c-0.1-0.2-0.4-1-0.5-1.6l-1.8-7.8l2.3-1.6L290.5,680z"/>
	<path d="M302.4,673.6c-1,0.5-2.1,0.5-2.4,0c-0.3-0.6,0.4-1.4,1.4-2c1-0.5,2.1-0.5,2.4,0C304,672.2,303.4,673.1,302.4,673.6z"/>
	<path d="M329.7,663.1l-2.6,0.8l-5.4-6.1c-0.4-0.5-0.8-1.1-0.9-1.3l-0.1,0c0,0.2,0.1,1,0,1.6l-1,8L317,667l-8.1-8.8l3-0.9l5,6.2
		c0.5,0.6,0.8,1.2,0.9,1.4l0.1,0c0-0.3-0.1-0.9,0-1.7l1-8.1l2.6-0.8l5.3,6.1c0.4,0.5,0.8,1.2,0.9,1.4l0.1,0c0-0.2,0-1.1,0-1.7l0.8-8
		l2.7-0.8L329.7,663.1z"/>
	<path d="M349.1,659.1c-4.2,0.8-7,0.2-7.4-1.9c-0.5-2.5,2.8-4.2,8.9-5.8l-0.1-0.8c-0.2-1.3-1.4-1.8-3.9-1.3c-1.4,0.3-3,0.8-4.2,1.4
		l-1-0.8c1.4-0.8,3.3-1.4,5.1-1.8c4.1-0.8,6.5-0.1,6.9,2l1.4,7C353.4,658,351.3,658.7,349.1,659.1z M350.7,652.4
		c-4.4,1.2-6.5,2.4-6.2,4.3c0.3,1.3,1.8,1.9,4.4,1.4c1-0.2,2-0.5,2.7-0.9L350.7,652.4z"/>
	<path d="M372.3,654.6l-2.7,0.5l-7.9-9.4l3.2-0.6l4.9,6.6c0.4,0.5,0.8,1.3,0.9,1.5l0.1,0c0-0.2,0.1-1,0.3-1.7l2.2-8l2.8-0.5
		L372.3,654.6z"/>
	<path d="M501.2,647.4c-4.6-2.9-7-6-7.3-9.8c-0.2-3.8,1.8-7.2,6-10.6l1.9,0.4c-3.4,3.1-4.9,6.5-4.7,9.9c0.2,3.4,2.1,6.6,5.9,9.3
		L501.2,647.4z"/>
	<path d="M517.9,641.9c-5.9,0.5-8.2-1.8-8.5-4.9c-0.2-2.9,1.9-5.8,7.4-6.2c0.8-0.1,1.9,0,2.6,0l-0.4-5l3-0.2l1.2,15.1
		C521.7,641.3,519.8,641.7,517.9,641.9z M519.5,631.9c-0.7-0.1-1.5-0.1-2.2,0c-3.9,0.3-5,2.6-4.8,4.9c0.2,2.3,1.3,4.4,5.3,4.1
		c0.9-0.1,1.7-0.2,2.4-0.5L519.5,631.9z"/>
	<path d="M540.1,639.8c-4.3,0.5-7-0.4-7.2-2.5c-0.3-2.5,3.2-3.9,9.3-5l-0.1-0.8c-0.1-1.3-1.3-1.9-3.8-1.6c-1.4,0.2-3.1,0.6-4.3,1.1
		l-0.9-0.9c1.5-0.6,3.4-1.1,5.2-1.3c4.2-0.4,6.5,0.5,6.7,2.6l0.8,7.1C544.5,639,542.3,639.6,540.1,639.8z M542.3,633.2
		c-4.5,0.8-6.7,1.8-6.5,3.8c0.1,1.3,1.7,2.1,4.3,1.8c1-0.1,2.1-0.4,2.8-0.6L542.3,633.2z"/>
	<path d="M561.7,637.2c-3.1,0.4-4.5-0.5-4.7-2.1l-0.9-7.1l-2.1,0.3l-0.1-1.1l2.1-0.3l-0.3-2.5l3-0.9l0.4,3l3.2-0.4l0.1,1.1l-3.2,0.4
		l0.9,7.1c0.1,0.9,0.8,1.3,2.3,1.1c0.3,0,0.7-0.1,1.1-0.2l0.1,1.1C563,636.9,562.4,637.1,561.7,637.2z"/>
	<path d="M574.4,630.6c0.6,2.1,2.5,3.3,5.8,2.8c1.6-0.2,3.1-0.7,4.3-1.3l0.8,0.9c-1.5,0.7-3.3,1.3-5.3,1.6c-5,0.8-8.2-0.9-8.7-4.4
		c-0.5-3,1.6-5.9,6.3-6.6c4.9-0.7,7.1,1.2,7.5,4.1l0,0.3L574.4,630.6z M577.8,624.8c-2.9,0.4-3.9,2.7-3.6,4.8l8.1-1.9
		C582,625.9,580.8,624.3,577.8,624.8z"/>
	<path d="M595.7,636.5l-2-0.2c3.1-3.4,4.2-7,3.6-10.4c-0.6-3.4-2.8-6.4-6.9-8.6l1.8-0.9c4.9,2.4,7.6,5.2,8.3,9
		C601.2,629.1,599.5,632.7,595.7,636.5z"/>
	<path d="M648.6,624.5c-5,0.5-7.2-2.3-7.7-6.3c-0.4-4,1.2-7.2,6.2-7.8c5-0.5,7.2,2.3,7.7,6.3C655.2,620.7,653.6,624,648.6,624.5z
		 M647.2,611.5c-3.1,0.3-3.6,3.1-3.3,6.3s1.4,5.8,4.5,5.5c3.1-0.3,3.6-3.1,3.2-6.3S650.3,611.2,647.2,611.5z"/>
	<path d="M670.5,622.5c-2,0.1-4.1,0-5.5-0.3l0.8-1.2c1.1,0.3,2.8,0.4,4.3,0.2c3.2-0.2,4.9-1.7,4.8-3.3c-0.1-1.7-2-3-6.3-2.6
		c-1,0.1-2,0.2-2.8,0.4l0.6-6.9l10.5-0.8l0.1,1.4l-8.5,0.6l-0.3,4.2c0.3-0.1,0.9-0.1,1.6-0.2c5.1-0.4,8.1,1.1,8.3,3.6
		C678.3,620,675.4,622.1,670.5,622.5z"/>
	<path d="M691.2,621.1c-1.2,0.1-2.2-0.4-2.2-1c0-0.6,0.9-1.1,2.1-1.2s2.2,0.4,2.2,1C693.3,620.5,692.4,621.1,691.2,621.1z"/>
	<path d="M710.3,620.5c-5,0.1-7-2.9-7.1-6.9c-0.1-4,1.8-7.1,6.8-7.3s7,2.9,7.1,6.9C717.1,617.3,715.3,620.4,710.3,620.5z
		 M709.9,607.4c-3.1,0.1-3.9,2.8-3.8,6.1c0.1,3.2,0.9,5.9,4.1,5.8c3.1-0.1,3.8-2.8,3.7-6C713.9,610.1,713.1,607.4,709.9,607.4z"/>
	<path d="M739,616.8l0,3.2l-2.8,0l0-3.2l-9.3,0v-1.1l9.3-9.5l2.9,0l0,9.5l2,0v1L739,616.8z M736.3,608c-0.3,0.4-0.7,1-1.2,1.6
		l-5.9,6.2l7.1,0l0-6C736.3,608.9,736.3,608.3,736.3,608L736.3,608z"/>
	<path d="M753.1,620.3c-1.2,0-2.1-0.5-2.1-1.1c0-0.6,1-1.1,2.2-1.1c1.2,0,2.1,0.5,2.1,1.1C755.2,619.9,754.2,620.4,753.1,620.3z"/>
	<path d="M772.3,620.8l0.5-11.6c-1.6,0.4-4,0.6-5.9,0.6l-0.3-1c3.3-0.1,6.3-0.9,7.3-1.8l2.1,0.1l-0.6,13.8L772.3,620.8z"/>
	<path d="M791.2,622l-0.7-1.2c4.2-0.5,7.8-2.2,9.1-4.3c-0.8,0.1-2,0.2-3.2,0.1c-4.6-0.3-7.1-2.2-6.9-4.6c0.2-2.2,2.6-4.1,7.3-3.8
		c4.5,0.3,6.9,2.5,6.6,5.7C803.1,618,798.9,621.1,791.2,622z M796.6,609.3c-2.7-0.2-4,1.2-4.1,2.8c-0.1,1.8,1.2,3.2,4.5,3.5
		c1.1,0.1,2.2,0,3-0.1c0.2-0.6,0.4-1.2,0.4-1.9C800.6,611.2,799.4,609.5,796.6,609.3z"/>
	<path d="M923.6,652.2c-3.4-4.2-4.6-8-3.6-11.6c1-3.7,4.1-6.2,9.2-8l1.7,1.1c-4.3,1.8-6.8,4.5-7.7,7.8c-0.9,3.3-0.3,7,2.4,10.7
		L923.6,652.2z"/>
	<path d="M948.1,655.3c-4.6-1.6-6.4-4.3-5.6-6.8c0.9-2.6,4.6-4.7,9.8-2.9c2.1,0.7,3.3,1.7,3.8,2.2l-4.8,7.2c3.4,0.6,7.4-0.4,8.5-3.8
		c1-2.8-0.5-6.1-6.1-8c-8-2.8-14-0.3-15.4,3.8c-1.2,3.6,0.9,8,8,10.4c4.4,1.5,8.3,1.9,12,1.2l0.8,1.1c-4,0.8-8.4,0.3-13.2-1.4
		c-8-2.8-11.1-7.8-9.6-11.9c1.6-4.7,8.9-7.2,17.9-4.1c6.5,2.2,8.9,6.3,7.7,9.6C960.7,655.6,955,657.7,948.1,655.3z M951.8,646.5
		c-4-1.4-6.5,0.9-7.1,2.7c-0.6,1.8,0.1,3.9,3.7,5.1c0.3,0.1,0.6,0.2,0.9,0.3l4.6-7C953.6,647.3,952.9,646.9,951.8,646.5z"/>
	<path d="M967.5,667.5l-1.6-1.2c4.4-1.4,7.2-3.9,8.4-7.1c1.2-3.2,0.8-6.9-1.5-10.9l2,0.2c3,4.5,3.9,8.4,2.5,11.9
		S972.7,666.1,967.5,667.5z"/>
	<path d="M1008.6,674.5l1.8-11.4c-1.6,0.2-4,0.2-5.9,0l-0.2-1c3.3,0.3,6.4-0.2,7.4-1l2.1,0.3l-2.1,13.6L1008.6,674.5z"/>
	<path d="M1025.2,676.4l8.9-6.4c1.7-1.2,2.2-2.1,2.3-2.9c0.1-1.5-1.5-2.7-4.5-2.9c-1.4-0.1-2.9,0-4,0.2l-0.8-1.1
		c1.4-0.3,3.4-0.5,5.7-0.3c4.3,0.3,6.9,2,6.8,4.3c-0.1,1-1,2.1-3.1,3.5l-6.9,4.6l9.4,0.8l-0.1,1.4L1025.2,676.4z"/>
	<path d="M1055.5,679c-3.1-0.3-4.3-1.5-4.2-3l0.6-7.2l-2.1-0.2l0.1-1.1l2.1,0.2l0.2-2.5l3.1-0.2l-0.3,3l3.2,0.3l-0.1,1.1l-3.2-0.3
		l-0.6,7.2c-0.1,0.9,0.5,1.5,2,1.6c0.3,0,0.7,0,1.1,0l-0.1,1.1C1056.8,679.1,1056.1,679.1,1055.5,679z"/>
	<path d="M1076.9,681l0.9-7.8c0.1-1.2-0.8-2.1-3.3-2.4c-1.2-0.1-2.4-0.1-3.4,0.2l-1,9.2l-3.1-0.3l1.7-15.6l3.1,0.3l-0.6,5.4
		c1.1-0.3,2.6-0.4,4-0.2c3.9,0.4,5.9,1.8,5.6,3.8l-0.9,7.8L1076.9,681z"/>
	<path d="M1111.4,676.3l-1.8,9.5l-3-0.6l1.8-9.5l-2.1-0.4l0.2-1.1l2.1,0.4l0.3-1.6c0.3-1.8,2.6-2.9,6.5-2.1l0.3,0.1l-0.2,1
		c-2.2-0.4-3.3,0.3-3.6,1.5l-0.3,1.7l3.2,0.6l-0.2,1.1L1111.4,676.3z M1116.6,687.1l2.9-15.4l3,0.6l-2.9,15.4L1116.6,687.1z"/>
	<path d="M1131.8,690.6c-1.1-0.3-1.9-1-1.8-1.6c0.2-0.6,1.2-0.8,2.3-0.5s1.9,1,1.8,1.6C1134,690.6,1132.9,690.9,1131.8,690.6z"/>
	<path d="M1164.7,700.8c-4.3-1.3-6.2-4-5.2-7.1c1.3-4,6.1-6,13.7-5l0.4,1.3c-4.1-0.5-8,0.3-9.8,2.1c0.8,0.1,2,0.3,3.2,0.6
		c4.4,1.4,6.4,3.8,5.6,6.1C1171.9,700.9,1169.1,702.2,1164.7,700.8z M1166.1,693.5c-1.1-0.3-2.2-0.5-3.1-0.6
		c-0.4,0.5-0.6,1.1-0.8,1.7c-0.7,2.3,0.2,4.3,2.8,5.1c2.6,0.8,4.2-0.3,4.7-1.8C1170.3,696.2,1169.3,694.5,1166.1,693.5z"/>
	<path d="M1199.3,707.5c-0.9,2-0.2,4.2,2.7,5.9c1.4,0.8,2.8,1.5,4.2,1.8l0.1,1.3c-1.6-0.4-3.4-1.1-5.1-2.1c-4.4-2.6-5.8-5.9-4-8.9
		c1.6-2.6,5-3.5,9.1-1.1c4.2,2.5,4.7,5.4,3.2,8l-0.1,0.2L1199.3,707.5z M1205.6,705.2c-2.5-1.5-4.7-0.4-5.9,1.5l7.4,3.7
		C1208.1,708.7,1208.1,706.7,1205.6,705.2z"/>
	<path d="M1229.9,736.9l9.2-7c-1.3-1-3-2.6-4.3-4.1l0.6-0.9c2.2,2.5,4.7,4.3,6,4.4l1.3,1.7l-10.9,8.3L1229.9,736.9z"/>
	<path d="M1234.1,755.6c1.1-4.3,3.6-6.4,6.7-5.6c4.1,1,6.4,5.7,5.9,13.3l-1.3,0.5c0.2-4.2-0.8-8-2.7-9.7c0,0.8-0.1,2-0.4,3.2
		c-1.1,4.5-3.4,6.6-5.7,6C1234.5,762.8,1233,760.1,1234.1,755.6z M1241.5,756.6c0.3-1.1,0.4-2.2,0.4-3.1c-0.5-0.3-1.1-0.5-1.8-0.7
		c-2.4-0.6-4.3,0.5-4.9,3.1s0.5,4.2,2.1,4.6C1239,760.9,1240.7,759.8,1241.5,756.6z"/>
	<path d="M1232.3,784.7c-1.8-2.6-1.7-4.2-0.4-5.1l5.9-4.1l-1.2-1.8l0.9-0.6l1.2,1.8l2-1.4l2.2,2.2l-2.5,1.7l1.8,2.6l-0.9,0.6
		l-1.8-2.6l-5.9,4.1c-0.7,0.5-0.8,1.3,0,2.5c0.2,0.3,0.4,0.6,0.7,0.8l-0.9,0.6C1233.1,785.7,1232.7,785.2,1232.3,784.7z"/>
	<path d="M1253.6,799.1l4.2-6.6c0.7-1,0.2-2.2-1.9-3.6c-1-0.7-2.1-1.1-3.1-1.3l-5,7.8l-2.6-1.7l8.5-13.2l2.6,1.7l-2.9,4.6
		c1.1,0.3,2.5,0.8,3.7,1.6c3.3,2.1,4.4,4.3,3.4,5.9l-4.2,6.6L1253.6,799.1z"/>
	<circle class="st8" cx="846.1" cy="626.5" r="3.6"/>
	<circle class="st8" cx="876.4" cy="633.1" r="3.6"/>
	<circle class="st8" cx="419.4" cy="645.8" r="3.6"/>
	<circle class="st8" cx="450.4" cy="643.6" r="3.6"/>
</g>
</svg>
