<?xml version="1.0" encoding="utf-8"?>
<!-- Generator: Adobe Illustrator 21.0.2, SVG Export Plug-In . SVG Version: 6.00 Build 0)  -->
<svg version="1.1" id="Layer_1" xmlns="http://www.w3.org/2000/svg" xmlns:xlink="http://www.w3.org/1999/xlink" x="0px" y="0px"
	 viewBox="0 0 900 900" style="enable-background:new 0 0 900 900;" xml:space="preserve">
<style type="text/css">
	.st0{stroke:#6A9DFF;stroke-width:1.5836;stroke-miterlimit:10;}
	.st1{fill:#6A9DFF;stroke:#000000;stroke-width:0.7918;stroke-miterlimit:10;}
</style>
<path class="st0" d="M153.3,541l-11.1-6l-10.6-5.8l4.4,11.2l4.6,11.8l-2.5,2.2L110.2,542l2.6-2.3l11.9,5.3l11.8,5.3l-4.7-11.7
	l-4.6-11.8l2.4-2.2l11.2,6l11,6l-3.8-12.4l-3.8-12.5l2.6-2.3l8.9,29.1L153.3,541z"/>
<path class="st0" d="M167.5,528.4l-18.4-20.7l22.5-19.9l2,2.2l-20.1,17.8l6,6.7l18.3-16.2l2,2.2l-18.3,16.2l6.5,7.4l20.7-18.3l2,2.2
	L167.5,528.4z"/>
<path class="st0" d="M194.3,504.7l-18.4-20.7l16.4-14.5c4.6-4,8.8-5.3,12.2-1.4c2.5,2.8,1.9,5.4,0,8.2c3.6-2.3,7.1-3.2,10.1,0.3
	c3,3.3,2.9,7.6-2.4,12.3L194.3,504.7z M180.2,484l6,6.7l13-11.5c3.8-3.4,6.1-6,3.5-9c-2.2-2.5-4.9-1.8-8.4,1.3L180.2,484z
	 M188.2,493l6.5,7.4l15.6-13.8c3.7-3.3,3.9-6.1,1.9-8.5c-2.7-3.1-5.8-1.2-9.6,2.2L188.2,493z"/>
<path class="st0" d="M221.3,477.7l-1.2-2.7c5-2.1,9.5-4.8,13.9-8.7c3.3-3,8.7-8.9,5.7-12.4c-2.5-2.8-6.5,0.5-12.2,5
	c-6.2,5-12.8,10.1-17.3,4.9c-4.7-5.3,1-12,5.7-16.1c3.7-3.3,8.5-6.5,12.4-8.6l1.4,2.6c-3.6,1.9-8.1,4.9-12.2,8.5
	c-2.5,2.2-8,7.8-4.9,11.3c2.8,3.2,8-0.9,13.2-5.1c6.1-4.9,12.2-9.6,16.4-4.8c4.6,5.2-1.2,12.5-6.5,17.2
	C231.4,472.5,226.5,475.6,221.3,477.7z"/>
<path class="st0" d="M232.7,433.6l2.4-2.1l18.4,20.7l-2.4,2.1L232.7,433.6z"/>
<path class="st0" d="M253.4,419.3l16.4,18.5l-2.4,2.1L251,421.4l-10.8,9.6l-2-2.2l24-21.2l2,2.2L253.4,419.3z"/>
<path class="st0" d="M283.7,425.5l-18.4-20.7l22.5-19.9l2,2.2l-20.1,17.8l6,6.7l18.3-16.2l2,2.2l-18.3,16.2l6.5,7.4l20.7-18.3l2,2.2
	L283.7,425.5z"/>
<path class="st0" d="M347.4,366.9c-0.9,1.6-3.6,6.1-9.1,11c-10.8,9.5-19.4,8.9-24.9,2.7c-5.5-6.2-5.1-14.8,5.7-24.4
	c5.5-4.9,10.3-6.9,12-7.7l1.3,2.6c-2.7,1.2-6.9,3.3-11.4,7.3c-9.2,8.2-9.7,15.1-5.3,20c4.4,4.9,11.3,5.3,20.5-2.8
	c4.5-4,7-7.9,8.6-10.4L347.4,366.9z"/>
<path class="st0" d="M346.5,332.1c9.2-8.1,18-7.7,23.5-1.5c5.5,6.2,4.8,15-4.4,23.1c-9.2,8.1-18,7.7-23.5,1.5
	C336.7,349.1,337.3,340.2,346.5,332.1z M363.7,351.5c7.7-6.8,8.3-13.8,3.9-18.8c-4.4-4.9-11.4-5.2-19.1,1.6
	c-7.7,6.8-8.3,13.8-3.9,18.8C348.9,358.1,356,358.4,363.7,351.5z"/>
<path class="st0" d="M393.8,321.5l-24.2-3.4l2.8,3l12.8,14.5l-2.4,2.1L364.5,317l2.3-2.1l25.7,3.6l-0.5-25.9l2.4-2.1l18.4,20.7
	l-2.4,2.1l-12.8-14.5l-2.7-3.1l0.4,24.4L393.8,321.5z"/>
<path class="st0" d="M398.7,286.7l2.4-2.1l18.4,20.7l-2.4,2.1L398.7,286.7z"/>
<path class="st0" d="M427.8,261l2.4-2.1l18.4,20.7l-2.4,2.1l-35.8,0l2.5,2.7l13.3,15l-2.4,2.1l-18.4-20.7l2.3-2.1l35.8,0l-2.6-2.9
	L427.8,261z"/>
<path class="st0" d="M458,254.6l-2-2.2l14.1-12.5l1.6,1.8c6.8,7.6,2.6,15.9-5.1,22.7c-9.3,8.3-18.2,7.8-23.7,1.6
	c-5.5-6.2-5.1-14.8,5.7-24.4c5.5-4.9,10.3-6.9,12-7.7l1.3,2.6c-2.7,1.2-6.9,3.3-11.4,7.3c-9.2,8.2-9.7,15.1-5.3,20
	c4.4,4.9,11.5,5.1,19.3-1.7c6.9-6.1,9.7-12.7,5.4-17.6l-0.3-0.3L458,254.6z"/>
<path class="st0" d="M495.1,235.4l-1.2-2.7c5-2.1,9.5-4.8,13.9-8.7c3.3-3,8.7-8.9,5.7-12.4c-2.5-2.8-6.5,0.5-12.2,5
	c-6.2,5-12.8,10.1-17.3,4.9c-4.7-5.3,1-12,5.7-16.1c3.7-3.3,8.5-6.5,12.4-8.6l1.4,2.6c-3.6,1.9-8.1,4.9-12.2,8.5
	c-2.5,2.2-8,7.8-4.9,11.3c2.8,3.2,8-0.9,13.2-5.1c6.1-4.9,12.2-9.6,16.4-4.8c4.6,5.2-1.2,12.5-6.5,17.2
	C505.2,230.3,500.3,233.3,495.1,235.4z"/>
<path class="st0" d="M519.4,179.1c9.2-8.1,18-7.7,23.5-1.5s4.8,15-4.4,23.1c-9.2,8.1-18,7.7-23.5,1.5
	C509.6,196.1,510.3,187.2,519.4,179.1z M536.6,198.5c7.7-6.8,8.3-13.8,3.9-18.8c-4.4-4.9-11.4-5.2-19.1,1.6
	c-7.7,6.8-8.3,13.8-3.9,18.8C521.8,205,528.9,205.3,536.6,198.5z"/>
<path class="st0" d="M550.4,151.7c9.2-8.1,18-7.7,23.5-1.5s4.8,15-4.4,23.1c-9.2,8.1-18,7.7-23.5,1.5S541.2,159.8,550.4,151.7z
	 M567.6,171.1c7.7-6.8,8.3-13.8,3.9-18.8c-4.4-4.9-11.4-5.2-19.1,1.6c-7.7,6.8-8.3,13.8-3.9,18.8
	C552.8,177.6,559.9,177.9,567.6,171.1z"/>
<path class="st0" d="M590.8,116.7l2.4-2.1l18.4,20.7l-2.4,2.1l-35.8,0l2.5,2.7l13.3,15l-2.4,2.1l-18.4-20.7l2.3-2.1l35.8,0l-2.6-2.9
	L590.8,116.7z"/>
<path class="st1" d="M53.3,816.7l-1.2-2.7c5-2.1,9.5-4.8,13.9-8.7c3.3-3,8.7-8.9,5.7-12.4c-2.5-2.8-6.5,0.5-12.2,5
	c-6.2,5-12.8,10.1-17.3,4.9c-4.7-5.3,1-12,5.7-16.1c3.7-3.3,8.5-6.5,12.4-8.6l1.4,2.6c-3.6,1.9-8.1,4.9-12.2,8.5
	c-2.5,2.2-8,7.8-4.9,11.3c2.8,3.2,8-0.9,13.2-5.1c6.1-4.9,12.2-9.6,16.4-4.8c4.6,5.2-1.2,12.5-6.5,17.2
	C63.5,811.6,58.6,814.6,53.3,816.7z"/>
<path class="st1" d="M107.3,769.8c-0.9,1.6-3.6,6.1-9.1,11c-10.8,9.5-19.4,8.9-24.9,2.7c-5.5-6.2-5.1-14.8,5.7-24.4
	c5.5-4.9,10.3-6.9,12-7.7l1.3,2.6c-2.7,1.2-6.9,3.3-11.4,7.3c-9.2,8.2-9.7,15.1-5.3,20c4.4,4.9,11.3,5.3,20.5-2.8
	c4.5-4,7-7.9,8.6-10.4L107.3,769.8z"/>
<path class="st1" d="M93.4,747.3l16.4-14.6c4.4-3.9,9.5-5.4,13.9-0.4c4.4,4.9,2.2,9.9-2.2,13.7l-1.9,1.7l17.5-2.1l-3.7,3.3l-17,1.9
	l-8.7,7.7l6.6,7.4l-2.4,2.1L93.4,747.3z M119.7,743.8c3.1-2.8,4.6-6.1,1.7-9.4s-6.3-2.3-9.4,0.4l-14.1,12.5l7.9,8.9L119.7,743.8z"/>
<path class="st1" d="M167.3,718.9l-2.7,2.4l-7.9-2.2L139.9,734l1.2,8l-2.7,2.4l-5.3-32.3l2.7-2.4L167.3,718.9z M138.9,728.1l0.3,2.5
	l14.3-12.6l-2.4-0.6l-14.7-4.4L138.9,728.1z"/>
<path class="st1" d="M161.6,690.9l16.4,18.5l-2.4,2.1L159.2,693l-10.8,9.6l-2-2.2l24-21.2l2,2.2L161.6,690.9z"/>
<path class="st1" d="M215.2,674.3c-0.9,1.6-3.6,6.1-9.1,11c-10.8,9.5-19.4,8.9-24.9,2.7c-5.5-6.2-5.1-14.8,5.7-24.4
	c5.5-4.9,10.3-6.9,12-7.7l1.3,2.6c-2.7,1.2-6.9,3.3-11.4,7.3c-9.2,8.2-9.7,15.1-5.3,20c4.4,4.9,11.3,5.3,20.5-2.8
	c4.5-4,7-7.9,8.6-10.4L215.2,674.3z"/>
<path class="st1" d="M241.6,653.1l-8.5-9.6l-19.6,17.3l8.5,9.6l-2.4,2.1l-18.4-20.7l2.4-2.1l7.9,9l19.6-17.3l-7.9-9l2.4-2.1L244,651
	L241.6,653.1z"/>
<path class="st1" d="M255,624.2l8.5,9.6l-2.4,2.1l-18.4-20.7l22.5-19.9l2,2.2L247,615.2l6,6.7l18.3-16.2l2,2.2L255,624.2z"/>
<path class="st1" d="M281.3,580.2c9.2-8.1,18-7.7,23.5-1.5c5.5,6.2,4.8,15-4.4,23.1s-18,7.7-23.5,1.5
	C271.4,597.2,272.1,588.3,281.3,580.2z M298.4,599.6c7.7-6.8,8.3-13.8,3.9-18.8c-4.4-4.9-11.4-5.2-19.1,1.6
	c-7.7,6.8-8.3,13.8-3.9,18.8C283.7,606.2,290.7,606.4,298.4,599.6z"/>
<path class="st1" d="M299.3,565l16.4-14.6c4.4-3.9,9.5-5.4,13.9-0.4c4.4,4.9,2.2,9.9-2.2,13.7l-1.9,1.7l17.5-2.1l-3.7,3.3l-17,1.9
	l-8.7,7.7l6.6,7.4l-2.4,2.1L299.3,565z M325.6,561.6c3.1-2.8,4.6-6.1,1.7-9.4s-6.3-2.3-9.4,0.4l-14.1,12.5l7.9,8.9L325.6,561.6z"/>
<path class="st1" d="M340.2,528.8l2.4-2.1l18.4,20.7l-2.4,2.1L340.2,528.8z"/>
<path class="st1" d="M369.2,503.1l2.4-2.1l18.4,20.7l-2.4,2.1l-35.8,0l2.5,2.7l13.3,15l-2.4,2.1l-18.4-20.7l2.3-2.1l35.8,0l-2.6-2.9
	L369.2,503.1z"/>
<path class="st1" d="M388.2,506.3l8.5,9.6l-2.4,2.1l-18.4-20.7l22.5-19.9l2,2.2l-20.1,17.8l6,6.7l18.3-16.2l2,2.2L388.2,506.3z"/>
<path class="st1" d="M414.5,462.3c9.2-8.1,18-7.7,23.5-1.5c5.5,6.2,4.8,15-4.4,23.1s-18,7.7-23.5,1.5
	C404.6,479.3,405.3,470.4,414.5,462.3z M431.6,481.7c7.7-6.8,8.3-13.8,3.9-18.8c-4.4-4.9-11.4-5.2-19.1,1.6
	c-7.7,6.8-8.3,13.8-3.9,18.8C416.9,488.3,423.9,488.5,431.6,481.7z"/>
<path class="st1" d="M462.8,449.6l3.8,4.3l-2.1,1.9l-3.8-4.3L462.8,449.6z"/>
<path class="st1" d="M482.5,436.8l-1.2-2.7c5-2.1,9.5-4.8,13.9-8.7c3.3-3,8.7-8.9,5.7-12.4c-2.5-2.8-6.5,0.5-12.2,5
	c-6.2,5-12.8,10.1-17.3,4.9c-4.7-5.3,1-12,5.7-16.1c3.7-3.3,8.5-6.5,12.4-8.6l1.4,2.6c-3.6,1.9-8.1,4.9-12.2,8.5
	c-2.5,2.2-8,7.8-4.9,11.3c2.8,3.2,8-0.9,13.2-5.1c6.1-4.9,12.2-9.6,16.4-4.8c4.6,5.2-1.2,12.5-6.5,17.2
	C492.6,431.7,487.7,434.7,482.5,436.8z"/>
<path class="st1" d="M536.4,390c-0.9,1.6-3.6,6.1-9.1,11c-10.8,9.5-19.4,8.9-24.9,2.7c-5.5-6.2-5.1-14.8,5.7-24.4
	c5.5-4.9,10.3-6.9,12-7.7l1.3,2.6c-2.7,1.2-6.9,3.3-11.4,7.3c-9.2,8.2-9.7,15.1-5.3,20c4.4,4.9,11.3,5.3,20.5-2.8
	c4.5-4,7-7.9,8.6-10.4L536.4,390z"/>
<path class="st1" d="M522.5,367.4l16.4-14.6c4.4-3.9,9.5-5.4,13.9-0.4c4.4,4.9,2.2,9.9-2.2,13.7l-1.9,1.7l17.5-2.1l-3.7,3.3l-17,1.9
	l-8.7,7.7l6.6,7.4l-2.4,2.1L522.5,367.4z M548.8,364c3.1-2.8,4.6-6.1,1.7-9.4s-6.3-2.3-9.4,0.4l-14.1,12.5l7.9,8.9L548.8,364z"/>
<path class="st1" d="M596.4,339l-2.7,2.4l-7.9-2.2L569,354.1l1.2,8l-2.7,2.4l-5.3-32.3l2.7-2.4L596.4,339z M568.1,348.3l0.3,2.5
	l14.3-12.6l-2.4-0.6l-14.7-4.4L568.1,348.3z"/>
<path class="st1" d="M590.7,311l16.4,18.5l-2.4,2.1l-16.4-18.5l-10.8,9.6l-2-2.2l24-21.2l2,2.2L590.7,311z"/>
<path class="st1" d="M644.4,294.4c-0.9,1.6-3.6,6.1-9.1,11c-10.8,9.5-19.4,8.9-24.9,2.7c-5.5-6.2-5.1-14.8,5.7-24.4
	c5.5-4.9,10.3-6.9,12-7.7l1.3,2.6c-2.7,1.2-6.9,3.3-11.4,7.3c-9.2,8.2-9.7,15.1-5.3,20c4.4,4.9,11.3,5.3,20.5-2.8
	c4.5-4,7-7.9,8.6-10.4L644.4,294.4z"/>
<path class="st1" d="M670.8,273.2l-8.5-9.6L642.7,281l8.5,9.6l-2.4,2.1l-18.4-20.7l2.4-2.1l7.9,9l19.6-17.3l-7.9-9l2.4-2.1
	l18.4,20.7L670.8,273.2z"/>
<path class="st1" d="M684.1,244.4l8.5,9.6l-2.4,2.1l-18.4-20.7l22.5-19.9l2,2.2l-20.1,17.8l6,6.7l18.3-16.2l2,2.2L684.1,244.4z"/>
<path class="st1" d="M710.4,200.4c9.2-8.1,18-7.7,23.5-1.5c5.5,6.2,4.8,15-4.4,23.1c-9.2,8.1-18,7.7-23.5,1.5
	S701.2,208.5,710.4,200.4z M727.6,219.8c7.7-6.8,8.3-13.8,3.9-18.8c-4.4-4.9-11.4-5.2-19.1,1.6c-7.7,6.8-8.3,13.8-3.9,18.8
	C712.8,226.3,719.9,226.6,727.6,219.8z"/>
<path class="st1" d="M728.4,185.2l16.4-14.6c4.4-3.9,9.5-5.4,13.9-0.4c4.4,4.9,2.2,9.9-2.2,13.7l-1.9,1.7l17.5-2.1l-3.7,3.3l-17,1.9
	l-8.7,7.7l6.6,7.4l-2.4,2.1L728.4,185.2z M754.7,181.8c3.1-2.8,4.6-6.1,1.7-9.4c-2.9-3.3-6.3-2.3-9.4,0.4l-14.1,12.5l7.9,8.9
	L754.7,181.8z"/>
<path class="st1" d="M769.3,149l2.4-2.1l18.4,20.7l-2.4,2.1L769.3,149z"/>
<path class="st1" d="M798.4,123.3l2.4-2.1l18.4,20.7l-2.4,2.1l-35.8,0l2.5,2.7l13.3,15l-2.4,2.1L776,143.1l2.3-2.1l35.8,0l-2.6-2.9
	L798.4,123.3z"/>
<path class="st1" d="M817.3,126.5l8.5,9.6l-2.4,2.1L805,117.4l22.5-19.9l2,2.2l-20.1,17.8l6,6.7l18.3-16.2l2,2.2L817.3,126.5z"/>
<path class="st1" d="M843.6,82.5c9.2-8.1,18-7.7,23.5-1.5c5.5,6.2,4.8,15-4.4,23.1c-9.2,8.1-18,7.7-23.5,1.5S834.4,90.6,843.6,82.5z
	 M860.8,101.9c7.7-6.8,8.3-13.8,3.9-18.8c-4.4-4.9-11.4-5.2-19.1,1.6c-7.7,6.8-8.3,13.8-3.9,18.8C846,108.4,853.1,108.7,860.8,101.9
	z"/>
</svg>
