<?xml version="1.0" encoding="utf-8"?>
<!-- Generator: Adobe Illustrator 23.0.3, SVG Export Plug-In . SVG Version: 6.00 Build 0)  -->
<svg version="1.1" id="Layer_1" xmlns="http://www.w3.org/2000/svg" xmlns:xlink="http://www.w3.org/1999/xlink" x="0px" y="0px"
	 viewBox="0 0 1366 768" style="enable-background:new 0 0 1366 768;" xml:space="preserve">
<style type="text/css">
	.st0{fill:none;stroke:#FF0000;stroke-width:0.7337;stroke-miterlimit:10;}
</style>
<g>
	<path class="st0" d="M1005.1,679.7c9.1,4.3,18.2,5.8,27-0.9c6.1-4.7,13-7.2,20.4-8.4c3.1-0.5,6.4-1.2,9.1-2.7
		c12-6.7,24.2-5.6,36.7-2.3c11.3,3,22.3,4.8,32.7-3.5c3.5-2.8,8-4.5,12.2-5.8c4.9-1.5,10.3-1.3,15.1-3c9-3.3,17.7-7.4,26.5-11.2
		c1.9-0.8,3.7-1.9,5.6-2.5c9.2-2.8,17.4,0.5,25,5.7c6,4.1,12.1,6.9,19.5,5.7c3.1-0.5,6.4-0.3,9.5,0c10,1.1,19.7,2.8,26.6,12.2
		c3.8,5.2,9.4,7.5,15.4,8.7c2.9,0.6,6.2,1.2,8.4,3.1c7.3,6.1,14.1,13.2,17.9,22.5c5.5,13.4,10.3,27.1,15.7,40.6
		c3.4,8.6,7.4,16.9,11.1,25.4c0.5,1.2,1.1,2.3,1.7,3.6c-7.2,0.7-7.5,0.8-10.4-5.3c-3.3-7.2-6.3-14.7-9.1-22.2
		c-3.9-10.4-7.3-21.1-11.5-31.4c-2.5-6.1-5.6-12.1-9.4-17.3c-4.6-6.3-10-11.7-18.2-13.1c-4.4-0.8-9.4-3.4-12.4-6.9
		c-8.6-9.8-18.9-13.8-31-13.3c-9.1,0.4-17.4-1.2-25.4-6.9c-10-7.1-20.6-7.9-31.4-0.5c-8.3,5.7-17.9,7.7-27.5,9
		c-7.1,0.9-13.6,3-19.3,7.3c-12.2,9.1-25.2,7.9-38.5,4.8c-9.6-2.3-19.2-4.2-28.9,0c-4,1.7-8,4.4-12.1,4.6
		c-13.1,0.6-22.2,11.9-34.5,14.3c6.2,1.6,11.7-0.1,16.8-3.6c5.9-4.1,12.2-7,19.3-7.7c3.4-0.3,6.9-1.3,10-2.9
		c10.3-5.4,21-4.6,31.3-1.2c12.4,4.1,23.7,4.5,35.2-3.1c5.7-3.8,12.8-5.4,19.3-7.6c8-2.7,17.1-3.2,24.1-7.7
		c13.4-8.5,25.5-9.3,38.2,0.7c4.8,3.7,10.5,4.7,16.5,4.2c13.9-1,26.9,0.8,36.9,13.4c2.5,3.2,7.3,4.5,11.3,6.2c2.9,1.2,6.8,0.7,9,2.7
		c5.2,4.8,10.8,9.8,14.2,16.1c5.1,9.3,8.5,19.7,12.3,29.8c4.6,12.1,9,24.3,13.4,36.5c0.1,0.4,0,0.8,0,1.2c-7.9,2.4-7.8-5.9-11.4-9.4
		c1.2,3.1,2.4,6.2,3.8,9.7c-3.9,0-7.3-0.4-10.7,0.1c-5.1,0.7-7.5-1.3-8.9-6.7c-3.2-12.5-6.7-25-10.4-37.3
		c-3.1-10.4-8.8-18.2-19.5-20.3c-5.9-1.1-10.7-4.6-14.6-9.4c-4.3-5.3-9.5-8.5-16.2-8.6c-2.4,0-4.9-0.6-7.3-0.4
		c-10.2,1-19.3-2.2-27.8-8.2c-6.6-4.6-13.6-5-20.3-0.2c-6.9,4.9-14.4,7.6-22.5,9.2c-7.9,1.6-16.1,2.4-22.9,7.8
		c-12,9.5-24.9,7.5-38,3.8c-7.5-2.1-15-4.5-23-1.6c-5.2,1.9-10.6,2.8-15.9,4.2c-3.1,0.9-6.6,1.2-9,3.1c-11,8.7-22.6,9-35,4.5
		c-7.2-2.6-14.2-2.5-21.5,0.8c-4.1,1.9-9,1.7-13.5,2.4c-1.2,0.2-2.5,0-3.8,0c6.9,2.7,13.9,5.8,21,2.5c9.1-4.2,18-4.6,27.3-0.6
		c5.8,2.5,12.4,4.4,18.1,1.1c9.3-5.4,18.8-9.3,29.3-10.4c0.4,0,0.8-0.3,1.2-0.5c8.6-4.5,17.4-2.7,25.7,0.5c11.8,4.7,23,5.5,33.8-2.6
		c1.2-0.9,2.5-1.7,3.8-2.2c4.7-1.8,9.4-4.2,14.3-5.1c9.3-1.8,18.3-3.9,26.2-9.9c8.8-6.7,14.6-6.7,23.5-0.3c6.8,4.9,14,7.8,22.3,6.6
		c2.6-0.4,5.2-0.3,7.8-0.1c7.4,0.4,14.3,1.8,19.2,8.8c1.6,2.4,4.1,4.4,6.6,5.6c4.4,2.1,9.2,3.5,13.8,5.2c1.6,0.6,3.5,1,4.7,2.2
		c5,4.7,8.5,10.6,10.1,17.7c1,4.6,2.1,9.1,3.3,13.6c2.1,8.1,4.3,16.1,6.5,24.2c-6.5,0.8-6.7,0.8-8.3-5.6c-2.6-9.9-4.8-20-7.3-30
		c-2.2-8.6-5.9-15.3-15.1-16.9c-7-1.2-13.3-4.8-17.8-10.8c-5-6.6-11.3-7.8-18.5-7.7c-5.4,0.1-11,0-16.2-1.3c-4.7-1.2-9-4-13.3-6.5
		c-6.3-3.6-12.5-5-18.5,0.4c-7.6,6.8-17,8.5-26.1,10.3c-7.2,1.4-13.4,4.1-19.5,8c-5.5,3.5-11.3,6.8-17.9,5.6
		c-7.1-1.2-14.2-2.4-21-4.5c-7.2-2.1-14.1-2.8-21,1.1c-1.2,0.7-2.8,0.6-4.2,1c-5.5,1.6-11.4,2.4-16.3,5.2c-7.3,4.1-14.5,7-22.7,5.1
		c-4.1-1-8.2-2-12.1-3.4c-5.8-2.1-11.3-1.6-16.9,0.6c-2.9,1.1-5.9,2.2-9,2.9c-2.2,0.5-4.6,0.1-6.9,0.1c5.9,3.1,11.8,5.1,18.3,2.8
		c3.3-1.2,6.7-1.9,10-2.8c7.5-1.9,14.2,2,21.1,3.8c7.7,2.1,14.6,1,21.5-3.5c3.8-2.5,8.5-3.3,12.9-4.6c3.6-1.1,7.3-1.9,11-2.4
		c4.2-0.5,8.6-0.9,12.8-0.4c3.5,0.4,6.8,2.4,10.3,3.5c10.3,3.4,20,4.2,29.7-3.2c5-3.9,11.3-6.6,17.4-7.8c9.8-2,19.1-4.3,27.1-11.1
		c5.4-4.5,12.3-5.6,19.6,0.8c5.3,4.6,11.8,6.9,19,6.4c5.3-0.4,10.7-0.3,16,0c4.5,0.2,8.2,2.3,11.1,6.4c1.8,2.5,4.1,4.8,6.6,6.2
		c4.2,2.3,8.8,4.4,13.4,5.3c7.2,1.4,10.9,6.9,12.6,13.3c3,11,4.8,22.5,7,33.8c-6,1.1-6.5,1-7.8-5.3c-1.6-7.5-2.7-15-3.8-22.6
		c-1.1-7.4-4.7-11.8-11.4-13.3c-7.6-1.8-14.6-5.2-19.8-11.8c-3.2-4.1-7-5.8-11.7-5.8c-3,0-6.1-0.2-9.1,0.1c-9,1-16.8-2.5-24.1-7.5
		c-6.5-4.4-10.7-4.2-17.2,0.3c-4.7,3.2-9.8,5.8-15,7.7c-6.3,2.3-13.1,3.2-19.4,5.5c-4.2,1.5-7.7,5-11.8,6.7
		c-4.6,1.9-9.6,3.8-14.4,3.7c-6.1-0.2-12.3-1.9-18.1-4c-7.1-2.6-13.8-4.4-20.8-0.3c-0.8,0.5-2,0.4-3,0.5c-6.4,0.4-12.5,1.7-18,5.7
		c-6.9,5-14.7,5.2-22.5,3.1c-3.9-1-7.7-2.6-11.7-3.4c-2.9-0.6-6.1-1.2-8.9-0.5c-7.8,1.9-15.3,6-23.8,3.4c7.5,5.3,15.1,6.7,23.9,3.9
		c4.7-1.6,10.1-1.1,15.2-0.8c3.4,0.2,6.7,1.9,10,2.9c8,2.3,15.6,1.8,22.9-3.1c2.4-1.6,5.2-2.8,7.9-3.5c3.5-0.9,7.5-0.3,10.8-1.6
		c7.4-3,13.9-1.4,20.9,1.8c10.6,5,21.2,6.1,31.8-1.4c4.8-3.5,10.5-6.1,16.1-7.6c10-2.6,19.9-4.6,28-12.3c4.2-4,9-3.8,13.2-0.4
		c8,6.5,16.9,8.9,26.8,7.8c7.7-0.8,14.9-0.7,20.5,7.3c4.3,6.2,11.5,8.1,18.3,9.7c7.7,1.8,9.9,6.2,11,13.1c1.2,7.4,1.9,14.8,2.8,22.4
		c-1.6,0-3.6,0-5.7,0c-0.7-3-1.3-5.8-1.9-8.5c-0.2,0-0.5,0-0.7,0.1c0,2.8,0,5.7,0,8.4c-2.1,0-4.2,0-6.5,0c-0.2-2-0.6-3.7-0.6-5.3
		c0-1.9,0.1-3.7,0.3-5.6c0.6-6.7,0.3-6.1-5.2-8.5c-6.7-3-13.4-6.6-19.2-11.2c-4.1-3.3-7.8-5.5-12.9-4.9c-7,0.9-13.8,0.6-20.3-2.8
		c-3.2-1.7-6.6-3.2-9.7-5.1c-3.5-2.1-6.4-2.1-9.4,1.1c-4.1,4.5-9.2,6.6-14.8,8.3c-7.8,2.4-16.6,3.8-23,8.7
		c-12.5,9.6-25.1,7-37.5,2.6c-6.5-2.4-12.3-4.5-19-2.3c-4.2,1.4-9,1.4-12.8,3.5c-8.4,4.6-16.8,6.4-25.9,4.1c-4.1-1.1-8-2.9-12.1-3.4
		c-4.2-0.5-8.5-0.2-12.7,0.3c-2.6,0.3-5.1,1.4-8,2.4c4.2,4.1,8.6,7.5,14.5,5.1c7.6-3.1,14.9-2.8,22.3,0.5c1.9,0.8,3.9,1.1,5.8,1.8
		c7.9,2.6,15.2,1.4,22.5-2.9c2.9-1.7,6.5-2,9.9-2.6c2.1-0.4,4.4,0.1,6.4-0.5c4.7-1.5,8.5-0.1,12.6,2.8c9.5,6.7,19.2,8.6,29.4,0.9
		c4.2-3.2,8.9-6.4,13.7-7.6c9.8-2.4,19.4-4.5,26.6-13c2.4-2.8,5.3-2.5,8.2-0.3c2.2,1.7,4.7,3,7.2,4.4c7.3,4,14.9,4.3,22.8,2.6
		c4.5-0.9,8.5-0.1,11.1,4.8c1,1.9,3,3.5,4.9,4.3c6.4,2.8,12.8,5.4,19.4,7.7c3.9,1.3,4.1,4.4,4,7.7c-0.1,3.7-2.9,2.7-4.9,2.7
		c-3.3,0.1-6.7-0.4-10,0.1c-8.8,1.2-15.6-2.7-21.9-8.8c-1.4-1.3-4-2.4-5.7-1.9c-8.9,2.2-16.8-0.6-24.7-4.3c-2-0.9-3.9-2.3-5.9-2.9
		c-1.2-0.4-3.2-0.2-3.9,0.7c-4.3,4.7-9.3,7.7-15.2,9.5c-5.3,1.6-10.8,2.7-15.5,5.4c-4.7,2.7-9.1,2.3-14.7,2c2.4-1.5,4.1-2.4,5.6-3.5
		c6.2-4.6,12.7-8.3,20.5-9.4c4-0.5,8-2.6,11.8-4.5c1.8-0.9,3.2-2.9,5.5-5.1c-6,2.2-10.7,4.5-15.5,5.6c-8,1.9-15.4,4.8-22.1,10.1
		c-6.6,5.2-14.1,6-21.9,3c-1.1-0.4-2.3-0.5-3.5-0.7c-0.1,0.4-0.2,0.8-0.4,1.1c2.1,1.1,4.1,2.1,6.2,3.2c-8.6,0.1-17.1-0.6-25.6-0.9
		c-2.8-0.1-5.6,1.4-8.4,1.3c-13.2-0.3-26.5-0.9-39.7-1.3c-2-0.1-4,0.3-6,0.6c-5.5,0.8-11.1,2.2-16.2-1.5c-3.4-2.4-6.8-5-10.4-7.7
		c-1,3-2.1,6.4-3.2,9.8c-2.1,0-4.1,0-6.1,0c0.1-5.8,4.7-10.9,2.2-17c-2,4.1-3,8.5-4.7,12.6c-0.7,1.8-2.6,4-4.2,4.3
		c-3.7,0.6-7.6,0.2-11.7,0.2c2.5-4.6,2.6-4.8,6.6-4.3c2.5,0.3,3.7-0.5,4.4-3.2c1.3-4.8,2.9-9.4,4.4-14.3c-1.2-0.9-2.4-1.7-3.6-2.6
		c-2.6-1.9-4.3-1.9-5.2,2.1c-0.7,3.3-1.8,6.6-3.2,9.7c-2,4.4-4.8,8.2-9.7,9.2c-1.1,0.2-2.1,0.8-3.2,1.2c-2.3,1-4.6,1.9-6.9,2.9
		c-0.3-0.5-0.6-1-0.9-1.4c1-2.5,1.9-5,2.9-7.5c-0.3-0.4-0.6-0.7-0.8-1.1c-1.6,1.6-4.2,3-4.5,4.9c-0.9,4.9-3.5,4.9-6.9,4
		c0.6-7.5,3.5-12.6,11-14c1.6-0.3,3.5-2.3,4.3-4.1c1.6-3.3,2.8-6.9,3.6-10.5c1.3-6,3.9-10,10.3-10.2c-1.4-1-2.8-1.6-4.3-2.2
		c-5.7-2.2-7.9-1.2-10.1,4.7c-1.4,3.8-3.2,7.5-3.9,11.4c-1.2,6-4.9,8.9-9.6,10.2c-4.4,1.2-6,4.3-7.1,8.4c-0.6,2.2-1.3,4.4-2,6.7
		c-1.8-0.1-3.3-0.2-5.1-0.4c1-3.9,1.3-7.6,2.9-10.3c1.8-3.1,4.4-6.7,7.4-7.9c5-1.9,7.1-5.1,9-10.2c2.8-7.6,2.4-18.1,13.4-19.6
		c-2.1-0.8-3.7-1.3-5.4-1.6c-3.9-0.7-6.8,1-8.3,5c-1.8,4.6-3.9,9.1-5.1,13.9c-1.6,6.5-5.6,10.1-11,12.1c-3.4,1.3-5.1,3.8-6,7.3
		c-0.9,3.7-1.9,7.5-2.8,11.4c-1,0.1-2,0.2-3,0.2c-0.7,0-1.4-0.2-2.6-0.3c2.2-10.3,3-20.8,14-25.2c2.3-0.9,4.2-4.1,5.4-6.7
		c2.1-4.8,3.6-9.9,5.3-14.9c1.5-4.3,4.1-7.1,8.2-8.3c1.3-0.4,2.7-0.8,4.4-1.3c-8.3-3.6-13.9-1.2-16.9,6.9c-0.3,0.7-0.5,1.5-0.7,2.2
		c-3.3,9.9-6.3,19.8-16.6,24.4c-2.4,1.1-4,5.5-5.2,8.8c-1.6,4.6-2.4,9.5-3.6,14.3c-7.2,0-14.4,0-22.8,0c2.1-8.5,3.7-16.5,6.1-24.3
		c1.5-5,4.8-8.7,9.2-11.4c5-3.1,8.2-7.7,10.3-13.9c3.4-10,5.3-21.7,17.1-25.5c-7.1-0.9-12.5,2.6-15.7,10c-2.3,5.4-4.7,10.8-6.3,16.4
		c-1.5,5.5-4.4,9.4-8.6,12.4c-6.5,4.7-11,10.7-12.1,19.5c-0.7,5.6-2.3,11.2-3.4,16.6c-1.6,0-3.3,0-5.9,0c1.3-6.6,2.6-12.6,3.6-18.7
		c1.5-8.4,5.6-14.8,11.9-19.9c3.2-2.6,6.4-5.7,8.3-9.3c2.6-5.1,4.1-11,6-16.5c3.1-9.2,8.9-14.9,17.8-16.6c3.5-0.7,7.2-0.9,10.8-0.5
		c8.4,0.9,16.3-0.6,24-4.2c6.2-2.9,12.8-3.9,19.4-1.7C1003.2,679.6,1004.1,679.7,1005.1,679.7z M1114.6,684.9
		c4.8,0,9.5-1.4,14.2-3.1c-7.3,2.3-14.3,1.6-21.4-0.7c-1.7-0.5-3.8,0.8-5.8,1.2c-2.1-1.1-4-2.9-6.2-3.4c-9.8-1.9-19.7-3.2-28.8,3.3
		c-0.8,0.6-1.9,0.7-2.9,0.8c-12.1,0.6-22,7.8-32.1,14.1c3.3-1.5,6.8-2.7,9.9-4.7c6-4,12.3-6.5,19.4-7.4c3.2-0.4,6.4-1.6,9.5-2.9
		c10.5-4.4,20.8-3.4,31.2,0.2C1105.9,683.3,1110.3,684.9,1114.6,684.9z M1073.1,740c3.8-1.9,8.1-2.7,12.2-3.8c2.4-0.6,5-0.3,7.2-1.2
		c5.6-2.2,10.7-1,15.8,1.8c2.3,1.3,4.7,2.4,7.1,3.4c7.8,3,15.8,3.6,22.7-2.2c9.2-7.7,20.4-8.9,30.8-12.6c4-1.4,7.9-3.8,11.2-6.6
		c6.8-5.7,9.4-5.9,16.5-1c6.6,4.5,13.7,7.6,21.9,6.3c3.7-0.6,7.5-0.4,11.2-0.3c3.6,0.1,6.1,1.8,8.5,5.2c2.4,3.4,6.5,5.6,10.1,7.5
		c3.9,2,8.2,3,12.2,4.7c2.5,1.1,4.8,2.8,7.2,4.3c-0.2-3.6-1.9-6.7-5.9-7.7c-9.6-2.5-18.1-7-25-15c-1.1-1.3-3.3-1.9-5-2.2
		c-2.4-0.4-5-0.6-7.3-0.2c-9.8,1.8-18.6-1.5-26.8-6.7c-5.7-3.7-10.5-4.3-15.6,0.9c-6.3,6.5-14.9,7-22.6,9.9
		c-5.5,2.1-11.8,3-16.4,6.6c-11.4,9-23.1,7.3-35,2.8c-6.7-2.5-12.8-4.1-20.3-2.2c-7.9,1.9-15.6,3.5-22.7,7.9
		c-2.8,1.7-6.3,1.8-9.5,2.6C1061.7,744.8,1067.3,742.9,1073.1,740z M1134.1,690.2c6.7-4.4,13.6-8.7,21.8-9.5
		c8.5-0.8,16.7-3,24.2-7.7c2.9-1.8,5.8-3.4,8.7-5.1c6.9-3.7,13-1.4,19.1,2.7c3,2.1,6.2,4.6,9.6,5.3c6.2,1.3,12.6,1.5,18.9,2.2
		c0.1-0.6,0.1-1.3,0.2-1.9c-1.1-0.1-2.3-0.4-3.4-0.3c-8.8,0.8-16.2-3-23.6-7.5c-7.5-4.6-15.3-6.5-23.3-1.1
		c-9.4,6.3-19.9,8.3-30.5,10.8c-7.7,1.8-15.1,5.8-22.3,9.7c-7.4,4-14.7,4.9-22.6,2.5c-1.9-0.6-4.1-0.4-6.2-0.6
		c0,0.6-0.1,1.2-0.1,1.7C1114.4,694.7,1124.1,696.8,1134.1,690.2z M1249.4,762.3c-8.7-2.8-16.6-7.1-23.1-14.1
		c-1-1.1-3.2-1.9-4.6-1.6c-12.1,2.7-22.7-1.7-33.1-7.5c-1.2-0.7-3-0.3-4.5-0.5c0,0.4,0,0.8,0,1.2c4,2.2,8,4.4,12,6.5
		c7.7,4,15.7,4.6,24,2.8c3.2-0.7,5.3,0.5,7.8,3.3c6.5,7.4,15,11,24,12.9c0.2-0.4,0.4-0.8,0.6-1.2
		C1251.4,763.4,1250.4,762.6,1249.4,762.3z M1047,700.7c6-4.6,12.6-6.5,19.7-7.4c2.4-0.3,5-0.5,7.1-1.6c8.8-4.6,17.8-3.8,27-2
		c-7.8-1.8-15.4-5.4-23.8-2.5c-7.4,2.5-15,4.2-22.2,7c-5.3,2-10.1,5.2-15.2,7.9c0.2,0.5,0.4,1.1,0.6,1.6
		C1042.5,702.7,1045.1,702.1,1047,700.7z M1074.1,764.4c4.4,0.9,8.5-0.4,12.3-3c3.9-2.7,7.9-3.9,12.7-3c2.5,0.5,5.3-0.5,7.9-0.8
		c0-0.5-0.1-1-0.1-1.5C1095.1,754.7,1084.3,758.2,1074.1,764.4z M971.2,691.5c10.2,2.6,18.6-5.5,28.3-6.1
		C988.9,681.8,980.8,690.4,971.2,691.5z M1214.4,664.4c3.5,2.3,8.1,2.8,12.3,3.6c-7.6-4-15.2-8.3-22.9-11.9
		c-4.5-2.1-9.3-2.1-13.9,0.6C1199.3,654.6,1206.7,659.4,1214.4,664.4z M1142.3,672.2c0.1,0.5,0.2,1,0.3,1.6
		c10.4-3.2,21.6-2.4,31.3-8.7C1163.3,667.4,1152.8,669.8,1142.3,672.2z M938.7,725.6c5.8-9.2,5.3-22.4,16.2-27.5
		C947.2,699.8,938.4,714.9,938.7,725.6z M993,734.7c-4.5-0.5-7.1,4.8-5.3,12.7C989.7,742.5,991.3,738.6,993,734.7z M1034.7,738.4
		c-4.5-3.1-8.2-2.8-15.3,0.9C1025.3,742,1029.5,737.5,1034.7,738.4z M990.8,702.6c0.2,0.6,0.3,1.3,0.5,1.9c4.9-1.6,9.7-3.2,14.6-4.7
		c-0.1-0.6-0.2-1.2-0.3-1.7C1000.6,699.6,995.7,701.1,990.8,702.6z M985.8,695.3c0.2,0.6,0.3,1.1,0.5,1.7c5.1-1.8,10.3-3.6,15.4-5.4
		c-0.1-0.4-0.2-0.7-0.3-1.1C996.2,692.1,991,693.7,985.8,695.3z M1256,671.2c0.1-0.4,0.2-0.9,0.2-1.3c-4.8-1-9.6-2-14.4-3
		c-0.1,0.4-0.2,0.7-0.3,1.1C1246.3,669.1,1251.1,670.2,1256,671.2z"/>
	<path class="st0" d="M999,631.2c6.2-3.8,12.5-7.5,19.1-10.5c6.6-3,13.9-4.3,20.3-7.6c7.1-3.7,14.6-5.4,22.2-6.8
		c13.6-2.6,26.9,0.5,40.3,2.2c7.2,0.9,13.3-1.2,19.5-4.4c6-3.1,11.8-6.6,18.1-8.8c4.8-1.7,10.3-0.9,15.2-2.4
		c10.2-3.1,20.4-6.6,30.4-10.5c9.6-3.8,19.3-6,29.2-2.6c7.1,2.4,13.8,6.2,20.7,9c3.6,1.5,7.3,2.7,11,3.3c4.4,0.6,9-0.1,13.4,0.4
		c12.9,1.5,25.3,4.6,35.5,14.3c5.6,5.3,11.2,10.4,19.2,10.5c1.3,0,2.9,0.8,4,1.7c7.3,6.3,15.3,12,21.6,19.5
		c7.9,9.5,14.6,20.1,21.2,30.8c6.2,10.1,7.3,17.6,5.1,25.3c-2.6-5.1-5.2-10.2-7.7-15.3c-8.1-15.9-16.5-31.6-29.7-43.3
		c-7.7-6.7-14.8-14.5-25.7-15c-1.2-0.1-2.4-1.5-3.5-2.5c-7.2-6-13.8-12.8-22.7-15.9c-10.3-3.5-20.8-4.8-31.5-4.9
		c-3.2,0-6.5-1-9.5-2.3c-5.1-2.3-9.8-5.8-15.1-7.8c-9.9-3.7-20.1-5.8-30.4-1.1c-3.6,1.6-7.1,3.7-10.7,5c-9.4,3.4-18.8,6.3-28.9,6.8
		c-9.5,0.5-18,5.2-26.2,10.2c-5.9,3.6-12.1,5.5-19,5.3c-10.6-0.3-21-3.9-31.7-3c-9.8,0.8-19.7,0.3-29,5.4
		c-6.3,3.5-13.3,5.7-19.9,8.5c-5.6,2.4-11.1,4.8-16.7,7.2c-0.5,0.2-1,0.6-1.5,1c-10.1,9.2-21.2,10.3-33.2,5.3
		c-8.9-3.7-17.1-0.7-25.6,2.6c-8.3,3.3-16.9,6.1-25.6,7.7c-12.9,2.5-24.4,7.1-31.4,19.8c-3.7,6.8-6,14.5-9.1,21.7
		c-2,4.4-4,8.9-6.8,12.8c-4.1,5.8-9.9,10.5-12.9,16.8c-3.8,8.1-5.9,17.2-7.9,26.1c-1.5,6.9-1.6,14.2-2.4,21.4
		c-0.8,0.1-1.5,0.2-2.2,0.2c-0.8-0.1-1.6-0.3-2.5-0.4c0.1-11.3,1.8-21.9,4.2-32.7c2.4-10.6,6.1-20.1,13.7-27.1
		c9.3-8.6,13.6-20.1,17.4-31.8c5-15.6,14.6-25,28.9-29.5c2.3-0.7,4.5-1.5,6.8-2.3c-10.5,0.4-19.8,4.4-27.7,11.7
		c-8.9,8.3-11.4,20.5-15.8,31.3c-2.2,5.4-4.3,10.5-7.9,14.9c-4.6,5.8-10.3,11.1-13.2,17.8c-3.9,9.1-5.9,19.2-8,29
		c-1.3,6-1.1,12.4-1.6,18.7c-1.7,0-3.5,0-5.4,0c-0.1-11.9,1.6-23,4.2-34.2c2.7-12,7.5-22.2,15.6-30.7c2.7-2.8,5.3-5.9,7-9.4
		c4.4-9.2,8.3-18.7,12.3-28.1c7.3-16.9,20.4-24.2,36.5-27.5c8.4-1.7,16.7-4.4,24.7-7.5c10.3-3.9,20.2-8,31.3-3.1
		c9.3,4.1,18,2.3,26.5-3.9c7.2-5.2,14.9-9.6,24-10.8c5.3-0.7,10.4-4,15.6-6.2c3-1.3,5.9-3.5,9-4.3c7.7-1.8,15.5-3.4,23.3-4.2
		c5.6-0.6,11.4,0.1,17.1,0.6c6,0.5,11.9,1.4,17.9,2c7.8,0.7,13.9-4.1,20.6-7.4c7-3.4,14.4-6.2,21.9-8.5c5.2-1.6,11-1.2,16.2-2.6
		c7.1-1.9,14.2-4.1,20.9-7.3c10.6-5.1,21.6-6.1,32.5-3.4c7.2,1.7,13.9,5.7,20.8,8.6c3.3,1.4,6.6,3.1,10.1,3.6
		c4.2,0.7,8.6,0.1,12.9,0.5c15,1.3,29.2,4.9,40.9,16.3c3.2,3.2,7.1,6.4,11.2,7.5c5.5,1.6,10.2,3.7,15.1,7.2
		c14.4,10.3,25.5,23.8,35,39.1c4.2,6.6,7.2,13.6,4.9,22c-4.5-7.7-9.1-15.2-13.4-22.9c-8.1-14.3-19.6-24.9-32.1-34.3
		c-2.5-1.9-5.6-2.9-8.5-4.2c-3.1-1.4-6.7-2-9.3-4c-10-7.9-19.6-16.7-32.5-18.7c-5.3-0.8-10.5-1.4-15.8-2.1
		c-5.8-0.8-11.8-0.8-17.3-2.5c-5.2-1.6-9.8-5.1-14.8-7.4c-11.5-5.4-23.1-5.6-34.9-0.9c-8.1,3.2-16.2,6.4-24.5,8.9
		c-5.2,1.6-10.7,1.7-16.1,2.6c-8.7,1.4-16.6,5.2-24.2,9.8c-8.2,5-16.7,7.4-26.1,5c-5.1-1.3-10.5-2.9-15.6-2.7
		c-10.5,0.3-21,1.1-31.3,3c-5.5,1-10.4,5.1-15.7,7.2c-5.9,2.4-12.3,3.5-18,6.3c-10.5,5.2-20.6,11.3-31.2,17.2
		C989.4,636.3,994.2,634.1,999,631.2z M961.2,630.9c-0.1-0.6-0.2-1.1-0.3-1.7c-4.5,0.8-9.1,0.9-13.4,2.5c-8.3,3-16.3,6.8-25.3,10.7
		C936.9,642.7,947.8,631.9,961.2,630.9z"/>
	<path class="st0" d="M1356.8,761.5c-0.6,4.1,1.9,6,9.2,5.3c-0.7-1.6-1-3.3-1.8-4.4c-9.6-13.3-15.7-28.4-20.9-44.3
		c-6.2-19-14.2-37.5-27.3-52.3c-6.5-7.3-13.3-14.6-23.7-16c-4.1-0.5-8.5-3.5-11.4-6.7c-11-12.1-24.7-15.4-39.2-14.5
		c-8.4,0.5-15.4-1.9-22.5-5.9c-5-2.8-10.4-5.3-16-6.7c-6.8-1.7-13.3,1.2-19.4,4.3c-10.7,5.5-21.2,10.4-33.4,10.8
		c-5.8,0.2-11.5,3.4-17.1,5.7c-4.5,1.9-8.6,5.2-13.2,7c-3.4,1.4-7.3,2.2-10.8,1.9c-10.3-0.9-20.5-3.1-30.7-3.8
		c-8.7-0.6-17.1,1.3-25.1,5.4c-5.3,2.7-11.4,3.3-16.9,5.5c-5.4,2.1-10.8,4.6-15.6,7.8c-6.7,4.5-13.6,6.3-21,3.3
		c-12.2-5-23.7-3.7-35.5,2.1c-5.2,2.5-11.5,2.8-17.3,3.1c-11.1,0.5-21.6,2.4-29.4,12c-1.3,1.6-2.5,3.5-3.2,5.4
		c-2.6,6.6-5.3,13.2-7.4,20c-1.9,5.9-5.9,9.6-10.1,13c-6.1,4.9-10,11.4-11.9,19.1c-2.3,9.1-3.8,18.5-5.7,28.3c3.1,0,4.9,0,6.3,0
		c1.7-8.9,2.7-17.8,5.1-26.2c1.4-5,3.9-10.9,7.6-13.7c10.1-7.7,14.5-18.9,18.3-30.5c5.6-17,15-20.3,29.6-21.2
		c7.1-0.5,14.7-0.9,21.1-4c10.3-5,19.9-5.9,30.5-1.7c9.4,3.7,18.2,1.6,26.8-4.2c5-3.4,10.9-5.5,16.5-7.8c6.3-2.5,12.7-4.9,19.1-6.8
		c5.2-1.5,10.6-3.1,16-3.1c6.7,0,13.3,1.8,20,2.4c12.4,1.1,24.7,2.7,36.1-5.9c6.8-5.2,15.1-7,23.5-8.1c10.6-1.3,20.7-4.6,30.3-10.1
		c9.8-5.6,19.8-4.1,29.5,0.7c3.5,1.8,6.7,4.4,10.2,6c3.3,1.4,6.9,2.4,10.4,2.5c10,0.4,20.2-0.2,29.3,4.7c5.8,3.1,10.6,8.4,15.9,12.5
		c2,1.6,4.3,3.9,6.5,4c8.4,0.3,14.9,4.8,20.1,11.2c5.4,6.6,10.7,13.6,14.8,21.2c7.4,13.8,13.1,28.4,17.6,43.8
		c2.7,9.3,8.4,17.7,12.9,26.3C1353.8,760.2,1355.4,760.6,1356.8,761.5z"/>
	<path class="st0" d="M1365.5,751.1c0.6-5.2,0.1-9.8-2.5-14.7c-3-5.5-5.6-11.5-6.9-17.7c-2.4-11.2-7.6-20.9-12.5-30.8
		c-5.8-11.9-11.9-23.6-21-33.1c-4.6-4.7-9.5-9-14.5-13.2c-1.4-1.2-3.4-1.7-5.2-2c-6-1.1-11.7-2.9-16.1-7.9
		c-11.5-13.1-26.4-16-42-15.7c-7.3,0.1-13.6-1.2-20-5.3c-9.7-6.2-20.3-10.1-31.8-7c-5,1.4-9.6,4.3-14.5,6.1
		c-5.8,2.2-11.6,4.3-17.5,6.1c-10.4,3.1-21.7,1.9-31.3,8.6c-4.1,2.8-8.7,4.9-13.1,7.2c-1.4,0.7-3,1.5-4.5,1.4
		c-7.5-0.9-15-2.3-22.6-3c-5.8-0.6-11.8-0.6-17.6-0.5c-8.3,0.2-16.1,2.6-23.7,6.4c-5,2.5-10.7,3.7-16.1,5.2
		c-7.9,2.2-14.9,6.2-21.7,11c-7.1,5.1-15.1,4.1-22.5,1.1c-9.5-3.9-18.1-2.5-27.2,1.4c-7,3-14.7,4.2-22.1,6c-7,1.7-14.3,2.4-20.9,5.2
		c-10.1,4.3-14.6,14.2-18,24.9c-3.3,10.4-7.9,19.8-16.3,26.8c-6.1,5.1-9.5,12.4-10.9,20.7c-1.4,8.3-2.8,16.6-4.2,24.9
		c-0.2,1.2,0,2.4,0,4c1.8,0,3.3,0,4.1,0c1.9-10.2,3.2-20.2,5.7-29.9c1.2-5,4.1-9.6,6.8-13.9c1.6-2.7,4.2-4.7,6.6-6.7
		c8.1-6.7,10.8-17.1,13.8-26.6c5.5-17.5,16.6-23.4,30.9-24.2c10-0.6,19.3-3.1,28.3-7.5c5.6-2.7,11.5-3.6,17.7-1.5
		c8.2,2.9,16.6,5.8,25.3,2.3c1.4-0.5,2.9-0.8,4-1.7c10.5-9.1,23.5-11.3,35.7-16c7.9-3,15.3-7.4,23.9-7.1c7.4,0.3,14.6-0.1,22.2,1.7
		c12.8,3.1,25.8,3,37.8-5.7c6.9-5,14.8-7.1,23.5-7.8c8.8-0.6,18-3.7,25.9-8.1c15.5-8.7,29.8-7.6,44.1,2c4.9,3.2,10,4.9,15.9,5.2
		c9,0.5,18,1.8,26.9,3.5c8,1.6,13.1,8.7,19.4,13.5c2.4,1.8,5,4.2,7.7,4.5c8.2,1,13.9,6.2,19.8,11.4c11.8,10.3,18.5,24.6,25.4,38.7
		c5.2,10.5,8.9,21.6,12.3,33c2.7,9,7.7,17.3,11.7,25.9C1364.4,751.7,1364.9,751.4,1365.5,751.1z"/>
	<path class="st0" d="M1365.1,730.4c2.3-16.1-1.3-29.4-8.7-41.9c-6.3-10.6-11.7-22-18.5-32.2c-4.5-6.7-10.5-12.3-16.2-17.9
		c-5.5-5.4-11.3-10.3-19.4-11c-2.7-0.3-5.8-2.2-7.8-4.4c-15-16-33.4-19.8-53.4-18.9c-2.8,0.1-5.8-1.2-8.5-2.4
		c-7.3-3.2-14.3-7.6-21.8-9.8c-10.9-3-21.3,0.2-31.5,5.4c-5.5,2.8-11.6,4.4-17.6,5.9c-6.8,1.6-13.9,1.9-20.6,3.9
		c-5.5,1.6-10.7,4.4-15.7,7.4c-7.1,4.4-14.2,6.3-22.6,6c-7.6-0.2-14.5-3.3-22-3.3c-13.1,0-26,1.2-38.1,7.8
		c-4.3,2.3-9.4,2.8-13.9,4.6c-6.3,2.5-13.1,4.4-18.6,8.4c-9.3,6.7-18.5,9-29,4.9c-10.4-4-20.1-2.3-30.1,2.6
		c-6.9,3.4-14.9,4.6-22.5,6c-9.4,1.6-18.6,3.5-26.1,10.2c-5.3,4.7-8.6,10.9-11,18.1c-3.8,11.7-8.4,23.2-17.6,31.6
		c-6.9,6.3-10.9,14.4-12.5,24c-1.2,6.9-2.8,13.7-3.9,20.6c-0.6,3.5-0.4,7.1-0.6,11c1.8,0,3.2,0,4.5,0c0.8-6.8,0.9-13.6,2.4-20.1
		c2.1-9.3,3-19.3,9.1-27.1c3.9-5,8.6-9.3,12.4-14.4c2.2-2.9,3.5-6.7,5.2-10.1c4.5-9.3,6.2-20.3,13.5-28.1
		c7.4-7.8,16.8-9.4,26.4-11.2c8-1.5,16.3-2.9,23.6-6.4c10.4-5,20.2-5.2,30.6-1.2c8.6,3.2,16.8,2.1,24.3-3.8
		c7.2-5.6,15.1-9.4,23.9-11.4c5.8-1.3,11.3-4.6,17-6.7c4.1-1.5,8.2-3.2,12.4-3.7c7.1-0.9,14.4-1.4,21.6-1.2c5.4,0.2,10.8,1.4,16,2.9
		c11.1,3.2,20.6-0.8,29.9-6.8c7.5-4.8,15.6-6.8,24.5-7.6c8.8-0.7,17.8-4,26-8c11.1-5.4,22-8.7,33.8-4.3c5.3,1.9,10.1,5.3,15.2,7.5
		c4.2,1.8,8.6,3.3,13.1,4c9.6,1.5,19.7,1.2,28.9,4.1c6.9,2.1,13.2,7.5,18.9,12.6c4.6,4,9.2,6.6,14.9,7.5c2.2,0.3,4.4,1.4,6.3,2.8
		c12.9,9.6,23.3,21.9,30.8,36.8c5.3,10.5,10.6,21.2,15.2,32.1c2.4,5.6,3.2,12,4.9,17.9C1362.9,725.4,1363.9,727.4,1365.1,730.4z"/>
	<path class="st0" d="M802,767.1c2.6,0,4,0,5.4,0c0.9-9.7,1.4-19.2,2.9-28.6c2.6-16.6,6-33,17.7-45.5c10.1-10.9,15.2-25.1,20.2-39
		c6-16.7,16.8-27.3,31.6-33.8c4.4-1.9,9.1-2.9,13.5-4.6c7.9-2.9,16.2-4.9,23.4-9.2c11.4-6.7,22.6-8.9,34.8-3.7
		c8.3,3.6,16,1.6,22.8-4c10.2-8.4,21.7-13.2,33.8-17.1c5.3-1.7,10.3-4.8,15.3-7.5c13.3-6.9,27.7-7.6,42-9.3
		c4.8-0.6,9.7-1.5,14.2,1.5c0.2,0.2,0.6,0.3,0.8,0.2c7-1.3,14.1,2.1,20.9,0.6c6.9-1.6,13.5-5.2,20-8.2c9-4.2,18.1-8.2,28.2-7.3
		c1.7,0.2,3.5-1.1,5.4-1.3c14.3-1.5,26.8-9.3,40.5-12.8c8.9-2.3,17.5-0.5,26.1,1.7c6,1.5,11.8,4,17.6,6.2c1.5,0.6,2.8,2.1,4.2,3.2
		c4.9,3.8,10.6,2.3,15.9,2.9c14.4,1.5,28.8,3.3,41.4,11.8c6.6,4.5,14.4,7.3,19.3,14.6c0.3,0.5,1.3,0.7,1.9,0.6
		c7-1.1,11.7,3.4,16.5,7.6c3.8,3.3,7.7,6.4,11.4,9.8c5.3,5,10.3,10.3,15.7,15.7c0.8-4.6,1-9.1-3.1-12.4c-9.5-7.8-19-15.7-28.5-23.5
		c-0.4-0.4-1-0.8-1.6-0.8c-10.2-0.1-17.1-7.9-24.5-13.7c-9.1-7.1-19.5-8.9-29.7-11.4c-6.8-1.6-14-3.4-20.8-2.8
		c-8,0.7-13.2-4.9-19.8-7.5c-11.1-4.3-22.3-7.3-34.2-6.7c-10.3,0.5-19.7,4.5-29.5,7.5c-9,2.8-18.4,3.9-27.6,5.6
		c-8.1,1.4-16.1,3-23.3,7.4c-4.1,2.5-8.2,5.2-12.6,6.9c-4.1,1.6-8.6,2.2-12.9,2.7c-4.6,0.5-9.2,0.6-13.9,0.5c-1.9,0-3.7-1.5-5.7-1.6
		c-4.7-0.3-9.4-0.3-14.1-0.1c-12.8,0.4-25.4,2.5-37.3,7.8c-5.4,2.4-10.6,5.4-16.1,7.8c-2.1,0.9-4.7,0.5-6.9,1.5
		c-7.7,3.3-15.4,6.7-23,10.4c-3.5,1.7-6.7,4.3-10,6.5c-5.1,3.4-10.5,3.6-16.2,2.3c-6.8-1.5-13.5-5.6-20.7-3.2
		c-5.8,1.9-11.5,4.6-17.3,6.7c-7.7,2.9-15.4,6.6-23.3,8.4c-21.2,4.8-37.6,16.1-46.8,37.9c-2.8,6.6-4.9,13.7-8.3,20
		c-4,7.5-8.3,15.1-13.7,21.4c-10.8,12.7-15.1,28.3-18,44.5C803.9,744.8,803.3,755.7,802,767.1z"/>
	<path class="st0" d="M1365.4,652c0.4-5.5,0.4-9.8-2.5-14.2c-10.6-16-24.1-28.4-39.4-38.7c-2.4-1.6-5.7-1.6-8.5-2.8
		c-3-1.3-6.1-2.7-8.6-4.8c-8.2-6.6-16.1-14.2-26.5-16.1c-10.9-2-22-2.6-33-4.1c-2.9-0.4-6.1-1-8.5-2.7c-9.7-7-20.4-9.6-31.7-10.7
		c-11.5-1.1-21.6,4.2-32.1,7.5c-9.3,2.9-18.9,5.1-28.6,6.3c-10.8,1.4-20.2,6.2-29.4,11.7c-6.4,3.9-13,5.9-20.3,4.5
		c-1.6-0.3-3.2-0.1-4.7-0.3c-3.9-0.6-7.8-1.2-11.7-1.9c-1.7-0.3-3.4-0.9-5.1-0.8c-7.7,0.6-15.4,1.3-23.1,2.3
		c-8.8,1.2-17,4.4-24.5,9.5c-1.7,1.1-3.7,1.7-5.7,2.2c-12.7,3-24.7,7.7-35.3,16.4c-5.9,4.9-13,5.7-20.2,3.7
		c-2.5-0.7-5.1-1.3-7.5-2.2c-10.1-3.7-19,0.2-28.2,4.4c-7.4,3.4-15.3,5.1-23,7.9c-8.1,3-16.6,5.3-24.1,9.6
		c-10.1,5.9-16.1,15.9-19.7,27.9c-4.3,14.2-11.9,26.4-21.6,37.3c-4.5,5-7.6,12.4-9.5,19.3c-3.8,14.2-7.2,28.7-6.2,44.1
		c1.3,0.1,2.7,0.1,4.2,0.2c0.2-0.7,0.5-1.3,0.6-1.9c1.4-11.6,2.4-23.3,4.4-34.8c1.8-10.5,6.2-19.9,13.4-27.4
		c9.6-9.9,14.8-22.8,19-35.8c5.4-16.4,15.8-26.2,30.5-31.1c9.8-3.3,19.8-5.6,29.5-8.8c5.3-1.7,10.3-4.7,15.6-6.7
		c5.4-2,10.8-1.8,16.5,0.1c7.4,2.5,15,5.3,22.7,1.3c2.8-1.5,5.8-2.9,8.2-5c8.8-7.7,19.1-11.2,29.8-14.3c6.1-1.7,11.5-5.7,17.6-7.7
		c6.8-2.2,13.9-3.5,20.9-4.8c4.4-0.8,8.9-0.7,13.3-1.4c3.9-0.6,7.5,0.6,11.3,1.3c11,2.1,22.1,3.9,33-2c7.8-4.2,16.1-7.4,24.2-11
		c0.3-0.1,0.5-0.3,0.8-0.3c16.9-0.1,32.3-6.5,47.8-12.8c10.2-4.2,20.8-2.9,30.9,0.9c6.1,2.3,11.7,5.8,17.7,8.4
		c2.7,1.2,5.8,2.3,8.7,2.3c13.5,0.1,27,1.6,39.3,7.7c7.5,3.7,14,9.8,21,14.7c1.8,1.3,4,2.1,6,3c3.5,1.6,7.6,2.3,10.5,4.7
		c8.6,7.1,17.2,14.3,24.8,22.6c5.8,6.3,10.2,14.2,15.3,21.4C1364.3,650.5,1364.7,651,1365.4,652z"/>
	<path class="st0" d="M1002.2,679.6c0.9,0.1,1.9,0.1,2.8,0.2c10.7,2.8,20.2-0.3,28.9-7.3c1.5-1.2,3.3-2,5.1-2.6
		c10.5-3.6,20.9-8.1,31.7-10.3c7.3-1.6,15.2-0.5,22.8,0.3c6.3,0.6,12.4,2.7,18.6,3.6c6.6,0.9,12.3-2.3,18.1-5.3
		c6.2-3.2,12.5-6.4,19.1-8.6c6.1-2,12.6-2.2,18.7-4c4.8-1.4,9.7-3.4,14-6c10.7-6.7,21.3-7.4,31.9-0.2c8.5,5.8,17.4,8.1,27.5,7.5
		c13.3-0.7,25,3.8,34.2,15.2c2.2,2.7,6.1,4.6,9.5,5.1c11,1.7,18.8,9,23.9,18.3c7.3,13,13.5,26.9,18.6,41.1
		c4.6,12.7,8.5,25.6,15.8,36.9c2.2,3.5,4.8,4.5,8.6,3.4c-3.2-5.2-6.7-10-9.3-15.3c-3.3-6.9-6.2-14.1-8.6-21.4
		c-5.8-17.2-12.3-34.2-22.2-49.1c-5.8-8.7-13-16.4-23.8-18c-6.8-1.1-11.9-5.8-16.4-10.8c-7.4-8.2-16.9-9.4-26.5-10.5
		c-2.1-0.3-4.3-0.2-6.5,0c-8,0.6-14.9-1.7-21.9-6.3c-11.7-7.7-24.2-8.5-36.5-0.5c-8.8,5.7-18.6,7.5-28.6,9.5
		c-7.2,1.4-14.7,3.8-21,7.7c-8.9,5.6-17.8,7.6-27.7,5.7c-7.2-1.4-14.4-2.8-21.6-3.4c-8.4-0.7-16.5,0.5-24.1,5.2
		c-3.1,1.9-7,3-10.6,3.2c-7.4,0.5-13.6,4-19.4,8.3c-7.4,5.3-15.2,6.5-23.5,3.9c-7.5-2.3-15.1-4.7-22.9-2.4
		c-5.4,1.6-10.5,4.2-15.9,5.7c-3.9,1.1-8,1.3-12,1.4c-6.8,0.2-13.5,0-19.7,3.8c-5.5,3.3-9,8.2-11.1,14.4c-2,5.8-3.4,12.1-6.1,17.5
		c-2.1,4.1-5.5,7.8-9.1,10.4c-5.1,3.8-8.5,8.8-10.2,14.8c-2.4,8.5-3.7,17.3-5.6,26.5c2.4,0.2,3.8,0.3,5,0.3
		c1.3-6.5,2.7-12.6,3.8-18.8c1.5-9.1,5.5-16.3,12.7-21.4c8.5-6,10.2-16.4,13.5-25.6c2.7-7.8,6.8-14.1,14.3-16.2
		c4.5-1.3,9.4-1.3,14.1-1.2c7.7,0.1,15-1.3,22.1-4.8C985,675.2,993.8,673.9,1002.2,679.6z"/>
	<path class="st0" d="M1365.5,628.4c1.9-5.7-1.7-9.7-4.9-14.2c-8.4-11.7-20.1-19-30.7-27.7c-1.1-0.9-2.6-1.4-4-1.5
		c-7-0.5-12.3-4.4-17.6-9c-10.5-9-22.5-14.5-35.9-15.7c-8-0.7-16-1.2-23.9-2c-1.8-0.2-3.7-1-5.2-2.1c-13.1-9.6-27.7-13-43.1-11
		c-8.5,1.1-16.8,4.8-25.2,6.8c-9.4,2.2-19.1,3.4-28.5,5.8c-7.8,2-15.4,4.7-22.9,7.7c-4.3,1.7-8.3,4.4-12.4,6.7
		c-6.2,3.5-12.7,3.1-19.4,2.8c-9.4-0.3-18.5-3.8-28.1-1.3c-7.7,2-16,1.4-23.7,3.3c-6.1,1.5-11.7,5.1-17.5,7.8c0.2,0.5,0.3,1,0.5,1.5
		c1.3-0.3,2.6-0.3,3.7-0.9c7.2-4.1,14.8-6.1,22.9-6.9c9.1-0.9,18.1-3.5,27.4-2.4c6.1,0.8,12.2,1.5,18.2,2.9c7.2,1.7,13.6-0.7,20-3.6
		c8.5-3.8,17.1-7.4,25.6-11c0.7-0.3,1.4-0.5,2.1-0.6c8.1-1.3,16.3-2,24.2-4c6.1-1.5,11.9-4.4,17.8-7.1c14.4-6.5,28.7-4.8,42.7,1.2
		c5.4,2.3,10.4,5.9,15.9,8c3.5,1.4,7.6,1.6,11.3,1.5c21-0.2,39.5,7,55.6,21.7c3.1,2.9,6.2,4.8,10.9,4.3c2.5-0.3,5.5,2.3,7.9,4.1
		c4.7,3.6,9.4,7.3,13.6,11.5C1350.6,612.6,1358,620.6,1365.5,628.4z"/>
	<path class="st0" d="M1011.9,589c-11.7,2.6-22.4,7.7-32.3,15c-6.4,4.8-13.1,6.2-20.9,3.5c-10.2-3.6-20.4-4.6-30.8,1
		c-7.6,4.1-15.9,7-24.1,9.9c-7.4,2.6-15.4,3.8-22.6,7c-9,4-16.8,10.6-21.6,19.9c-5.1,9.8-8.5,20.7-13.4,30.6
		c-2.9,6-6.7,11.8-11.2,16.4c-11.5,11.8-15.7,27.1-18.5,43c-1.8,10.2-2.8,20.6-4.2,31.6c2.5,0.1,4,0.2,6.5,0.4
		c0-4.3-0.3-8.3,0.1-12.3c1.7-17.5,4.2-34.8,13.2-50c1.9-3.1,4.2-5.9,6.6-8.6c6.9-7.8,11.3-17.1,14.8-27.2
		c2.6-7.5,6.1-14.8,9.9-21.7c5.4-9.7,14-15.6,23.5-19.4c6.6-2.6,13.7-4.1,20.4-6.6c7.1-2.7,14.2-5.7,21.1-9c9.1-4.3,18-5.6,27.5-1.6
		c7.3,3,14.9,4.4,22-0.8c5.3-3.8,10.5-8.1,16-11.5c3.8-2.3,8.2-3.4,12.3-5.1c2.1-0.9,4.1-2,6.1-3
		C1012.3,590.1,1012.1,589.5,1011.9,589z"/>
</g>
</svg>
